<svg width="251" height="55" viewBox="0 0 251 55" fill="none" xmlns="http://www.w3.org/2000/svg">
<path d="M140.035 1.65582C115.167 -1.17974 90.5773 0.199105 69.8409 3.26342C49.4085 6.28833 31.5088 10.8443 17.4862 16.5905C10.3712 19.5087 4.04221 22.825 1.47593 26.768C-0.91011 30.416 0.0714603 34.612 5.99749 38.4108C11.9235 42.2095 21.4877 44.898 31.5991 46.9915C43.5011 49.4589 56.3521 51.1355 69.1776 52.2118C94.5013 54.3344 120.227 54.3939 144.243 53.4004C168.258 52.4069 189.974 50.2091 210.204 46.8357C228.808 43.738 247.513 39.1426 249.812 31.2177C250.865 27.5879 248.216 23.6451 240.908 20.3C233.601 16.9549 223.516 14.7089 213.309 12.9265C188.088 8.5247 160.677 6.54091 134.665 5.9191C108.653 5.2973 81.1398 6.12362 55.207 7.26908C48.9252 7.54437 42.6701 7.84583 36.4153 8.14249C35.6246 8.17829 34.1896 8.39623 34.8913 8.77338C35.593 9.15054 37.659 9.11132 38.5216 9.07139C63.094 7.918 87.7657 6.77706 113.2 6.70797C138.635 6.63888 164.187 7.6596 189.522 10.7482C209.961 13.2389 235.858 17.408 242.664 25.4287C245.777 29.0985 244.505 32.7886 240.476 35.823C236.218 39.033 228.681 41.4749 220.354 43.3833C212.027 45.2917 202.106 46.8895 192.263 48.2038C182.42 49.5182 171.734 50.6182 160.915 51.3992C139.132 52.9743 115.901 53.4538 92.3879 52.5654C79.9028 52.0943 67.2226 51.1787 54.8835 49.5511C43.6791 48.0733 32.36 46.0366 22.9837 43.1407C13.8727 40.3326 7.85819 36.7538 6.22086 32.8886C4.58353 29.0235 7.35828 25.1641 12.3151 21.9933C17.3779 18.7486 24.5129 15.9429 32.07 13.4254C39.627 10.9078 47.9165 8.74076 56.9559 6.88222C74.8896 3.1878 96.3493 0.405796 119.659 1.13863C125.348 1.31478 131.119 1.71444 136.786 2.36177C138.022 2.50007 139.522 2.54772 140.486 2.31288C141.201 2.13621 141.214 1.78974 140.035 1.65582Z" fill="white"/>
</svg>
