<svg width="148" height="148" viewBox="0 0 148 148" fill="none" xmlns="http://www.w3.org/2000/svg">
<path d="M109.87 23.4512C109.934 23.3315 109.916 23.224 109.82 23.1319L109.194 22.4748L109.329 22.1953C109.857 22.527 110.395 22.8494 110.935 23.1656C111.476 23.4819 112.044 23.8013 112.633 24.1206L112.504 24.4031L111.54 24.1513C111.396 24.1175 111.294 24.1483 111.233 24.2404C111.027 24.572 110.785 24.9804 110.499 25.4656L107.656 30.3448C107.37 30.8361 107.134 31.2507 106.946 31.5915C106.894 31.6898 106.922 31.7911 107.023 31.8955L107.705 32.6018L107.563 32.8781C106.974 32.5158 106.403 32.178 105.859 31.8587L96.0327 26.1319C95.5045 25.8248 94.9548 25.5116 94.3806 25.1953L94.5096 24.9128L95.5076 25.1708C95.6274 25.2015 95.7225 25.1646 95.7901 25.0602C95.959 24.79 96.1647 24.4492 96.4073 24.0346L99.3553 18.9742C99.6378 18.489 99.8742 18.0745 100.062 17.7337C100.114 17.6354 100.089 17.5341 99.994 17.4266L99.3061 16.7173L99.4474 16.4409C100.04 16.8094 100.608 17.1502 101.149 17.4665C101.689 17.7828 102.223 18.0806 102.748 18.3662L102.619 18.6487L101.723 18.4184C101.594 18.3816 101.493 18.4184 101.419 18.532C101.213 18.8575 100.967 19.2628 100.682 19.748L97.0553 25.9722L100.633 28.0572L104.259 21.833C104.542 21.3478 104.778 20.9333 104.966 20.5924C105.024 20.4819 105.002 20.3744 104.904 20.2731L104.278 19.616L104.419 19.3396C104.962 19.6774 105.506 20.0059 106.046 20.3222C106.587 20.6385 107.121 20.9364 107.649 21.2219L107.527 21.5106L106.624 21.2772C106.495 21.2403 106.393 21.2772 106.32 21.3939C106.117 21.7224 105.874 22.1278 105.592 22.6129L101.965 28.8371L105.534 30.916L109.16 24.6918C109.443 24.2066 109.676 23.7951 109.863 23.4574L109.87 23.4512Z" fill="white"/>
<path d="M116.441 35.4849L114.556 37.097C114.338 37.2843 114.141 37.4532 113.966 37.6067C113.791 37.7572 113.634 37.8984 113.496 38.0243C113.386 38.1257 113.358 38.2393 113.416 38.3621L113.803 39.182L113.582 39.403C113.186 38.921 112.787 38.4389 112.381 37.966C111.97 37.4839 111.54 36.9926 111.098 36.4982L111.313 36.274L112.145 36.836C112.256 36.9127 112.36 36.9189 112.452 36.8513C112.603 36.7316 112.768 36.5934 112.95 36.4399C113.131 36.2863 113.333 36.1174 113.551 35.9301L117.995 32.1287C118.182 31.969 118.348 31.8247 118.495 31.6957C118.643 31.5667 118.775 31.447 118.895 31.3395C118.987 31.2535 119.008 31.1522 118.959 31.0355L118.538 30.1112L118.763 29.8963C118.981 30.1665 119.192 30.4245 119.395 30.6701C119.598 30.9158 119.804 31.1583 120.009 31.3979C120.215 31.6374 120.418 31.8707 120.62 32.101C120.823 32.3313 121.032 32.5616 121.244 32.795L121.035 33.0253L120.261 32.5064C120.154 32.4265 120.052 32.4234 119.957 32.4971C119.822 32.6046 119.678 32.7244 119.521 32.8533C119.364 32.9823 119.199 33.1236 119.02 33.2771L116.92 35.0734L117.457 35.6998C117.614 35.8841 117.761 36.0437 117.897 36.1789C118.032 36.314 118.173 36.4245 118.317 36.5105C118.462 36.5965 118.618 36.6548 118.781 36.6855C118.944 36.7162 119.128 36.7162 119.337 36.6855C119.546 36.6548 119.779 36.5934 120.043 36.5013C120.304 36.4092 120.611 36.2802 120.961 36.1205C121.32 35.9486 121.631 35.8073 121.889 35.6968C122.147 35.5831 122.368 35.5002 122.552 35.445C122.736 35.3897 122.893 35.3651 123.022 35.3621C123.151 35.3621 123.27 35.3897 123.375 35.4419C123.482 35.4972 123.587 35.577 123.694 35.6876C123.799 35.7981 123.924 35.9332 124.063 36.0959C124.351 36.4337 124.649 36.8114 124.956 37.229L124.637 37.5422C124.394 37.272 124.158 37.0724 123.928 36.9404C123.697 36.8083 123.461 36.7285 123.218 36.6978C122.976 36.6671 122.715 36.6794 122.441 36.7316C122.168 36.7838 121.864 36.8544 121.535 36.9434C121.293 37.0079 121.05 37.0663 120.805 37.1215C120.562 37.1768 120.322 37.2198 120.086 37.2505C119.85 37.2812 119.616 37.2904 119.389 37.2843C119.162 37.2751 118.938 37.2382 118.726 37.1737C118.584 37.7909 118.431 38.3774 118.265 38.9332C118.099 39.489 117.949 39.9987 117.814 40.4686C117.688 40.9077 117.583 41.2976 117.5 41.6446C117.414 41.9885 117.368 42.2833 117.362 42.5259C117.362 42.6518 117.368 42.7654 117.381 42.8698C117.396 42.9742 117.418 43.0755 117.448 43.1738C117.479 43.2721 117.516 43.3703 117.562 43.4686C117.608 43.5668 117.663 43.6774 117.731 43.8002L117.504 44.0244C117.224 43.7664 117.003 43.5392 116.84 43.3488C116.699 43.1861 116.582 43.0387 116.484 42.9097C116.386 42.7808 116.306 42.6579 116.245 42.5412C116.183 42.4246 116.137 42.314 116.103 42.2065C116.073 42.0991 116.051 41.9855 116.045 41.8688C116.011 41.5863 116.039 41.2546 116.128 40.877C116.214 40.4993 116.337 40.0755 116.496 39.6088C116.616 39.2372 116.742 38.8534 116.88 38.4573C117.015 38.0612 117.135 37.6528 117.239 37.2352C117.267 37.1123 117.292 37.011 117.31 36.925C117.328 36.839 117.335 36.7623 117.325 36.6886C117.316 36.6149 117.295 36.5443 117.258 36.4767C117.221 36.4092 117.163 36.3293 117.086 36.2372L116.441 35.4849Z" fill="white"/>
<path d="M129.084 55.3275C127.567 56.0123 126.136 56.0952 124.791 55.5732C123.443 55.0512 122.389 53.9488 121.628 52.263C120.903 50.6632 120.771 49.2323 121.225 47.9702C121.68 46.7082 122.635 45.7471 124.09 45.09C125.607 44.4052 127.02 44.3346 128.328 44.8781C129.636 45.4216 130.671 46.5301 131.427 48.2036C132.151 49.8096 132.302 51.2343 131.872 52.4872C131.442 53.7369 130.515 54.6858 129.087 55.3306L129.084 55.3275ZM125.015 46.5608C123.587 47.2056 122.635 48.0163 122.159 48.9928C121.683 49.9662 121.723 51.0655 122.273 52.2814C122.816 53.4821 123.559 54.2098 124.508 54.4708C125.457 54.7287 126.67 54.5261 128.144 53.8567C129.529 53.2303 130.456 52.4442 130.926 51.5015C131.396 50.5588 131.344 49.4534 130.772 48.1852C130.217 46.9569 129.467 46.22 128.528 45.9743C127.585 45.7287 126.415 45.9252 125.012 46.5577L125.015 46.5608Z" fill="white"/>
<path d="M134.347 69.0532L128.755 69.8393C128.469 69.8792 128.208 69.9161 127.975 69.9529C127.738 69.9898 127.527 70.0235 127.336 70.0542C127.229 70.0757 127.164 70.1586 127.146 70.303L127.014 71.2764L126.71 71.3439C126.627 70.6499 126.541 69.9928 126.455 69.3726C126.369 68.7523 126.274 68.1443 126.175 67.5486L126.479 67.4749L126.854 68.3285C126.909 68.4544 127.002 68.5097 127.124 68.4974C127.315 68.4759 127.527 68.4514 127.763 68.4207C127.996 68.3899 128.257 68.3562 128.543 68.3162L135.67 67.3152L135.302 64.6898C134.556 64.7635 133.803 64.8065 133.045 64.8188C132.286 64.8311 131.528 64.8003 130.769 64.7267C130.011 64.6499 129.255 64.524 128.503 64.3459C127.751 64.1678 127.002 63.9221 126.258 63.6089C126.129 63.5475 126.013 63.4892 125.914 63.4308C125.813 63.3725 125.727 63.2927 125.65 63.1852C125.574 63.0777 125.512 62.9426 125.457 62.7737C125.405 62.6048 125.359 62.3868 125.322 62.1166C125.263 61.7021 125.239 61.2108 125.248 60.6488L125.552 60.5751L125.693 61.0173C125.749 61.2015 125.804 61.352 125.859 61.4748C125.914 61.5977 125.979 61.7082 126.047 61.8065C126.117 61.9047 126.197 61.9999 126.292 62.0859C126.387 62.1719 126.507 62.2701 126.655 62.3776C127.017 62.6509 127.425 62.8812 127.877 63.0746C128.328 63.2681 128.804 63.4278 129.302 63.5567C129.799 63.6857 130.309 63.787 130.831 63.8577C131.35 63.9314 131.859 63.9774 132.354 63.9989C132.848 64.0204 133.327 64.0173 133.785 63.9989C134.242 63.9774 134.657 63.9406 135.028 63.8884C135.139 63.873 135.204 63.7778 135.222 63.6059L135.354 62.3715L135.658 62.3131C135.738 63.0163 135.805 63.5752 135.864 63.9836L136.426 67.9785C136.512 68.5988 136.613 69.2405 136.724 69.9038L136.423 69.9867L136.023 69.0655C135.968 68.9396 135.882 68.8782 135.765 68.8782C135.575 68.8997 135.36 68.9242 135.127 68.9549C134.893 68.9857 134.632 69.0194 134.347 69.0593V69.0532Z" fill="white"/>
<path d="M136.057 83.0739L126.82 85.2418C126.473 85.3216 126.234 85.4076 126.102 85.4967C125.97 85.5857 125.859 85.7239 125.773 85.9143L125.466 86.6175L125.156 86.5868C125.27 85.9081 125.371 85.2786 125.457 84.6983C125.543 84.1057 125.641 83.4086 125.745 82.601L126.056 82.6133L126.145 83.3841C126.163 83.4915 126.188 83.5714 126.221 83.6205C126.255 83.6696 126.314 83.7034 126.4 83.7157C126.495 83.731 126.624 83.7218 126.786 83.6881C126.949 83.6573 127.167 83.6113 127.437 83.5499L129.458 83.1016L130.011 79.3492L128.227 78.2499C127.975 78.1025 127.778 77.9859 127.631 77.8999C127.484 77.8139 127.364 77.7648 127.275 77.7525C127.195 77.7402 127.13 77.7556 127.081 77.7985C127.032 77.8415 126.989 77.9122 126.946 78.0043L126.645 78.6982L126.323 78.6675C126.446 77.9336 126.541 77.3318 126.611 76.8651C126.679 76.3983 126.75 75.8763 126.82 75.296L127.133 75.3021L127.238 76.122C127.265 76.3277 127.333 76.4843 127.437 76.5979C127.542 76.7085 127.714 76.8405 127.947 76.991L136.063 82.2541L136.051 83.0709L136.057 83.0739ZM130.625 79.7331L130.152 82.9419L134.307 82.0053L130.625 79.7361V79.7331Z" fill="white"/>
<path d="M129.274 103.1C128.896 103.662 128.537 104.218 128.19 104.768C128.067 104.98 127.868 105.323 127.591 105.799C127.315 106.275 127.125 106.595 127.023 106.757C126.409 107.734 125.78 108.366 125.135 108.655C124.49 108.947 123.854 108.895 123.231 108.502C122.23 107.872 121.92 106.856 122.297 105.449C121.757 106.073 121.192 106.453 120.596 106.595C120.003 106.736 119.423 106.628 118.864 106.275C118.05 105.763 117.624 105.044 117.584 104.117C117.544 103.189 117.885 102.155 118.606 101.009C118.751 100.782 118.91 100.539 119.088 100.281C119.266 100.023 119.46 99.7318 119.669 99.4001C120.007 98.8597 120.347 98.307 120.691 97.7358L120.971 97.874L120.682 98.8351C120.642 98.9641 120.667 99.0624 120.759 99.133C120.919 99.2405 121.1 99.3571 121.299 99.4861C121.499 99.6151 121.72 99.7563 121.966 99.9099L126.916 103.024C127.125 103.156 127.312 103.272 127.481 103.374C127.65 103.478 127.8 103.567 127.938 103.647C128.046 103.708 128.15 103.699 128.245 103.616L129.004 102.941L129.274 103.091V103.1ZM123.519 102.713L119.813 100.383C119.684 100.487 119.558 100.622 119.438 100.788C119.316 100.954 119.208 101.11 119.116 101.258C118.655 101.992 118.468 102.655 118.563 103.248C118.655 103.84 119.021 104.335 119.656 104.734C120.292 105.133 120.885 105.237 121.434 105.044C121.984 104.851 122.531 104.322 123.074 103.46C123.234 103.208 123.381 102.959 123.519 102.713ZM124.008 103.02C123.833 103.291 123.655 103.57 123.476 103.853C123.065 104.507 122.899 105.093 122.982 105.609C123.062 106.125 123.381 106.558 123.934 106.908C124.514 107.273 125.043 107.365 125.512 107.184C125.982 107.003 126.421 106.589 126.827 105.944C126.9 105.83 126.974 105.701 127.054 105.56C127.134 105.419 127.217 105.265 127.3 105.096L124.011 103.027L124.008 103.02Z" fill="white"/>
<path d="M106.277 117.643C106.09 117.425 105.918 117.228 105.761 117.05C105.604 116.872 105.463 116.713 105.334 116.571C105.251 116.482 105.128 116.482 104.966 116.565L104.127 116.955L103.912 116.731C104.434 116.301 104.932 115.88 105.408 115.472C105.887 115.061 106.375 114.631 106.87 114.185L107.103 114.394L106.544 115.226C106.461 115.34 106.455 115.444 106.523 115.54C106.645 115.687 106.78 115.853 106.934 116.037C107.088 116.218 107.259 116.421 107.447 116.639L111.264 121.07C111.423 121.254 111.568 121.423 111.7 121.57C111.832 121.718 111.949 121.85 112.056 121.966C112.142 122.059 112.243 122.077 112.366 122.025L113.284 121.607L113.505 121.828C112.977 122.258 112.477 122.676 112.004 123.081C111.525 123.493 111.037 123.926 110.542 124.38L110.315 124.165L110.88 123.327C110.957 123.222 110.96 123.121 110.889 123.023C110.785 122.891 110.665 122.75 110.539 122.596C110.41 122.442 110.269 122.277 110.115 122.099L106.28 117.646L106.277 117.643ZM116.533 116.565L114.986 114.769C114.694 115.07 114.396 115.352 114.092 115.616C113.066 116.501 112.142 116.983 111.325 117.063C110.505 117.142 109.814 116.854 109.246 116.194C108.881 115.77 108.657 115.337 108.571 114.892C108.485 114.446 108.503 114.007 108.632 113.574C108.761 113.141 108.979 112.715 109.289 112.297C109.599 111.879 109.968 111.489 110.392 111.124C110.585 110.958 110.8 110.783 111.04 110.596C111.279 110.409 111.54 110.194 111.826 109.948C112.311 109.53 112.799 109.1 113.294 108.655L113.521 108.87L112.962 109.705C112.885 109.816 112.879 109.92 112.947 110.012C113.069 110.163 113.204 110.329 113.358 110.51C113.512 110.691 113.68 110.891 113.871 111.112L117.688 115.543C117.847 115.73 117.992 115.896 118.124 116.043C118.256 116.191 118.373 116.323 118.48 116.439C118.566 116.531 118.667 116.55 118.784 116.501L119.708 116.077L119.923 116.301C119.398 116.728 118.898 117.146 118.425 117.554C117.949 117.965 117.442 118.414 116.905 118.902L116.671 118.693L117.289 117.781C117.359 117.661 117.362 117.563 117.298 117.48C117.193 117.348 117.074 117.207 116.948 117.053C116.819 116.9 116.684 116.74 116.539 116.571L116.533 116.565ZM114.605 114.324L111.672 110.918C111.42 111.029 111.129 111.225 110.8 111.508C110.168 112.051 109.824 112.613 109.768 113.191C109.713 113.768 109.937 114.351 110.441 114.938C110.951 115.527 111.494 115.819 112.071 115.813C112.652 115.807 113.297 115.497 114.006 114.882C114.092 114.809 114.187 114.723 114.288 114.625C114.39 114.529 114.494 114.425 114.602 114.321L114.605 114.324Z" fill="white"/>
<path d="M94.6421 129.566L94.9154 129.401L96.1959 130.914C96.853 130.795 97.4242 130.629 97.9094 130.417C99.0886 129.907 99.8532 129.13 100.203 128.083C100.55 127.036 100.464 125.912 99.9453 124.706C99.3895 123.416 98.5604 122.556 97.458 122.12C96.3556 121.684 95.1242 121.761 93.7608 122.35C92.9962 122.682 92.2469 123.164 91.5161 123.8L91.3073 123.536C91.9982 122.525 92.9409 121.761 94.1416 121.245C95.6984 120.573 97.1417 120.465 98.4806 120.919C99.8163 121.374 100.793 122.311 101.407 123.732C102.061 125.246 102.049 126.674 101.373 128.013C100.698 129.352 99.5123 130.386 97.8173 131.12C97.0035 131.47 96.1314 131.74 95.201 131.928L95.1273 131.897L94.6513 129.566H94.6421Z" fill="white"/>
<path d="M76.171 130.783C75.9684 129.131 76.3154 127.74 77.212 126.61C78.1087 125.48 79.4783 124.801 81.3146 124.574C83.0588 124.359 84.4652 124.657 85.5338 125.467C86.6024 126.278 87.235 127.475 87.4315 129.06C87.6342 130.712 87.2841 132.081 86.3752 133.168C85.4662 134.255 84.1028 134.913 82.2819 135.14C80.5346 135.355 79.1251 135.072 78.0596 134.292C76.994 133.512 76.3645 132.342 76.171 130.786V130.783ZM85.7488 129.505C85.5553 127.948 85.0671 126.8 84.2748 126.057C83.4856 125.314 82.4262 125.025 81.0996 125.188C79.7915 125.351 78.8764 125.845 78.3451 126.674C77.817 127.503 77.6511 128.722 77.8507 130.328C78.0381 131.836 78.511 132.953 79.2725 133.684C80.0341 134.415 81.1058 134.695 82.4845 134.523C83.8234 134.357 84.7477 133.862 85.2636 133.036C85.7764 132.21 85.9391 131.034 85.7518 129.505H85.7488Z" fill="white"/>
<path d="M66.8758 129.398L67.3118 126.957C67.364 126.671 67.407 126.416 67.4469 126.189C67.4838 125.962 67.5176 125.756 67.5452 125.569C67.5667 125.421 67.5145 125.317 67.3947 125.256L66.5779 124.869L66.6086 124.558C67.2197 124.684 67.8339 124.801 68.448 124.909C69.0744 125.019 69.7132 125.127 70.3734 125.231L70.3488 125.541L69.3477 125.633C69.2126 125.642 69.1297 125.704 69.099 125.814C69.0591 126.002 69.0192 126.214 68.9731 126.447C68.927 126.68 68.881 126.938 68.8288 127.224L67.797 132.981C67.754 133.224 67.7172 133.442 67.6834 133.635C67.6527 133.829 67.625 134.007 67.6005 134.163C67.5851 134.286 67.6312 134.378 67.7417 134.437L68.6538 134.885L68.6138 135.192C68.276 135.122 67.9475 135.057 67.6343 134.996C67.321 134.934 67.0078 134.876 66.6977 134.821C66.3875 134.765 66.0805 134.713 65.7795 134.664C65.4755 134.615 65.1684 134.566 64.8583 134.52L64.8736 134.206L65.801 134.117C65.9361 134.111 66.016 134.05 66.0405 133.933C66.0774 133.764 66.1142 133.58 66.1511 133.38C66.1879 133.181 66.2278 132.966 66.2708 132.736L66.7591 130.018L65.9453 129.874C65.7089 129.831 65.4939 129.8 65.3035 129.782C65.1132 129.763 64.9351 129.766 64.7662 129.791C64.6003 129.818 64.4437 129.871 64.2994 129.951C64.1551 130.03 64.0108 130.147 63.8695 130.301C63.7282 130.457 63.5839 130.651 63.4396 130.89C63.2953 131.13 63.1387 131.421 62.9698 131.765C62.7978 132.125 62.6504 132.432 62.5214 132.68C62.3955 132.932 62.2758 133.135 62.1683 133.294C62.0608 133.454 61.9564 133.574 61.8551 133.657C61.7537 133.74 61.6463 133.792 61.5296 133.82C61.4129 133.844 61.2778 133.85 61.1273 133.832C60.9768 133.813 60.7957 133.786 60.5838 133.749C60.1447 133.669 59.6748 133.568 59.1774 133.439L59.2265 132.994C59.5858 133.049 59.8929 133.055 60.1539 133.009C60.4149 132.966 60.6483 132.877 60.8571 132.745C61.0659 132.613 61.2593 132.441 61.4375 132.226C61.6186 132.011 61.8059 131.765 62.0055 131.489C62.1529 131.286 62.3034 131.087 62.4569 130.89C62.6105 130.694 62.7671 130.506 62.9329 130.334C63.0987 130.162 63.2707 130.006 63.4519 129.868C63.633 129.729 63.8296 129.619 64.0353 129.533C63.7528 128.965 63.501 128.415 63.2768 127.881C63.0527 127.347 62.8439 126.855 62.6535 126.407C62.4723 125.989 62.3065 125.621 62.1529 125.298C61.9994 124.979 61.8489 124.721 61.7046 124.531C61.6248 124.433 61.548 124.35 61.4712 124.276C61.3945 124.202 61.3115 124.138 61.2256 124.083C61.1396 124.027 61.0475 123.975 60.9492 123.926C60.8509 123.88 60.7373 123.831 60.6083 123.775L60.6421 123.459C61.0229 123.484 61.3361 123.518 61.5818 123.561C61.7937 123.597 61.9779 123.637 62.1376 123.674C62.2973 123.711 62.4354 123.757 62.5583 123.809C62.6811 123.861 62.7855 123.917 62.8807 123.981C62.9728 124.046 63.0588 124.119 63.1387 124.208C63.3444 124.405 63.5317 124.678 63.7037 125.028C63.8756 125.375 64.0476 125.781 64.2226 126.241C64.367 126.604 64.5082 126.981 64.6556 127.374C64.7999 127.767 64.9658 128.157 65.1531 128.547C65.2084 128.661 65.2544 128.753 65.2943 128.833C65.3343 128.91 65.3803 128.974 65.4325 129.026C65.4847 129.078 65.5461 129.118 65.6198 129.146C65.6905 129.177 65.7857 129.201 65.9054 129.223L66.8819 129.398H66.8758Z" fill="white"/>
<path d="M44.5266 122.074C45.2636 120.582 46.3168 119.612 47.6895 119.16C49.0621 118.709 50.576 118.893 52.2373 119.713C53.8126 120.49 54.8229 121.512 55.2712 122.774C55.7195 124.039 55.5906 125.387 54.8843 126.818C54.1473 128.311 53.1002 129.26 51.7429 129.671C50.3856 130.082 48.884 129.88 47.2381 129.069C45.6597 128.289 44.6371 127.279 44.1765 126.041C43.7159 124.804 43.8326 123.481 44.5266 122.077V122.074ZM53.2322 126.266C53.9262 124.859 54.1473 123.631 53.8955 122.575C53.6437 121.521 52.919 120.695 51.7183 120.106C50.5391 119.522 49.4982 119.433 48.6015 119.833C47.7048 120.235 46.8972 121.162 46.1787 122.615C45.5062 123.978 45.2881 125.172 45.5246 126.201C45.761 127.23 46.5011 128.05 47.7478 128.667C48.9577 129.263 50.0018 129.358 50.8861 128.949C51.7705 128.541 52.5505 127.647 53.2322 126.269V126.266Z" fill="white"/>
<path d="M39.239 113.995C39.6228 113.578 39.933 113.228 40.1725 112.951C40.2462 112.862 40.2462 112.761 40.1725 112.647L39.5737 111.692L39.7702 111.453C40.323 111.978 40.8296 112.448 41.2903 112.871C41.7509 113.292 42.2361 113.725 42.7458 114.17L42.5616 114.419L41.668 113.965C41.5421 113.9 41.4377 113.909 41.3609 113.986C41.0907 114.265 40.7652 114.616 40.3813 115.036L36.4354 119.354C36.2696 119.535 36.1222 119.697 35.9901 119.845C35.8581 119.992 35.7414 120.127 35.64 120.247C35.5602 120.342 35.551 120.447 35.6155 120.554L36.1467 121.42L35.9502 121.66C35.465 121.19 34.989 120.745 34.5284 120.321L33.1619 119.074C32.21 118.205 31.2857 117.373 30.389 116.581V116.507L32.5785 114.92L32.8457 115.095L31.8814 117.035L34.378 119.317L39.2421 113.992L39.239 113.995Z" fill="white"/>
<path d="M23.8486 99.4066C25.252 98.513 26.6553 98.2275 28.0648 98.5529C29.4712 98.8784 30.6719 99.8211 31.6668 101.381C32.6095 102.861 32.9473 104.261 32.674 105.572C32.4038 106.887 31.5931 107.974 30.2481 108.83C28.8448 109.724 27.4568 109.994 26.0841 109.641C24.7115 109.288 23.5293 108.339 22.5435 106.791C21.5977 105.305 21.2477 103.914 21.4933 102.615C21.7421 101.317 22.5251 100.248 23.8455 99.4035L23.8486 99.4066ZM29.1211 107.504C30.4415 106.663 31.2707 105.723 31.5992 104.691C31.9309 103.659 31.7374 102.579 31.0189 101.452C30.3126 100.34 29.4681 99.7259 28.4947 99.6031C27.5182 99.4803 26.3482 99.8549 24.9817 100.727C23.7012 101.544 22.8936 102.453 22.562 103.454C22.2303 104.455 22.4391 105.542 23.1853 106.715C23.91 107.851 24.7545 108.474 25.7218 108.582C26.6891 108.689 27.8222 108.33 29.118 107.504H29.1211Z" fill="white"/>
<path d="M15.5849 76.6283L15.6648 76.9354L13.85 77.7338C13.7793 78.397 13.7763 78.9927 13.8407 79.5178C13.9943 80.7952 14.5225 81.7471 15.4283 82.3766C16.3311 83.0061 17.4366 83.2425 18.7386 83.0859C20.1327 82.917 21.1952 82.3674 21.923 81.4339C22.6538 80.5004 22.9302 79.2967 22.7521 77.8228C22.6508 76.9938 22.402 76.1401 21.9998 75.2588L22.313 75.1329C23.0868 76.0818 23.5505 77.2026 23.7071 78.4984C23.9098 80.1811 23.6058 81.5967 22.789 82.7512C21.9752 83.9027 20.7991 84.5721 19.2606 84.7594C17.6239 84.956 16.2574 84.5414 15.1673 83.5127C14.0741 82.4841 13.417 81.0532 13.1959 79.22C13.0884 78.3387 13.0792 77.4267 13.1621 76.481L13.2143 76.4195L15.5849 76.6253V76.6283Z" fill="white"/>
<path d="M13.5089 66.735L13.7822 64.8434C13.9511 63.6797 14.12 62.4514 14.2858 61.1556L14.3503 61.1157L16.4906 61.8864L16.4968 62.2057L14.7771 62.4514L14.2551 66.0502L18.1796 66.6183L18.2809 65.909C18.3577 65.3685 18.4406 64.7667 18.5265 64.1003C18.5419 63.9652 18.4928 63.867 18.3792 63.8086L17.4548 63.3972L17.5009 62.9734C18.1642 63.084 18.6555 63.1638 18.9749 63.2098C19.285 63.2559 19.7702 63.3173 20.4335 63.3972L20.3997 63.8209L19.3802 63.9591C19.2512 63.9836 19.1745 64.0543 19.153 64.171C19.0455 64.8434 18.9534 65.4545 18.8735 65.998L18.7722 66.6981L21.3701 67.0727C21.8982 67.1495 22.4203 67.2201 22.9362 67.2846L23.4766 63.5476L21.8 62.3347L21.7938 61.9754L24.2535 62.5067L24.2965 62.5681C24.0877 63.91 23.9004 65.1505 23.7376 66.2866L23.4705 68.1413C23.3784 68.7708 23.2924 69.4156 23.2125 70.0758L22.9024 70.0635L22.7765 69.0656C22.7611 68.9305 22.6997 68.8506 22.5861 68.823C22.3957 68.7892 22.1838 68.7554 21.9474 68.7186C21.7109 68.6817 21.453 68.6418 21.1674 68.6019L15.379 67.7636C15.1364 67.7298 14.9184 67.6991 14.7219 67.6715C14.5253 67.6469 14.3503 67.6254 14.1906 67.607C14.0647 67.5947 13.9757 67.6439 13.9204 67.7575L13.5028 68.6817L13.1926 68.6541C13.3093 67.9878 13.4107 67.3429 13.4997 66.7257L13.5089 66.735Z" fill="white"/>
<path d="M24.7046 53.9824C24.9718 54.093 25.2113 54.1912 25.4262 54.2772C25.6412 54.3632 25.8316 54.44 26.0035 54.5044C26.1079 54.5413 26.2031 54.5075 26.2891 54.4L26.9862 53.5126L27.2779 53.617C26.9739 54.3141 26.7006 54.9497 26.4611 55.527C26.2185 56.1135 25.9759 56.7184 25.7333 57.3387L25.4354 57.2496L25.5614 56.2547C25.5767 56.1135 25.5368 56.0213 25.4354 55.9722C25.2604 55.8924 25.0639 55.8064 24.8428 55.7143C24.6248 55.6191 24.3822 55.5178 24.115 55.4072L18.7135 53.1656C18.4863 53.0704 18.2836 52.9875 18.0994 52.9138C17.9151 52.8401 17.7493 52.7757 17.6019 52.7204C17.4852 52.6774 17.3839 52.705 17.3041 52.8002L16.6715 53.5925L16.3798 53.4881C16.6561 52.8709 16.9202 52.2629 17.1659 51.6702C17.3317 51.271 17.4852 50.878 17.6204 50.4972C17.7585 50.1165 17.8906 49.7726 18.0195 49.4655C18.4955 48.3171 19.0636 47.5341 19.7177 47.1165C20.3718 46.6988 21.1057 46.6589 21.9194 46.9967C22.8744 47.3928 23.4732 48.0407 23.7189 48.9404C23.9646 49.8401 23.8325 50.9056 23.3228 52.1339C23.1815 52.4717 23.0126 52.8248 22.813 53.1963L24.7108 53.9855L24.7046 53.9824ZM22.248 52.963C22.4415 52.6467 22.6073 52.3243 22.7455 51.9926C23.0679 51.2188 23.1293 50.5525 22.9297 49.9937C22.7301 49.4379 22.2541 49.0018 21.4987 48.6886C20.774 48.3877 20.1568 48.357 19.6409 48.5934C19.125 48.8299 18.6951 49.3642 18.3512 50.1932C18.2161 50.5187 18.0994 50.8534 17.9981 51.1973L22.248 52.963Z" fill="white"/>
<path d="M23.0253 39.8179C23.446 39.2867 23.8513 38.7616 24.2383 38.2427C24.3764 38.04 24.6037 37.7145 24.9169 37.2631C25.2301 36.8117 25.4451 36.5077 25.5587 36.3542C26.2496 35.4299 26.9283 34.8527 27.5946 34.6131C28.261 34.3767 28.8905 34.478 29.4801 34.9171C30.4259 35.6265 30.6562 36.6643 30.1648 38.0339C30.7514 37.4566 31.3471 37.1219 31.952 37.0328C32.557 36.9407 33.122 37.0942 33.6532 37.4903C34.424 38.0676 34.7894 38.8169 34.7556 39.7442C34.7188 40.6715 34.2981 41.6756 33.4874 42.7596C33.3277 42.9745 33.1466 43.2018 32.947 43.4443C32.7474 43.6869 32.5324 43.9633 32.299 44.2765C31.9182 44.7862 31.5344 45.3113 31.1444 45.8548L30.8773 45.6951L31.2427 44.7617C31.2949 44.6358 31.2765 44.5344 31.1905 44.4577C31.04 44.3379 30.8711 44.2059 30.6807 44.0615C30.4903 43.9172 30.2815 43.7575 30.0512 43.5856L25.3683 40.082C25.1718 39.9346 24.9937 39.8025 24.834 39.6889C24.6743 39.5722 24.53 39.4678 24.3979 39.3788C24.2935 39.3082 24.1922 39.3112 24.0878 39.3819L23.2771 39.996L23.0192 39.824L23.0253 39.8179ZM28.2702 40.3215C28.4667 40.0666 28.6663 39.8025 28.8659 39.5354C29.3296 38.9182 29.5415 38.3471 29.5016 37.825C29.4616 37.303 29.1822 36.8455 28.6571 36.4555C28.1074 36.0441 27.5885 35.909 27.1064 36.0533C26.6242 36.1976 26.1544 36.5753 25.6969 37.1833C25.617 37.2908 25.528 37.4136 25.4389 37.5487C25.3468 37.6838 25.2547 37.8312 25.1564 37.9939L28.2702 40.3215ZM28.7308 40.6685L32.2376 43.2908C32.3727 43.1987 32.5109 43.0728 32.646 42.9162C32.7811 42.7596 32.9009 42.6122 33.0053 42.474C33.5243 41.7801 33.7607 41.1321 33.7177 40.5364C33.6717 39.9377 33.3492 39.4156 32.7504 38.9643C32.1486 38.5159 31.5682 38.3655 31.0032 38.5129C30.4381 38.6603 29.8516 39.1424 29.2405 39.9592C29.0624 40.1987 28.8935 40.4351 28.7369 40.6685H28.7308Z" fill="white"/>
<path d="M40.4949 32.4541L41.152 33.3323C41.2257 33.4336 41.3332 33.4551 41.4745 33.3968L42.3251 33.0774L42.5308 33.3108C42.021 33.6731 41.5174 34.0416 41.0169 34.4132C40.5164 34.7878 40.0005 35.1808 39.4662 35.5984L39.2543 35.3681L39.8715 34.5759C39.9575 34.4623 39.9698 34.361 39.9084 34.2688C39.6842 33.9495 39.4017 33.5626 39.0639 33.1081L35.5663 28.4193C35.2776 28.0323 35.0351 27.7161 34.8385 27.4673C34.7587 27.3722 34.6604 27.3415 34.5407 27.3844L33.5918 27.7437L33.3953 27.5042C33.948 27.1142 34.4762 26.7335 34.9767 26.3619C35.4803 25.9842 35.9747 25.6065 36.4537 25.2227L36.6718 25.4469L36.1037 26.1869C36.0146 26.2882 36.0054 26.3895 36.073 26.4878C36.2726 26.7703 36.509 27.1019 36.7885 27.4735L39.8807 31.6189L41.1704 23.5676L40.7467 23.0026C40.6791 22.9136 40.5778 22.8982 40.4365 22.9566L39.5859 23.2759L39.3802 23.0425C39.9053 22.6741 40.4212 22.3025 40.9279 21.9248C41.4315 21.5502 41.9381 21.1602 42.454 20.7518L42.6659 20.9821L42.0395 21.802C41.9658 21.9064 41.9627 22.0077 42.0333 22.1121C42.2114 22.3762 42.4417 22.7017 42.7304 23.0855L46.228 27.7744C46.5658 28.2289 46.8606 28.6066 47.1062 28.9106C47.1769 28.9965 47.2782 29.015 47.4102 28.9628L48.3315 28.6066L48.5311 28.8461C47.963 29.2514 47.4287 29.6414 46.9251 30.016C46.4215 30.3906 45.9363 30.7622 45.4664 31.1337L45.2484 30.9096L45.8165 30.1695C45.9025 30.0651 45.9086 29.9576 45.8349 29.8502L44.9935 28.6956L41.7938 24.4059L40.5041 32.4572L40.4949 32.4541Z" fill="white"/>
<path d="M58.5143 16.5269L58.2318 16.6743L57.0465 15.0868C56.3832 15.1697 55.8028 15.2987 55.3053 15.4798C54.0955 15.9189 53.2878 16.6498 52.8794 17.6723C52.468 18.6948 52.4894 19.8248 52.9347 21.0592C53.4137 22.3796 54.1906 23.2885 55.2654 23.789C56.3402 24.2895 57.5746 24.2865 58.9718 23.7798C59.7549 23.4942 60.5318 23.0582 61.2995 22.4686L61.4899 22.745C60.7406 23.7123 59.7518 24.4185 58.5266 24.8637C56.9328 25.441 55.4834 25.4625 54.1753 24.9313C52.8671 24.397 51.9521 23.4021 51.4239 21.9466C50.8619 20.3959 50.9571 18.9742 51.7125 17.6754C52.468 16.3795 53.7116 15.4154 55.4497 14.7859C56.2818 14.4849 57.1693 14.2669 58.109 14.1349L58.1796 14.1717L58.5143 16.5269Z" fill="white"/>
<path d="M70.9631 11.8071L75.081 20.3527C75.2346 20.6751 75.3697 20.8901 75.4864 21.0006C75.603 21.1111 75.7627 21.1879 75.9654 21.2309L76.7177 21.3783L76.7546 21.6854C76.0667 21.7191 75.4311 21.7591 74.8446 21.802C74.2488 21.845 73.5456 21.9034 72.7349 21.974L72.6797 21.6669L73.4105 21.4121C73.5119 21.3722 73.5856 21.3292 73.6255 21.2862C73.6654 21.2432 73.6838 21.1787 73.6777 21.0897C73.6715 20.9945 73.6347 20.8686 73.5671 20.7181C73.4996 20.5676 73.4074 20.365 73.2908 20.1132L72.4125 18.2401L68.6293 18.5134L67.9446 20.4939C67.8555 20.7703 67.7818 20.9914 67.7327 21.1541C67.6805 21.3169 67.659 21.4428 67.6651 21.5349C67.6713 21.6178 67.6989 21.6761 67.7542 21.713C67.8064 21.7498 67.8831 21.7805 67.9845 21.802L68.7276 21.9433L68.7675 22.2657C68.0244 22.3056 67.4164 22.3425 66.9435 22.3763C66.4737 22.41 65.9486 22.4561 65.3682 22.5114L65.3068 22.2043L66.0837 21.9249C66.2771 21.8542 66.4184 21.7529 66.5044 21.627C66.5903 21.5011 66.6825 21.3046 66.7777 21.0436L70.1555 11.979L70.957 11.8132L70.9631 11.8071ZM68.8811 17.8348L72.1147 17.6014L70.2998 13.7477L68.8811 17.8348Z" fill="white"/>
<path d="M74.0461 148C65.5155 148 56.9603 146.505 48.703 143.501C30.1372 136.743 15.3146 123.161 6.96824 105.257C-1.38117 87.3515 -2.25634 67.2664 4.49934 48.7043C11.255 30.1391 24.837 15.3171 42.7427 6.96798C60.6483 -1.38112 80.7342 -2.25626 99.297 4.49918C117.863 11.2577 132.685 24.8392 141.032 42.7442C149.381 60.6491 150.256 80.7343 143.501 99.2964C136.742 117.862 123.16 132.681 105.254 141.03C95.3111 145.666 84.6955 147.997 74.0399 147.997L74.0461 148ZM74.0737 1.97817C44.6435 1.97817 16.9605 20.1534 6.32338 49.3676C-7.25862 86.6821 12.0504 128.093 49.3663 141.674C57.467 144.622 65.7673 146.023 73.9294 146.023C103.36 146.023 131.046 127.847 141.68 98.6331C155.262 61.3185 135.953 19.9077 98.6368 6.32622C90.5361 3.37839 82.2358 1.97817 74.0737 1.97817Z" fill="white"/>
<path d="M90.1768 102.668C90.0601 102.668 89.9434 102.643 89.8329 102.591C89.7162 102.536 77.9459 97.1746 68.1932 95.4673C58.465 93.7631 45.795 95.498 45.6691 95.5164C45.4511 95.5471 45.23 95.4888 45.055 95.3567C44.8799 95.2247 44.7632 95.0251 44.7356 94.8071L39.8162 57.5079C39.764 57.1179 39.9974 56.7433 40.369 56.6174C40.7405 56.4915 41.152 56.645 41.3516 56.9859C41.4407 57.1394 50.4534 72.4896 59.6841 74.1078C67.0232 75.3913 74.1105 51.8272 76.2202 42.6367C76.3154 42.2191 76.7146 41.9427 77.1383 42.0041C77.5621 42.0625 77.8722 42.434 77.8507 42.8639C77.1875 56.5007 78.0688 78.4743 83.2461 79.3801C90.576 80.6667 106.136 65.946 106.292 65.7986C106.584 65.5192 107.035 65.4946 107.358 65.7372C107.68 65.9798 107.781 66.4189 107.597 66.7782L93.4195 94.2267C93.312 94.4355 93.1217 94.586 92.8975 94.6474C92.6703 94.7058 92.4307 94.6689 92.2342 94.543C92.1728 94.5031 85.933 90.5389 72.2159 87.7569C58.7107 85.0178 53.2416 87.9411 53.1894 87.9718C52.7933 88.1929 52.2897 88.0516 52.0655 87.6555C51.8414 87.2594 51.9795 86.7589 52.3726 86.5317C52.609 86.3966 58.3299 83.2522 72.5445 86.1356C83.9861 88.457 90.2658 91.5338 92.3509 92.6914L104.072 69.9993C99.2048 74.1508 90.1461 81.1058 84.1274 81.1089C83.722 81.1089 83.3351 81.0782 82.9605 81.0137C79.2357 80.3627 77.0554 73.8315 76.3031 61.0483C76.0666 57.0227 76.0175 53.0063 76.0359 49.7698C75.1822 52.7146 74.0491 56.2919 72.7011 59.8139C68.3498 71.1692 63.8757 76.5275 59.3985 75.7445C52.0747 74.4609 45.2269 65.7802 41.9412 60.9808L46.2679 93.7846C49.2865 93.4191 59.8346 92.3352 68.4818 93.8521C78.4465 95.5962 90.404 101.047 90.5238 101.102C90.9383 101.292 91.1195 101.784 90.9322 102.198C90.794 102.502 90.4931 102.68 90.1799 102.68L90.1768 102.668Z" fill="white"/>
</svg>
