<svg width="137" height="137" viewBox="0 0 137 137" fill="none" xmlns="http://www.w3.org/2000/svg">
<path d="M73.5566 28.301C73.556 28.2135 73.5123 28.1566 73.4267 28.1318L72.8588 27.9473L72.8493 27.7442C73.2573 27.7691 73.6674 27.7898 74.0769 27.8028C74.4864 27.8159 74.9132 27.8237 75.353 27.8241L75.3685 28.028L74.7336 28.1827C74.6413 28.2083 74.5899 28.2558 74.5848 28.3289C74.5696 28.583 74.5558 28.8945 74.5436 29.2635L74.4242 32.9641C74.4115 33.3361 74.405 33.65 74.4033 33.9044C74.4028 33.9766 74.4503 34.0281 74.5431 34.0553L75.1563 34.2502L75.1599 34.4526C74.7067 34.4278 74.2722 34.4099 73.8597 34.3965L66.409 34.1557C66.01 34.1425 65.5938 34.1346 65.1636 34.1294L65.1482 33.9256L65.8037 33.763C65.8846 33.7435 65.9258 33.6931 65.9321 33.6111C65.9458 33.4035 65.9575 33.1414 65.967 32.8279L66.0921 28.9924C66.1043 28.6234 66.1105 28.3124 66.1109 28.0564C66.1101 27.9824 66.0656 27.9314 65.9761 27.9016L65.3583 27.7076L65.3534 27.5036C65.8092 27.5317 66.245 27.5512 66.6545 27.5643C67.064 27.5773 67.4668 27.585 67.8584 27.5851L67.8738 27.789L67.2866 27.9364C67.1998 27.9552 67.1535 28.0094 67.1465 28.0973C67.1287 28.3481 67.1119 28.6592 67.1014 29.0269L66.9493 33.7461L69.6614 33.8337L69.8134 29.1145C69.8257 28.7455 69.8318 28.4345 69.8323 28.1785C69.8309 28.097 69.7855 28.0413 69.6973 28.0132L69.1308 27.8304L69.1259 27.6264C69.5457 27.6528 69.9604 27.6726 70.37 27.6856C70.7795 27.6987 71.1809 27.7046 71.5738 27.7065L71.5922 27.9107L70.9991 28.0574C70.9122 28.0761 70.866 28.1303 70.859 28.2183C70.8441 28.4694 70.8303 28.7809 70.8198 29.1486L70.6677 33.8678L73.3738 33.9546L73.5259 29.2355C73.5382 28.8665 73.5456 28.5571 73.5457 28.3041L73.5566 28.301Z" fill="#5948A0"/>
<path d="M81.0959 33.193L80.5113 34.7101C80.4444 34.8866 80.3829 35.0457 80.3296 35.1879C80.2763 35.33 80.2309 35.4581 80.19 35.5748C80.1568 35.6668 80.1788 35.7405 80.2499 35.795L80.728 36.147L80.6694 36.3412C80.2907 36.1845 79.9113 36.0338 79.5298 35.8874C79.1411 35.7385 78.7419 35.5897 78.332 35.441L78.3864 35.2448L79.0407 35.3095C79.1283 35.3195 79.1892 35.2913 79.2239 35.2221C79.2724 35.1049 79.3255 34.9763 79.3838 34.8303C79.4404 34.6856 79.5037 34.5252 79.5722 34.3474L80.9499 30.7696C81.0073 30.619 81.0581 30.484 81.1041 30.3635C81.1487 30.2413 81.1885 30.1336 81.2224 30.0356C81.2477 29.9576 81.2292 29.8919 81.1636 29.8411L80.6334 29.4386L80.6979 29.2452C80.9064 29.3328 81.1093 29.4167 81.3041 29.4935C81.4985 29.5732 81.692 29.6483 81.8842 29.7217C82.0764 29.7951 82.2674 29.8669 82.457 29.937C82.6454 30.0053 82.838 30.0758 83.0327 30.142L82.9839 30.342L82.3753 30.2847C82.2881 30.2718 82.2284 30.3016 82.198 30.373C82.1527 30.477 82.1075 30.5916 82.0582 30.7147C82.009 30.8377 81.9568 30.971 81.9019 31.1144L81.2508 32.8051L81.757 32.9995C81.9047 33.0566 82.0387 33.1028 82.1591 33.1381C82.2795 33.1735 82.3942 33.1946 82.5067 33.1988C82.6191 33.203 82.725 33.1883 82.8273 33.155C82.9295 33.1217 83.0379 33.0651 83.1481 32.9832C83.2582 32.9012 83.3749 32.793 83.4967 32.6568C83.6185 32.5206 83.7564 32.3534 83.9079 32.1519C84.0635 31.9418 84.1954 31.7633 84.3094 31.6171C84.4219 31.4721 84.5232 31.3544 84.6147 31.2654C84.7032 31.1761 84.787 31.1118 84.86 31.0717C84.9347 31.0302 85.0097 31.0099 85.0883 31.0082C85.1668 31.0065 85.2523 31.0207 85.3494 31.05C85.4448 31.0806 85.5585 31.1211 85.6905 31.1716C85.9629 31.2766 86.2525 31.4004 86.5588 31.5461L86.4737 31.8272C86.2506 31.7482 86.0511 31.7069 85.8787 31.7009C85.7045 31.6961 85.5443 31.7233 85.3933 31.7833C85.244 31.8421 85.0984 31.9299 84.9553 32.0452C84.8121 32.1605 84.6603 32.2958 84.4985 32.4493C84.3769 32.5614 84.2569 32.6722 84.1343 32.7796C84.0118 32.8871 83.887 32.9882 83.7592 33.0784C83.6327 33.1703 83.5005 33.2478 83.3682 33.3148C83.2329 33.3814 83.094 33.4295 82.9503 33.4573C83.0605 33.8574 83.1558 34.245 83.2339 34.6138C83.3117 34.9855 83.3845 35.3265 83.4519 35.6396C83.516 35.9312 83.5786 36.1895 83.6365 36.414C83.6957 36.6402 83.759 36.8233 83.8308 36.9653C83.8696 37.0366 83.9093 37.1021 83.9501 37.1587C83.9925 37.2139 84.0337 37.2675 84.0832 37.3147C84.1328 37.3619 84.184 37.4078 84.2419 37.4485C84.2982 37.4905 84.3659 37.5371 84.4438 37.5865L84.3844 37.7866C84.1441 37.7234 83.9457 37.6627 83.7908 37.6032C83.6588 37.5528 83.5446 37.5047 83.4478 37.4618C83.3497 37.4173 83.2668 37.3718 83.1948 37.3232C83.1229 37.2746 83.0615 37.2259 83.0098 37.1724C82.9593 37.1206 82.9113 37.0616 82.8721 36.9931C82.7656 36.8406 82.6771 36.6422 82.6101 36.3954C82.5413 36.1499 82.4819 35.8679 82.4272 35.5504C82.3803 35.2987 82.3347 35.0381 82.2889 34.767C82.2431 34.4959 82.1855 34.2232 82.1143 33.9502C82.0932 33.8706 82.0747 33.8049 82.0592 33.7502C82.0438 33.6954 82.0213 33.6488 81.9951 33.6077C81.9672 33.5679 81.9338 33.5349 81.8908 33.5067C81.8478 33.4784 81.7897 33.4512 81.7166 33.422L81.1102 33.1873L81.0959 33.193Z" fill="#5948A0"/>
<path d="M94.5686 40.6951C93.9081 41.562 93.1081 42.0566 92.1707 42.1747C91.2316 42.294 90.2792 41.9868 89.3151 41.2517C88.3988 40.5546 87.8765 39.7705 87.7448 38.9022C87.6149 38.0325 87.8666 37.1812 88.5001 36.3485C89.1607 35.4816 89.9528 35.001 90.8782 34.9055C91.8019 34.8112 92.7439 35.1291 93.6999 35.8571C94.6175 36.5559 95.1482 37.3335 95.2906 38.1883C95.4331 39.043 95.1926 39.8776 94.5699 40.6968L94.5686 40.6951ZM89.4918 36.9079C88.8695 37.724 88.5732 38.4896 88.6038 39.1986C88.6343 39.9076 88.9971 40.5291 89.6957 41.0606C90.3819 41.583 91.041 41.7719 91.6671 41.6266C92.295 41.4799 92.9293 40.9847 93.5733 40.1412C94.1759 39.3481 94.4674 38.6075 94.4434 37.9175C94.4211 37.2261 94.046 36.606 93.3215 36.0545C92.6174 35.5192 91.957 35.3287 91.3377 35.4794C90.7197 35.6318 90.1028 36.1083 89.4927 36.9125L89.4918 36.9079Z" fill="#5948A0"/>
<path d="M101.882 46.9705L98.9016 49.1661C98.7499 49.2773 98.6112 49.3811 98.486 49.4746C98.362 49.5698 98.2498 49.656 98.151 49.7319C98.094 49.7757 98.0834 49.8451 98.1182 49.9355L98.3435 50.5375L98.1892 50.6694C97.9263 50.296 97.6713 49.9432 97.4284 49.6131C97.1842 49.2813 96.9431 48.9604 96.6995 48.6467L96.8501 48.5098L97.3326 48.885C97.4038 48.9395 97.474 48.9442 97.5419 48.8973C97.6463 48.8252 97.7594 48.7436 97.8855 48.6547C98.0104 48.5641 98.1487 48.4633 98.302 48.3508L102.101 45.5531L101.068 44.1538C100.661 44.4272 100.241 44.6885 99.8066 44.9313C99.3738 45.1758 98.9263 45.3943 98.4659 45.5855C98.0038 45.7779 97.5291 45.9401 97.0388 46.0716C96.5486 46.2032 96.041 46.2947 95.5147 46.3447C95.4206 46.3504 95.3361 46.3514 95.2596 46.3489C95.1831 46.3464 95.1072 46.3274 95.0308 46.2903C94.9543 46.2531 94.8746 46.1945 94.7917 46.1143C94.7088 46.0341 94.615 45.9224 94.509 45.7774C94.3468 45.5558 94.1793 45.2823 94.0083 44.9555L94.1588 44.8186L94.3783 45.0282C94.4677 45.1167 94.5458 45.1872 94.6157 45.2401C94.6856 45.2929 94.7566 45.3369 94.8272 45.3733C94.8977 45.4096 94.9741 45.4362 95.0571 45.4577C95.1389 45.4774 95.2388 45.4966 95.3556 45.5134C95.6497 45.5565 95.9574 45.5652 96.2777 45.5349C96.5993 45.5063 96.9231 45.4494 97.2501 45.3687C97.577 45.2881 97.9037 45.1863 98.2251 45.0673C98.5482 44.947 98.8546 44.8155 99.1475 44.6731C99.4403 44.5308 99.7145 44.3815 99.9713 44.2268C100.228 44.0722 100.456 43.9213 100.654 43.7741C100.711 43.7304 100.721 43.6563 100.678 43.5512L100.369 42.7998L100.526 42.6712C100.793 43.0526 101.005 43.3531 101.166 43.5701L102.734 45.6979C102.977 46.0281 103.235 46.3678 103.506 46.7136L103.358 46.8539L102.84 46.4471C102.769 46.3925 102.699 46.3849 102.633 46.4199C102.529 46.492 102.416 46.5736 102.289 46.6625C102.165 46.7531 102.026 46.8539 101.873 46.9664L101.882 46.9705Z" fill="#5948A0"/>
<path d="M107.236 54.5239L102.586 58.6516C102.412 58.8065 102.3 58.9304 102.251 59.0234C102.203 59.1165 102.183 59.23 102.193 59.3667L102.234 59.8678L102.047 59.9472C101.903 59.52 101.763 59.1266 101.631 58.7644C101.497 58.3958 101.334 57.9617 101.145 57.4653L101.33 57.3766L101.622 57.7915C101.666 57.8485 101.706 57.8869 101.741 57.9051C101.776 57.9232 101.822 57.9231 101.874 57.9044C101.932 57.8834 102.004 57.8387 102.089 57.7684C102.172 57.6994 102.284 57.6056 102.421 57.4866L103.446 56.5982L102.597 54.2619L101.226 54.183C101.036 54.1746 100.884 54.1713 100.772 54.167C100.661 54.1645 100.577 54.1731 100.52 54.1928C100.469 54.2102 100.437 54.2406 100.424 54.2796C100.41 54.3199 100.406 54.3736 100.41 54.442L100.454 54.9358L100.256 55.0183C100.099 54.5563 99.9671 54.1805 99.8607 53.8894C99.7542 53.5982 99.6323 53.2764 99.4921 52.9206L99.6731 52.8269L99.9891 53.266C100.068 53.3758 100.157 53.4462 100.252 53.4767C100.348 53.5073 100.486 53.5315 100.67 53.5451L106.99 54.0518L107.238 54.5272L107.236 54.5239ZM103.062 54.2912L103.788 56.2876L105.892 54.4531L103.062 54.2912Z" fill="#5948A0"/>
<path d="M109.565 68.1851C109.524 68.627 109.488 69.0592 109.459 69.4833C109.455 69.6439 109.448 69.9051 109.437 70.2651C109.426 70.6252 109.415 70.8679 109.407 70.9934C109.358 71.7477 109.191 72.3073 108.91 72.6755C108.628 73.0438 108.246 73.2121 107.766 73.1808C106.993 73.1305 106.496 72.6407 106.276 71.7125C106.159 72.2394 105.952 72.6355 105.653 72.9021C105.355 73.1688 104.988 73.2879 104.555 73.2582C103.926 73.2164 103.457 72.9349 103.144 72.4133C102.833 71.8905 102.707 71.1885 102.766 70.3044C102.777 70.1281 102.794 69.9391 102.818 69.7343C102.842 69.5296 102.861 69.3016 102.878 69.0463C102.905 68.6311 102.928 68.2032 102.948 67.7674L103.152 67.7596L103.285 68.4036C103.3 68.4901 103.347 68.5398 103.422 68.5512C103.548 68.5633 103.688 68.5756 103.844 68.5869C103.999 68.5982 104.172 68.6119 104.36 68.6245L108.185 68.8777C108.344 68.8881 108.489 68.8966 108.618 68.9044C108.746 68.9122 108.864 68.9155 108.968 68.9203C109.05 68.9219 109.106 68.884 109.137 68.8068L109.362 68.181L109.565 68.1851ZM106.126 69.7555L103.263 69.5653C103.223 69.6655 103.191 69.7833 103.174 69.9166C103.154 70.0511 103.143 70.1746 103.136 70.2867C103.097 70.8541 103.198 71.2936 103.435 71.6064C103.675 71.918 104.038 72.0922 104.529 72.125C105.02 72.1578 105.394 72.0335 105.649 71.7492C105.906 71.4666 106.058 70.9908 106.103 70.3249C106.116 70.1308 106.125 69.9406 106.126 69.7555ZM106.502 69.7808C106.485 69.991 106.471 70.2075 106.454 70.4252C106.421 70.9301 106.507 71.3194 106.717 71.5925C106.925 71.8639 107.241 72.0153 107.67 72.0429C108.119 72.0733 108.452 71.9617 108.666 71.7096C108.88 71.4574 109.002 71.0834 109.036 70.5832C109.042 70.4936 109.046 70.3976 109.049 70.2911C109.051 70.1859 109.05 70.0697 109.046 69.9473L106.504 69.7795L106.502 69.7808Z" fill="#5948A0"/>
<path d="M100.835 83.7353C100.659 83.6685 100.498 83.6082 100.353 83.5546C100.207 83.5009 100.075 83.4534 99.9572 83.4108C99.8821 83.3859 99.8111 83.4218 99.7422 83.5227L99.3802 84.0085L99.1864 83.9469C99.3532 83.5364 99.5109 83.1383 99.656 82.7552C99.8033 82.3678 99.9521 81.9685 100.098 81.5583L100.298 81.6071L100.236 82.2618C100.224 82.3536 100.253 82.4163 100.321 82.4493C100.438 82.4978 100.569 82.5495 100.714 82.6062C100.858 82.6628 101.019 82.726 101.195 82.7929L104.777 84.1591C104.928 84.2165 105.063 84.2674 105.185 84.312C105.307 84.3567 105.417 84.3951 105.515 84.4291C105.593 84.4544 105.657 84.4342 105.711 84.366L106.109 83.8397L106.305 83.897C106.134 84.31 105.976 84.7064 105.831 85.0866C105.684 85.4741 105.536 85.875 105.392 86.2915L105.195 86.2384L105.258 85.5795C105.271 85.4953 105.239 85.4369 105.17 85.4022C105.069 85.3603 104.956 85.3138 104.834 85.2662C104.712 85.2186 104.579 85.1665 104.436 85.1115L100.836 83.74L100.835 83.7353ZM106.414 79.9193L104.96 79.3656C104.886 79.6301 104.802 79.8871 104.708 80.1324C104.391 80.9615 104.008 81.5274 103.563 81.8291C103.115 82.1304 102.625 82.1791 102.093 81.9752C101.752 81.846 101.488 81.6653 101.298 81.4355C101.108 81.2058 100.984 80.9469 100.923 80.6557C100.861 80.3645 100.856 80.0519 100.906 79.715C100.956 79.3782 101.044 79.0387 101.175 78.6959C101.235 78.541 101.304 78.3708 101.383 78.1899C101.463 78.006 101.547 77.8002 101.635 77.5706C101.784 77.1789 101.931 76.778 102.079 76.3665L102.277 76.4196L102.215 77.0743C102.205 77.1619 102.233 77.2228 102.302 77.2575C102.42 77.306 102.55 77.3577 102.696 77.4161C102.841 77.4727 103.001 77.5359 103.178 77.6028L106.76 78.969C106.91 79.0264 107.045 79.0773 107.168 79.1219C107.29 79.1666 107.399 79.205 107.497 79.239C107.575 79.2643 107.64 79.2441 107.692 79.1801L108.093 78.6483L108.287 78.7098C108.117 79.1199 107.96 79.515 107.814 79.8982C107.668 80.2827 107.515 80.701 107.358 81.1489L107.158 81.1001L107.23 80.3819C107.234 80.2906 107.204 80.2309 107.142 80.2046C107.039 80.161 106.927 80.1162 106.805 80.0686C106.684 80.021 106.555 79.9709 106.418 79.9184L106.414 79.9193ZM104.603 79.2299L101.852 78.179C101.74 78.321 101.635 78.5241 101.532 78.7923C101.338 79.3032 101.315 79.734 101.462 80.0847C101.608 80.4353 101.92 80.7022 102.393 80.8818C102.871 81.0635 103.275 81.0622 103.607 80.8767C103.938 80.6913 104.214 80.3117 104.434 79.738C104.46 79.6675 104.49 79.5886 104.516 79.5017C104.544 79.4135 104.573 79.3223 104.602 79.2282L104.603 79.2299Z" fill="#5948A0"/>
<path d="M97.8409 94.2381L97.9458 94.059L99.1549 94.5339C99.4952 94.2592 99.7734 93.9869 99.9887 93.7124C100.511 93.0503 100.708 92.3636 100.583 91.6527C100.458 90.9418 100.057 90.3199 99.3814 89.7869C98.6592 89.2176 97.9116 88.9794 97.1404 89.0711C96.3691 89.1627 95.6816 89.5923 95.0799 90.3554C94.7417 90.7856 94.4607 91.297 94.2369 91.8898L94.0343 91.803C94.1164 91.0048 94.4236 90.2708 94.9546 89.5993C95.643 88.727 96.4423 88.2143 97.3544 88.0598C98.2665 87.9052 99.1209 88.1439 99.9169 88.771C100.766 89.4398 101.204 90.267 101.232 91.2498C101.26 92.2326 100.9 93.1992 100.15 94.1508C99.7899 94.6082 99.371 95.0338 98.891 95.4318L98.8391 95.437L97.8376 94.2406L97.8409 94.2381Z" fill="#5948A0"/>
<path d="M87.5705 100.691C86.9384 99.8022 86.7053 98.8918 86.8712 97.9601C87.0371 97.0283 87.6129 96.2105 88.6015 95.5072C89.5402 94.8394 90.4429 94.5722 91.311 94.7072C92.1807 94.8409 92.9173 95.3352 93.524 96.1875C94.1561 97.0764 94.3802 97.975 94.1958 98.8863C94.0115 99.7976 93.4284 100.602 92.4482 101.299C91.5078 101.968 90.6086 102.243 89.7504 102.125C88.8923 102.006 88.1656 101.528 87.5705 100.691ZM92.6952 96.9706C92.1 96.1333 91.4588 95.6244 90.7718 95.4409C90.0862 95.259 89.3855 95.4217 88.6697 95.9289C87.9669 96.4287 87.5907 97 87.544 97.6431C87.4973 98.2862 87.7809 99.0405 88.3967 99.9046C88.9742 100.715 89.5959 101.213 90.2617 101.397C90.9275 101.58 91.6328 101.406 92.3754 100.878C93.0949 100.366 93.4745 99.7919 93.5128 99.1552C93.5511 98.5185 93.2792 97.7899 92.6939 96.9689L92.6952 96.9706Z" fill="#5948A0"/>
<path d="M81.7788 102.79L81.2689 101.245C81.2098 101.064 81.1555 100.904 81.1079 100.762C81.0589 100.618 81.0126 100.489 80.972 100.373C80.9388 100.282 80.8754 100.237 80.7876 100.241L80.196 100.272L80.1182 100.084C80.5089 99.9648 80.8987 99.8412 81.2876 99.7129C81.6829 99.5825 82.0864 99.4456 82.4988 99.2994L82.5812 99.4864L82.0332 99.8514C81.9577 99.8987 81.9301 99.9599 81.9474 100.034C81.9843 100.155 82.0256 100.289 82.0721 100.439C82.119 100.587 82.1711 100.752 82.2319 100.932L83.4308 104.574C83.4816 104.726 83.5284 104.863 83.5695 104.986C83.6123 105.108 83.6507 105.217 83.6861 105.315C83.7152 105.391 83.7719 105.43 83.8534 105.429L84.5181 105.403L84.5912 105.592C84.3748 105.657 84.1647 105.72 83.9652 105.782C83.7657 105.845 83.5674 105.91 83.3708 105.973C83.1755 106.037 82.9832 106.103 82.7909 106.168C82.6015 106.233 82.4088 106.301 82.2157 106.372L82.127 106.188L82.6342 105.846C82.7094 105.801 82.737 105.74 82.7154 105.664C82.6829 105.555 82.6473 105.436 82.6066 105.31C82.5658 105.185 82.522 105.048 82.4734 104.901L81.9066 103.182L81.3919 103.351C81.2408 103.4 81.1078 103.449 80.993 103.498C80.8766 103.547 80.7741 103.604 80.6857 103.67C80.597 103.738 80.5235 103.816 80.465 103.906C80.4064 103.996 80.36 104.109 80.326 104.242C80.292 104.374 80.2711 104.534 80.2609 104.715C80.252 104.898 80.2536 105.115 80.2628 105.366C80.2768 105.627 80.2853 105.85 80.2912 106.034C80.2958 106.217 80.2904 106.373 80.2784 106.499C80.265 106.624 80.2425 106.727 80.2096 106.805C80.1767 106.884 80.1306 106.949 80.0741 107C80.0147 107.051 79.9396 107.095 79.8458 107.133C79.752 107.17 79.6397 107.211 79.5059 107.255C79.2272 107.347 78.9253 107.432 78.5967 107.514L78.4863 107.242C78.7093 107.161 78.8903 107.068 79.0276 106.962C79.165 106.857 79.2717 106.732 79.3504 106.592C79.4291 106.451 79.4876 106.292 79.5232 106.113C79.5604 105.932 79.5928 105.732 79.6202 105.511C79.6416 105.348 79.6659 105.185 79.6932 105.023C79.7188 104.862 79.7529 104.706 79.7939 104.554C79.8348 104.403 79.8868 104.259 79.9469 104.123C80.01 103.986 80.0867 103.861 80.1784 103.748C79.8393 103.507 79.521 103.27 79.2255 103.031C78.93 102.792 78.6571 102.575 78.4077 102.375C78.1728 102.191 77.9618 102.03 77.7735 101.893C77.5852 101.755 77.4192 101.653 77.274 101.589C77.1984 101.557 77.1276 101.534 77.0607 101.516C76.9937 101.498 76.926 101.486 76.8591 101.479C76.7923 101.472 76.723 101.472 76.6517 101.476C76.5803 101.48 76.4997 101.486 76.4081 101.495L76.3294 101.303C76.5555 101.198 76.7465 101.121 76.9039 101.069C77.0377 101.025 77.1569 100.989 77.2584 100.962C77.3616 100.933 77.4556 100.917 77.5425 100.909C77.6295 100.901 77.708 100.899 77.7808 100.907C77.8535 100.915 77.9268 100.931 78.0002 100.957C78.1803 101.008 78.3724 101.105 78.582 101.253C78.7902 101.399 79.0166 101.58 79.2586 101.791C79.454 101.955 79.6541 102.129 79.8611 102.308C80.0664 102.489 80.2847 102.662 80.5126 102.83C80.5787 102.878 80.6353 102.917 80.6821 102.951C80.729 102.984 80.7757 103.007 80.8223 103.019C80.8673 103.032 80.918 103.036 80.967 103.03C81.0189 103.025 81.0795 103.01 81.1566 102.986L81.7736 102.783L81.7788 102.79Z" fill="#5948A0"/>
<path d="M66.6085 105.53C66.5677 104.44 66.874 103.553 67.5247 102.864C68.1738 102.176 69.1062 101.809 70.3187 101.764C71.469 101.722 72.3704 101.994 73.0235 102.585C73.6754 103.173 74.0215 103.992 74.0605 105.038C74.1013 106.128 73.7924 107.001 73.1379 107.661C72.4834 108.321 71.5546 108.672 70.3527 108.716C69.1994 108.758 68.2969 108.495 67.644 107.926C66.9928 107.355 66.6486 106.557 66.6085 105.53ZM72.9364 105.235C72.8993 104.209 72.6428 103.431 72.1687 102.9C71.6945 102.37 71.0203 102.123 70.144 102.154C69.2812 102.186 68.6536 102.457 68.2611 102.969C67.8685 103.481 67.6916 104.267 67.7317 105.328C67.7684 106.323 68.0154 107.081 68.47 107.6C68.9263 108.118 69.6098 108.363 70.5211 108.329C71.4037 108.295 72.0373 108.024 72.4176 107.514C72.7995 107.002 72.9712 106.244 72.9348 105.236L72.9364 105.235Z" fill="#5948A0"/>
<path d="M61.0442 102.52C61.1352 102.16 61.2044 101.861 61.2562 101.627C61.2719 101.554 61.2404 101.495 61.1617 101.452L60.5196 101.088L60.5578 100.888C61.0393 101.019 61.4779 101.132 61.8744 101.232C62.271 101.332 62.6862 101.429 63.1191 101.528L63.0897 101.729L62.4308 101.745C62.3371 101.748 62.2813 101.783 62.2614 101.854C62.1928 102.101 62.1139 102.404 62.023 102.764L61.0939 106.482C61.0538 106.638 61.0204 106.778 60.9902 106.905C60.9616 107.031 60.9346 107.145 60.9138 107.246C60.8974 107.325 60.9251 107.389 60.9949 107.432L61.5704 107.765L61.5321 107.965C61.1049 107.845 60.6929 107.735 60.2963 107.635L59.1193 107.341C58.2982 107.135 57.5068 106.944 56.7422 106.767L56.721 106.722L57.4864 105.125L57.6949 105.143L57.7437 106.562L59.8952 107.099L61.0421 102.513L61.0442 102.52Z" fill="#5948A0"/>
<path d="M47.6237 98.9033C48.154 97.95 48.8746 97.3485 49.7873 97.0977C50.6999 96.8468 51.6854 97.0168 52.7454 97.6063C53.7506 98.1659 54.3801 98.8676 54.6326 99.7097C54.8852 100.552 54.758 101.43 54.248 102.344C53.7177 103.297 53.002 103.884 52.1 104.111C51.1985 104.334 50.2218 104.155 49.1715 103.571C48.1621 103.01 47.5285 102.316 47.2647 101.491C47.0026 100.664 47.1216 99.803 47.6204 98.9058L47.6237 98.9033ZM53.1874 101.93C53.6862 101.033 53.871 100.233 53.7409 99.537C53.6096 98.8389 53.162 98.277 52.3971 97.8498C51.6432 97.43 50.9654 97.3381 50.3655 97.5697C49.7654 97.8043 49.2071 98.3849 48.6893 99.3127C48.2045 100.183 48.0245 100.958 48.1447 101.638C48.2649 102.318 48.7242 102.881 49.5202 103.325C50.2924 103.754 50.9741 103.851 51.5645 103.611C52.1562 103.372 52.6982 102.812 53.1874 101.93Z" fill="#5948A0"/>
<path d="M35.7602 88.3433L35.903 88.4946L35.1057 89.5198C35.2726 89.9243 35.4565 90.2678 35.6558 90.5516C36.1424 91.2405 36.7442 91.6253 37.4612 91.7058C38.1795 91.788 38.889 91.5813 39.5914 91.0844C40.342 90.5532 40.7841 89.9047 40.913 89.1398C41.0437 88.3736 40.8281 87.5936 40.2664 86.7999C39.95 86.3531 39.5388 85.9392 39.0333 85.555L39.1746 85.3852C39.9149 85.6902 40.5328 86.1931 41.0271 86.8921C41.6687 87.8003 41.9348 88.7119 41.8219 89.6296C41.712 90.5476 41.2412 91.3008 40.4126 91.8866C39.5309 92.5106 38.6132 92.696 37.664 92.4449C36.7135 92.1922 35.888 91.5717 35.1906 90.5839C34.8552 90.1091 34.5653 89.586 34.3179 89.0143L34.3292 88.963L35.7602 88.3433Z" fill="#5948A0"/>
<path d="M31.4813 83.2854L31.0496 82.1095C30.7844 81.3863 30.4986 80.6258 30.1907 79.8261L30.216 79.7828L31.6913 79.5605L31.7939 79.7427L30.8781 80.4195L31.6993 82.6572L34.1411 81.7619L33.9789 81.3218C33.8559 80.9848 33.7148 80.6138 33.558 80.2016C33.5236 80.1187 33.464 80.0793 33.3812 80.079L32.7194 80.1292L32.6146 79.8714C33.0325 79.7289 33.3405 79.6202 33.5382 79.5482C33.7313 79.4771 34.0312 79.3613 34.4379 79.2008L34.5507 79.4551L34.006 79.8521C33.9373 79.9049 33.9165 79.9714 33.9415 80.0455C34.0895 80.4671 34.2249 80.8479 34.3492 81.1866L34.5088 81.6233L36.1231 81.0307C36.4521 80.9111 36.7739 80.7891 37.0914 80.6651L36.2393 78.3419L34.8963 78.1642L34.7815 77.9594L36.3648 77.4997L36.4086 77.5221C36.7068 78.3611 36.9864 79.1344 37.2446 79.8416L37.6673 80.9952C37.8103 81.3861 37.9615 81.784 38.122 82.1907L37.9384 82.2811L37.5567 81.746C37.506 81.673 37.4449 81.6454 37.3699 81.6657C37.2516 81.706 37.1161 81.7514 36.9706 81.8047C36.8237 81.8562 36.6609 81.9147 36.485 81.9805L32.8863 83.301C32.7344 83.3564 32.5997 83.4065 32.479 83.454C32.3583 83.5014 32.249 83.5428 32.1535 83.5815C32.0787 83.6123 32.0426 83.6694 32.0452 83.7526L32.0921 84.417L31.9054 84.4965C31.7633 84.0756 31.6248 83.6733 31.4822 83.2901L31.4813 83.2854Z" fill="#5948A0"/>
<path d="M33.9645 72.4428C34.1523 72.4238 34.3219 72.4054 34.4717 72.3889C34.6215 72.3724 34.7578 72.3556 34.8759 72.3394C34.948 72.3293 34.9922 72.2794 35.0068 72.1909L35.1324 71.4632L35.3336 71.4339C35.3739 71.9303 35.4155 72.3831 35.4586 72.7895C35.5005 73.2047 35.5489 73.6283 35.6037 74.0603L35.4039 74.1019L35.1649 73.4891C35.131 73.4033 35.0777 73.3617 35.0051 73.3642C34.8788 73.3732 34.7387 73.385 34.5847 73.3994C34.4293 73.4122 34.2568 73.4302 34.069 73.4493L30.2563 73.8394C30.096 73.856 29.9525 73.8703 29.8238 73.8866C29.6968 73.9016 29.5804 73.9164 29.4762 73.9299C29.3948 73.9418 29.345 73.988 29.3299 74.0689L29.2124 74.7238L29.0125 74.7548C28.9787 74.312 28.9433 73.8811 28.9005 73.4612C28.8727 73.1789 28.8362 72.9059 28.7969 72.6432C28.7575 72.3804 28.7256 72.1412 28.7045 71.9231C28.6226 71.1124 28.705 70.4845 28.9516 70.0393C29.1983 69.5942 29.6095 69.3423 30.1834 69.285C30.8582 69.2169 31.4062 69.4032 31.8287 69.8458C32.2511 70.2884 32.5058 70.9424 32.5939 71.8096C32.6182 72.0493 32.6313 72.3056 32.6298 72.5811L33.9704 72.4436L33.9645 72.4428ZM32.2284 72.6203C32.2408 72.3764 32.2373 72.1394 32.2122 71.9057C32.1561 71.3575 31.9846 70.9539 31.696 70.6961C31.4091 70.437 30.9977 70.3349 30.4648 70.39C29.9533 70.4419 29.5869 70.6168 29.3626 70.9142C29.14 71.2104 29.058 71.6516 29.1167 72.2377C29.1409 72.4669 29.1756 72.6959 29.2251 72.9268L32.2255 72.6199L32.2284 72.6203Z" fill="#5948A0"/>
<path d="M28.5801 64.7981C28.6571 64.3608 28.727 63.9316 28.7897 63.5105C28.8077 63.3502 28.8356 63.0918 28.8767 62.7326C28.9161 62.3747 28.9463 62.1331 28.9656 62.0091C29.0757 61.2614 29.2858 60.7165 29.5979 60.3703C29.9082 60.0253 30.3013 59.8886 30.7786 59.9588C31.5455 60.0729 32.0006 60.5996 32.1449 61.5435C32.3029 61.0279 32.5424 60.6496 32.8632 60.4085C33.1811 60.167 33.5574 60.0777 33.9874 60.1417C34.6095 60.2338 35.0572 60.5532 35.3245 61.0989C35.5919 61.6446 35.6613 62.3557 35.5327 63.2322C35.5069 63.4065 35.4748 63.5936 35.4348 63.7948C35.3949 63.9959 35.3574 64.2245 35.3197 64.4771C35.2581 64.8893 35.1996 65.3125 35.1458 65.7453L34.9421 65.7366L34.8619 65.0844C34.8525 64.9958 34.8113 64.9422 34.7384 64.9236C34.6148 64.9013 34.4747 64.8784 34.3211 64.8553C34.1662 64.8304 33.9964 64.8037 33.8086 64.7775L30.0167 64.2168C29.8571 64.1929 29.7137 64.1726 29.5863 64.1558C29.459 64.1391 29.3435 64.124 29.2381 64.1117C29.1565 64.1025 29.0977 64.1369 29.061 64.2105L28.7857 64.8161L28.5835 64.7956L28.5801 64.7981ZM31.7617 63.4545C31.7952 63.245 31.8291 63.0325 31.8621 62.8154C31.9353 62.3144 31.8801 61.92 31.6951 61.6306C31.5102 61.3412 31.2061 61.1672 30.782 61.1041C30.3373 61.0382 29.9964 61.1215 29.7625 61.3545C29.5286 61.5874 29.3752 61.9529 29.3014 62.4464C29.2885 62.5335 29.2756 62.6313 29.2663 62.737C29.2553 62.844 29.2464 62.9574 29.2423 63.0803L31.7633 63.4532L31.7617 63.4545ZM32.1354 63.5111L34.9742 63.9302C35.0229 63.8341 35.0622 63.7188 35.0915 63.587C35.1208 63.4553 35.1431 63.3317 35.1591 63.2208C35.2418 62.6592 35.1784 62.2125 34.9659 61.8804C34.7547 61.5499 34.4047 61.3473 33.9184 61.276C33.4322 61.2047 33.0492 61.299 32.7708 61.5608C32.4925 61.8225 32.3025 62.2827 32.2053 62.9433C32.1771 63.1354 32.1523 63.325 32.137 63.5098L32.1354 63.5111Z" fill="#5948A0"/>
<path d="M36.3618 55.1084L37.0138 55.4093C37.0877 55.4431 37.1567 55.4221 37.2209 55.3461L37.6112 54.8972L37.8022 54.9689C37.6213 55.3369 37.4435 55.7052 37.2728 56.076C37.1005 56.4481 36.9245 56.8362 36.7462 57.2422L36.5532 57.1747L36.6624 56.5262C36.6774 56.4347 36.6526 56.3712 36.5876 56.3386C36.3586 56.2242 36.0765 56.0893 35.7384 55.9335L32.261 54.3189C31.9756 54.1865 31.7365 54.0798 31.5455 53.9975C31.4712 53.9667 31.4046 53.9806 31.3483 54.0425L30.9117 54.5456L30.7228 54.4696C30.921 54.0723 31.1055 53.6883 31.2791 53.3179C31.4531 52.9445 31.6195 52.5717 31.7767 52.2006L31.9717 52.2639L31.8747 52.8657C31.8558 52.9521 31.881 53.0127 31.9516 53.0491C32.1551 53.1511 32.3947 53.2654 32.6729 53.3953L35.7472 54.8214L33.9821 49.7769L33.5617 49.5831C33.4963 49.5535 33.4315 49.5766 33.3673 49.6526L32.977 50.1015L32.786 50.0297C32.9739 49.6537 33.1556 49.2798 33.3299 48.9035C33.5023 48.5314 33.6732 48.1471 33.844 47.7523L34.037 47.8197L33.9314 48.4868C33.9206 48.5697 33.9521 48.6281 34.0239 48.6661C34.2084 48.7641 34.4433 48.8793 34.7304 49.0104L38.2078 50.625C38.5459 50.7808 38.8304 50.9085 39.0677 51.0059C39.1348 51.0343 39.1979 51.0124 39.26 50.9408L39.6815 50.4492L39.8704 50.5252C39.6689 50.9356 39.4833 51.3286 39.3093 51.7019C39.137 52.074 38.9713 52.4409 38.8158 52.8001L38.6207 52.7369L38.7177 52.135C38.7336 52.0482 38.7042 51.9856 38.6281 51.9455L37.7832 51.5424L34.601 50.066L36.3661 55.1105L36.3618 55.1084Z" fill="#5948A0"/>
<path d="M41.7873 40.3091L41.6714 40.4806L40.4928 39.9344C40.1357 40.1873 39.8429 40.4441 39.6114 40.7045C39.0513 41.3345 38.8123 42.0082 38.8944 42.7254C38.9766 43.4427 39.3393 44.0883 39.9812 44.6606C40.6693 45.2721 41.4005 45.5548 42.1748 45.5088C42.9491 45.4627 43.6612 45.0756 44.3077 44.3499C44.6714 43.9427 44.9835 43.4474 45.2417 42.8681L45.4381 42.9677C45.3073 43.758 44.9572 44.4743 44.3883 45.1137C43.6496 45.9447 42.8205 46.4084 41.9006 46.5077C40.9808 46.6069 40.1418 46.3191 39.3837 45.6443C38.5757 44.9252 38.1887 44.0745 38.2197 43.0919C38.2507 42.1092 38.6682 41.1653 39.4737 40.2616C39.8604 39.8288 40.3049 39.4262 40.8051 39.0579L40.8566 39.0557L41.7844 40.3087L41.7873 40.3091Z" fill="#5948A0"/>
<path d="M47.4946 33.7095L52.5314 37.3544C52.7214 37.4908 52.8656 37.5745 52.966 37.6012C53.0664 37.6279 53.183 37.6237 53.3131 37.585L53.7922 37.4354L53.909 37.6014C53.5243 37.8356 53.1685 38.0556 52.843 38.263C52.5125 38.4742 52.1255 38.7262 51.6802 39.0203L51.5554 38.8578L51.895 38.4851C51.9413 38.4309 51.9686 38.3833 51.9796 38.3455C51.9906 38.3078 51.9795 38.2657 51.9498 38.2166C51.9162 38.1625 51.8547 38.1032 51.7716 38.0365C51.6854 37.9695 51.5704 37.8821 51.4234 37.7739L50.3347 36.9668L48.2388 38.3022L48.4601 39.6584C48.4944 39.8452 48.5215 39.9948 48.5417 40.1044C48.562 40.214 48.5891 40.2944 48.6218 40.3439C48.6506 40.3884 48.6864 40.4141 48.7278 40.4196C48.7693 40.425 48.8229 40.4185 48.8873 40.3983L49.3605 40.248L49.4837 40.4223C49.0662 40.6764 48.7281 40.8881 48.4668 41.0542C48.2055 41.2203 47.917 41.4099 47.5997 41.6243L47.4682 41.467L47.8286 41.0624C47.9187 40.9612 47.9682 40.8592 47.9781 40.7611C47.9866 40.6613 47.9795 40.5203 47.9551 40.3393L47.0795 34.0603L47.4892 33.7163L47.4946 33.7095ZM48.1722 37.834L49.964 36.6922L47.7168 35.0356L48.1722 37.834Z" fill="#5948A0"/>
<path d="M91.71 111.285C86.7894 113.943 81.3917 115.748 75.6945 116.587C62.8849 118.475 50.106 115.26 39.711 107.538C29.3194 99.8136 22.5551 88.5065 20.6672 75.6939C18.7789 62.8843 21.9933 50.1054 29.715 39.7134C37.4385 29.3201 48.7473 22.5546 61.5581 20.668C74.3677 18.7797 87.1466 21.994 97.5416 29.7162C107.935 37.4396 114.699 48.7467 116.586 61.5576C118.474 74.3672 115.26 87.1461 107.538 97.541C103.248 103.313 97.8533 107.965 91.71 111.285ZM46.2249 27.0728C29.2545 36.2425 18.9553 55.3499 21.9266 75.5096C25.722 101.261 49.759 119.122 75.5089 115.325C81.1003 114.501 86.32 112.722 91.0264 110.18C107.997 101.01 118.296 81.9029 115.325 61.7431C111.529 35.992 87.4923 18.1303 61.7424 21.9274C56.151 22.7515 50.93 24.5296 46.2249 27.0728Z" fill="#BDCE76"/>
<path d="M93.7198 76.2702C93.6495 76.3243 93.5675 76.3632 93.4774 76.3845C93.3826 76.4068 83.783 78.6288 77.1005 82.1207C70.4293 85.6066 63.5842 92.5314 63.5162 92.6023C63.398 92.7224 63.2369 92.7901 63.0696 92.7908C62.9023 92.7914 62.7394 92.7249 62.6222 92.6071L42.3438 72.3567C42.1305 72.1449 42.0988 71.8124 42.2641 71.5629C42.4294 71.3134 42.7498 71.2139 43.027 71.3286C43.1526 71.3812 55.7215 76.4721 62.0467 73.1668C67.0736 70.5362 60.4227 53.0135 57.4336 46.4828C57.298 46.1849 57.4118 45.8337 57.6934 45.6733C57.9768 45.5117 58.3381 45.5937 58.5228 45.862C64.4502 54.408 75.1766 67.2743 78.7266 65.4187C83.7489 62.789 86.3214 46.6811 86.3471 46.5203C86.393 46.216 86.6545 45.9912 86.9607 45.9877C87.267 45.9842 87.5335 46.2029 87.5873 46.5052L91.7586 69.6665C91.7898 69.8423 91.7466 70.0219 91.6363 70.1626C91.5276 70.302 91.3651 70.3922 91.187 70.4065C91.1321 70.4113 85.5244 70.9124 75.9454 75.5956C66.5178 80.2052 64.5688 84.5094 64.5494 84.5536C64.4115 84.8699 64.0423 85.0203 63.7243 84.8837C63.4046 84.7484 63.2551 84.3838 63.3891 84.0624C63.4685 83.871 65.4653 79.317 75.3921 74.4625C83.3825 70.5546 88.6033 69.5011 90.3992 69.2351L86.9503 50.0867C85.9347 54.8538 83.6918 63.259 80.0566 66.0511C79.8121 66.2389 79.5634 66.4006 79.3064 66.5341C76.7526 67.8697 72.4075 64.9347 66.0204 57.562C64.0329 55.2692 62.1629 52.8968 60.6834 50.9463C63.5127 58.1324 67.5497 70.5701 63.1738 73.9338C63.0046 74.0637 62.8221 74.1799 62.6264 74.2822C57.6078 76.9063 49.4416 74.8394 45.2297 73.4613L63.0641 91.2716C64.7185 89.6493 70.5874 84.1029 76.5132 81.0057C83.3431 77.4352 93.096 75.1806 93.1938 75.1588C93.5338 75.0814 93.8705 75.2943 93.9483 75.6313C94.0047 75.8783 93.9075 76.1261 93.7182 76.2715L93.7198 76.2702Z" fill="#BDCE76"/>
</svg>
