<svg width="60" height="60" viewBox="0 0 60 60" fill="none" xmlns="http://www.w3.org/2000/svg">
<path d="M24.6577 4.24667C22.2154 4.38368 19.5551 24.1394 17.8913 24.4048C16.2275 24.6703 3.19831 24.9805 2.98063 26.7841C2.76296 28.5876 19.9359 37.2187 20.1915 38.8205C20.4471 40.4222 19.331 56.3937 20.5652 57.3971C21.7994 58.4005 29.2277 40.4109 30.4476 40.5322C31.6674 40.6534 49.2919 53.6978 50.0785 52.6878C50.865 51.6779 39.0743 37.5763 38.799 35.8514C38.5238 34.1264 53.4126 20.1267 54.1821 18.6141C54.9517 17.1015 38.9634 21.0425 36.4988 21.4357C34.0343 21.829 27.1 4.10966 24.6577 4.24667Z" stroke="#5948A0" stroke-width="2" stroke-linecap="round"/>
</svg>
