<svg width="81" height="86" viewBox="0 0 81 86" fill="none" xmlns="http://www.w3.org/2000/svg">
<g clip-path="url(#clip0_296_1512)">
<path d="M37.0649 22.9385C37.0649 15.0974 35.6526 5.4422 27.9046 1.44102C19.6019 -2.85243 9.93716 3.20476 5.1048 9.94729C-6.02274 25.4581 2.96605 45.847 13.7102 58.8785C20.3182 66.8909 28.9438 73.6536 32.3536 83.8128C32.8076 85.1734 36.6917 84.0647 36.2478 82.7646C33.4634 74.4901 27.2489 68.2616 21.4481 62.0028C15.6472 55.7441 10.7241 49.0519 7.43523 41.2512C4.1464 33.4504 2.65331 25.0449 5.20568 17.0325C6.47683 13.0716 8.73663 9.39297 11.7833 6.55083C14.4063 4.11183 17.9171 1.85424 21.6599 2.31785C26.1089 2.86209 29.428 6.65162 31.0522 10.5822C32.6765 14.5129 33.1708 19.0986 33.1708 23.4223C33.1708 25.0348 37.0649 24.2084 37.0649 22.9385Z" fill="white"/>
<path d="M37.186 23.1202C41.2718 15.9242 47.9201 10.1694 55.547 6.97446C59.2292 5.43245 63.194 4.50522 67.1991 4.52538C68.1979 4.52538 69.2067 4.58585 70.1954 4.70679C71.0327 4.81766 72.5056 4.83781 73.2421 5.28127C73.9785 5.72472 74.7352 6.87368 75.2396 7.60941C75.855 8.49632 76.319 9.46385 76.6318 10.4919C77.8121 14.3721 76.4905 18.4539 74.6141 21.8907C72.5661 25.6298 69.8423 28.9658 67.068 32.1808C63.7489 36.0208 60.228 39.6893 56.9593 43.5796C53.6907 47.47 50.3615 51.6928 47.2644 55.9057C40.4849 65.1275 34.4016 74.8331 29.0144 84.9217C28.1468 86.5444 32.0409 86.1311 32.6462 85.0023C37.7106 75.5084 43.4005 66.347 49.7058 57.619C52.9845 53.0837 56.4247 48.6592 60.0061 44.3658C63.5874 40.0723 67.2697 36.2526 70.8208 32.1304C73.7868 28.6836 76.7226 25.0856 78.7604 20.9937C80.5764 17.3553 81.787 13.1324 80.4351 9.13126C79.7693 7.18611 78.367 4.71687 76.6116 3.55784C75.8146 3.02368 74.6141 2.91282 73.6759 2.75156C72.5157 2.54999 71.3454 2.41897 70.1752 2.3585C65.6051 2.09646 61.0048 2.89266 56.6971 4.36412C47.2139 7.59933 38.548 14.2814 33.5744 23.0396C32.6765 24.6219 36.5706 24.239 37.2062 23.1202H37.186Z" fill="white"/>
</g>
<defs>
<clipPath id="clip0_296_1512">
<rect width="81" height="86" fill="white"/>
</clipPath>
</defs>
</svg>
