<svg width="100" height="100" viewBox="0 0 100 100" fill="none" xmlns="http://www.w3.org/2000/svg">
<circle cx="50" cy="50" r="50" fill="#F5F5F5"/>
<path d="M45.4719 67.4694C45.8844 67.5491 46.1647 67.0737 45.9331 66.725C44.3012 64.2695 43.4329 61.3858 43.4375 58.4375C43.4375 50.1528 50.1528 43.4375 58.4375 43.4375C61.5012 43.4375 64.3503 44.3562 66.725 45.9331C67.0737 46.1647 67.5491 45.8834 67.4694 45.4719C65.7941 36.8337 58.19 30.3125 49.0625 30.3125C38.7069 30.3125 30.3125 38.7069 30.3125 49.0625C30.3125 52.6213 31.3044 55.9484 33.0256 58.7834C32.1903 60.7869 31.34 63.155 30.7963 65.3319C30.4916 66.5534 31.5631 67.5828 32.7762 67.2463C34.8791 66.6622 37.1928 65.8119 39.1869 65.0037C41.1146 66.2015 43.2439 67.0371 45.4719 67.4694Z" fill="#A59ADE"/>
<path d="M47.1875 58.4375C47.1875 52.2247 52.2247 47.1875 58.4375 47.1875C64.6503 47.1875 69.6875 52.2247 69.6875 58.4375C69.6875 60.5966 69.08 62.6131 68.0253 64.325C68.4294 65.18 68.8316 66.1634 69.1503 67.2181C69.5131 68.4237 68.4331 69.4597 67.2369 69.0687C66.2817 68.751 65.3447 68.381 64.43 67.9606C62.6363 69.0921 60.5582 69.691 58.4375 69.6875C52.2247 69.6875 47.1875 64.6503 47.1875 58.4375Z" fill="white"/>
<path d="M67.4375 45.3125C65.7003 36.7541 58.1337 30.3125 49.0625 30.3125C38.7069 30.3125 30.3125 38.7069 30.3125 49.0625C30.3125 52.6212 31.3044 55.9484 33.0256 58.7834C32.1903 60.7869 31.34 63.155 30.7963 65.3319C30.4916 66.5534 31.5631 67.5828 32.7762 67.2463C34.8791 66.6622 37.1928 65.8119 39.1869 65.0037C41.0679 66.1725 43.1422 66.9967 45.3125 67.4375" stroke="#5948A0" stroke-width="1.5" stroke-linecap="round" stroke-linejoin="round"/>
<path d="M47.1875 58.4375C47.1875 52.2247 52.2247 47.1875 58.4375 47.1875C64.6503 47.1875 69.6875 52.2247 69.6875 58.4375C69.6875 60.5966 69.08 62.6131 68.0253 64.325C68.4294 65.18 68.8316 66.1634 69.1503 67.2181C69.5131 68.4237 68.4331 69.4597 67.2369 69.0687C66.2817 68.751 65.3447 68.381 64.43 67.9606C62.6363 69.0921 60.5582 69.691 58.4375 69.6875C52.2247 69.6875 47.1875 64.6503 47.1875 58.4375Z" stroke="#5948A0" stroke-width="1.5" stroke-linejoin="round"/>
</svg>
