<svg width="100" height="100" viewBox="0 0 100 100" fill="none" xmlns="http://www.w3.org/2000/svg">
<circle cx="50" cy="50" r="50" fill="#F5F5F5"/>
<path d="M47.9838 69.6124C49.3842 69.6592 50.9497 69.6875 52.6878 69.6875C57.3161 69.6875 60.7203 69.4867 63.0421 69.271C65.4119 69.0508 67.1529 67.1713 67.3006 64.7959C67.4886 61.7718 67.6878 56.932 67.6878 50C67.6878 43.068 67.4886 38.2282 67.3006 35.2041C67.1529 32.8287 65.4119 30.9493 63.0421 30.7291C60.7203 30.5133 57.3161 30.3125 52.6878 30.3125C48.0597 30.3125 44.6555 30.5133 42.3337 30.7291C39.9639 30.9493 38.2229 32.8287 38.0751 35.2041C38.0069 36.3015 37.9372 37.638 37.8761 39.2269C39.155 39.2457 40.267 39.2955 41.2218 39.3613C45.9115 39.6845 49.0638 43.496 49.2437 47.766C49.3311 49.842 49.4066 52.7411 49.4066 56.5625C49.4066 60.3839 49.3311 63.283 49.2437 65.359C49.1795 66.8807 48.738 68.3442 47.9838 69.6124Z" fill="#A59ADE"/>
<path d="M28.4717 65.1815C28.5702 67.5208 30.2327 69.394 32.5686 69.5549C33.693 69.6324 35.0798 69.6875 36.75 69.6875C38.4202 69.6875 39.807 69.6324 40.9314 69.5549C43.2672 69.394 44.9298 67.5208 45.0283 65.1815C45.1131 63.1683 45.1875 60.3285 45.1875 56.5625C45.1875 52.7965 45.1131 49.9567 45.0283 47.9435C44.9298 45.6043 43.2672 43.731 40.9314 43.5701C39.807 43.4926 38.4202 43.4375 36.75 43.4375C35.0798 43.4375 33.693 43.4926 32.5686 43.5701C30.2327 43.731 28.5702 45.6043 28.4717 47.9435C28.3869 49.9567 28.3125 52.7965 28.3125 56.5625C28.3125 60.3285 28.3869 63.1683 28.4717 65.1815Z" fill="white"/>
<path d="M37.9164 38.2812C37.9675 37.1 38.0227 36.0765 38.0769 35.2041C38.2246 32.8287 39.9657 30.9493 42.3355 30.7291C44.6573 30.5133 48.0614 30.3125 52.6896 30.3125C57.3179 30.3125 60.722 30.5133 63.0438 30.7291C65.4136 30.9493 67.1547 32.8287 67.3023 35.2041C67.4904 38.2282 67.6896 43.068 67.6896 50C67.6896 56.932 67.4904 61.7718 67.3023 64.7959C67.1547 67.1713 65.4135 69.0508 63.0438 69.271C60.722 69.4867 57.3179 69.6875 52.6896 69.6875C51.336 69.6875 50.0871 69.6703 48.9394 69.6406" stroke="#5948A0" stroke-width="1.5" stroke-linecap="round" stroke-linejoin="round"/>
<path d="M51.75 65H53.625" stroke="#5948A0" stroke-width="1.5" stroke-linecap="round" stroke-linejoin="round"/>
<path d="M28.4717 65.1815C28.5702 67.5207 30.2327 69.394 32.5686 69.5549C33.693 69.6324 35.0798 69.6875 36.75 69.6875C38.4202 69.6875 39.807 69.6324 40.9314 69.5549C43.2672 69.394 44.9298 67.5207 45.0283 65.1815C45.1131 63.1683 45.1875 60.3285 45.1875 56.5625C45.1875 52.7965 45.1131 49.9567 45.0283 47.9435C44.9298 45.6043 43.2672 43.731 40.9314 43.5701C39.807 43.4926 38.4202 43.4375 36.75 43.4375C35.0798 43.4375 33.693 43.4926 32.5686 43.5701C30.2327 43.731 28.5702 45.6043 28.4717 47.9435C28.3869 49.9567 28.3125 52.7965 28.3125 56.5625C28.3125 60.3285 28.3869 63.1683 28.4717 65.1815Z" stroke="#5948A0" stroke-width="1.5" stroke-linecap="round" stroke-linejoin="round"/>
<path d="M35.8125 65H37.6875" stroke="#5948A0" stroke-width="1.5" stroke-linecap="round" stroke-linejoin="round"/>
</svg>
