<svg width="100" height="100" viewBox="0 0 100 100" fill="none" xmlns="http://www.w3.org/2000/svg">
<circle cx="50" cy="50" r="50" fill="#F5F5F5"/>
<path fill-rule="evenodd" clip-rule="evenodd" d="M36.5994 63.6919C34.5462 63.525 32.975 61.9538 32.8081 59.9006C32.5972 57.3066 32.375 53.1675 32.375 47.25C32.375 41.3325 32.5972 37.1934 32.8081 34.5994C32.975 32.5462 34.5462 30.975 36.5994 30.8081C39.1934 30.5972 43.3325 30.375 49.25 30.375C55.1675 30.375 59.3066 30.5972 61.9006 30.8081C63.9538 30.975 65.525 32.5462 65.6919 34.5994C65.9028 37.1934 66.125 41.3325 66.125 47.25V47.6831C63.7484 46.1437 60.3087 46.7634 58.7881 49.5422L57.215 52.4203C56.5694 53.5997 55.5992 54.5693 54.4194 55.2141L51.5413 56.7891C48.7634 58.3078 48.1437 61.7484 49.6831 64.125H49.25C43.3325 64.125 39.1934 63.9028 36.5994 63.6919Z" fill="#A59ADE"/>
<path fill-rule="evenodd" clip-rule="evenodd" d="M55.6784 43.2328C55.6789 44.3148 55.4061 45.3795 54.8852 46.3279C54.3644 47.2764 53.6124 48.0779 52.699 48.6581C54.5677 49.3359 56.1883 50.5618 57.349 52.1756L57.2149 52.4193C56.5696 53.5994 55.5994 54.5696 54.4193 55.215L51.5412 56.7881C51.097 57.03 50.6903 57.335 50.3337 57.6937C49.9821 57.6956 49.6212 57.6965 49.2499 57.6965C46.0062 57.6965 43.5059 57.6065 41.6721 57.4978C41.6459 57.4961 41.6196 57.4942 41.5934 57.4921C40.1806 57.3862 39.4437 55.8703 39.9181 54.5353C40.8818 51.8221 43.0512 49.6593 45.8009 48.6581C44.8585 48.0589 44.0884 47.2246 43.5666 46.2373C43.0447 45.25 42.7891 44.1438 42.8248 43.0277C42.8605 41.9115 43.1864 40.8239 43.7703 39.872C44.3542 38.9201 45.176 38.1367 46.1547 37.599C47.1335 37.0613 48.2354 36.7879 49.352 36.8056C50.4686 36.8234 51.5613 37.1317 52.5225 37.7002C53.4837 38.2687 54.2802 39.0778 54.8336 40.0477C55.387 41.0177 55.6781 42.116 55.6784 43.2328Z" fill="white"/>
<path d="M62.4902 51.5661C62.571 51.4187 62.6899 51.2957 62.8346 51.21C62.9792 51.1243 63.1443 51.0791 63.3124 51.0791C63.4805 51.0791 63.6455 51.1243 63.7902 51.21C63.9348 51.2957 64.0538 51.4187 64.1346 51.5661L65.7096 54.4443C66.7419 56.3318 68.2939 57.8838 70.1815 58.9161L73.0586 60.4902C73.2061 60.571 73.3291 60.6899 73.4148 60.8346C73.5005 60.9792 73.5457 61.1443 73.5457 61.3124C73.5457 61.4805 73.5005 61.6455 73.4148 61.7902C73.3291 61.9348 73.2061 62.0538 73.0586 62.1346L70.1805 63.7096C68.293 64.7419 66.741 66.2939 65.7086 68.1815L64.1346 71.0586C64.0538 71.2061 63.9348 71.3291 63.7902 71.4148C63.6455 71.5005 63.4805 71.5457 63.3124 71.5457C63.1443 71.5457 62.9792 71.5005 62.8346 71.4148C62.6899 71.3291 62.571 71.2061 62.4902 71.0586L60.9152 68.1805C59.8828 66.293 58.3309 64.741 56.4433 63.7086L53.5661 62.1346C53.4187 62.0538 53.2957 61.9348 53.21 61.7902C53.1243 61.6455 53.0791 61.4805 53.0791 61.3124C53.0791 61.1443 53.1243 60.9792 53.21 60.8346C53.2957 60.6899 53.4187 60.571 53.5661 60.4902L56.4443 58.9152C58.3318 57.8828 59.8838 56.3309 60.9161 54.4433L62.4902 51.5661Z" fill="white"/>
<path d="M62.4902 51.5661C62.571 51.4187 62.6899 51.2957 62.8346 51.21C62.9792 51.1243 63.1443 51.0791 63.3124 51.0791C63.4805 51.0791 63.6455 51.1243 63.7902 51.21C63.9348 51.2957 64.0538 51.4187 64.1346 51.5661L65.7096 54.4443C66.7419 56.3318 68.2939 57.8838 70.1815 58.9161L73.0586 60.4902C73.2061 60.571 73.3291 60.6899 73.4148 60.8346C73.5005 60.9792 73.5457 61.1443 73.5457 61.3124C73.5457 61.4805 73.5005 61.6455 73.4148 61.7902C73.3291 61.9348 73.2061 62.0538 73.0586 62.1346L70.1805 63.7096C68.293 64.7419 66.741 66.2939 65.7086 68.1815L64.1346 71.0586C64.0538 71.2061 63.9348 71.3291 63.7902 71.4148C63.6455 71.5005 63.4805 71.5457 63.3124 71.5457C63.1443 71.5457 62.9792 71.5005 62.8346 71.4148C62.6899 71.3291 62.571 71.2061 62.4902 71.0586L60.9152 68.1805C59.8828 66.293 58.3309 64.741 56.4433 63.7086L53.5661 62.1346C53.4187 62.0538 53.2957 61.9348 53.21 61.7902C53.1243 61.6455 53.0791 61.4805 53.0791 61.3124C53.0791 61.1443 53.1243 60.9792 53.21 60.8346C53.2957 60.6899 53.4187 60.571 53.5661 60.4902L56.4443 58.9152C58.3318 57.8828 59.8838 56.3309 60.9161 54.4433L62.4902 51.5661Z" stroke="#5948A0" stroke-width="1.5" stroke-linecap="round" stroke-linejoin="round"/>
<path d="M66.125 46.7812C66.1128 41.1131 65.8972 37.125 65.6919 34.5994C65.525 32.5462 63.9538 30.975 61.9006 30.8081C59.3066 30.5972 55.1675 30.375 49.25 30.375C43.3325 30.375 39.1934 30.5972 36.5994 30.8081C34.5462 30.975 32.975 32.5462 32.8081 34.5994C32.5972 37.1934 32.375 41.3325 32.375 47.25C32.375 53.1675 32.5972 57.3066 32.8081 59.9006C32.975 61.9538 34.5462 63.525 36.5994 63.6919C39.125 63.8972 43.1131 64.1137 48.7812 64.125" stroke="#5948A0" stroke-width="1.5" stroke-linecap="round" stroke-linejoin="round"/>
<path d="M49.2499 57.6965C46.0062 57.6965 43.5059 57.6065 41.6721 57.4978C41.6459 57.4961 41.6196 57.4942 41.5934 57.4921C40.1806 57.3862 39.4437 55.8703 39.9181 54.5353C40.8818 51.8221 43.0512 49.6593 45.8009 48.6581C44.6265 47.9114 43.7262 46.8039 43.2351 45.5018C42.744 44.1997 42.6887 42.7734 43.0775 41.4372C43.4663 40.101 44.2782 38.927 45.3912 38.0917C46.5043 37.2564 47.8583 36.8048 49.2499 36.8048C50.6416 36.8048 51.9956 37.2564 53.1086 38.0917C54.2217 38.927 55.0336 40.101 55.4224 41.4372C55.8112 42.7734 55.7559 44.1997 55.2648 45.5018C54.7737 46.8039 53.8734 47.9114 52.699 48.6581C54.2596 49.2256 55.6526 50.1763 56.7499 51.4228" stroke="#5948A0" stroke-width="1.5" stroke-linecap="round" stroke-linejoin="round"/>
</svg>
