<svg width="100" height="100" viewBox="0 0 100 100" fill="none" xmlns="http://www.w3.org/2000/svg">
<circle cx="50" cy="50" r="50" fill="#F5F5F5"/>
<path d="M34.0903 37.857C34.0845 42.5545 39.166 45.4966 43.237 43.153C45.131 42.0626 46.2972 40.0425 46.2945 37.857C46.2887 33.1597 41.2001 30.2301 37.1349 32.5838C35.2529 33.6735 34.0931 35.6824 34.0903 37.857Z" fill="#A59ADE"/>
<path d="M55.2497 44.2765C55.8364 44.3102 56.3688 44.6323 56.4945 45.2058C56.6297 45.8217 56.7067 46.7783 56.4617 48.1189C56.3274 48.8521 55.7022 49.3787 54.9633 49.4802L47.2334 50.5306L45.5435 68.668C45.4309 69.8733 44.5578 70.8675 43.3563 71.0055C42.3269 71.1238 41.2915 71.1834 40.2554 71.1839C39.0697 71.1839 37.9995 71.105 37.1405 71.0102C35.8844 70.8703 34.9813 69.8133 34.9128 68.5506L34.3326 57.9264C33.5249 57.8847 32.718 57.8274 31.9124 57.7546C31.0047 57.6722 30.3213 56.8918 30.3597 55.9813C30.4695 52.442 30.9164 49.207 31.2881 47.0487C31.5678 45.4265 32.9422 44.2539 34.587 44.1741C41.1191 43.8568 48.5186 43.8897 55.2497 44.2765Z" fill="#A59ADE"/>
<path d="M51.9273 57.1012C59.4282 57.0853 64.4807 56.8825 67.4285 56.7125C69.3774 56.5999 70.9508 55.219 71.1762 53.2803C71.4136 51.2442 71.6417 48.1837 71.6417 43.9592C71.6417 39.7346 71.4136 36.6742 71.1762 34.637C70.9508 32.6994 69.3774 31.3185 67.4294 31.2058C64.3596 31.0283 59.0085 30.8162 50.9885 30.8162C50.3455 30.8162 49.7193 30.8171 49.111 30.8199" stroke="#5948A0" stroke-width="1.5" stroke-linecap="round" stroke-linejoin="round"/>
<path d="M40.1925 60.8574V71.1841" stroke="#5948A0" stroke-width="1.5" stroke-linecap="round" stroke-linejoin="round"/>
<path d="M34.0903 37.857C34.0845 42.5545 39.166 45.4966 43.237 43.153C45.131 42.0626 46.2972 40.0425 46.2945 37.857C46.2887 33.1597 41.2001 30.2301 37.1349 32.5838C35.2529 33.6735 34.0931 35.6824 34.0903 37.857Z" stroke="#5948A0" stroke-width="1.5" stroke-linecap="round" stroke-linejoin="round"/>
<path d="M55.2497 44.2765C55.8364 44.3102 56.3688 44.6323 56.4945 45.2058C56.6297 45.8217 56.7067 46.7783 56.4617 48.1189C56.3274 48.8521 55.7022 49.3787 54.9633 49.4802L47.2334 50.5306L45.5435 68.668C45.4309 69.8733 44.5578 70.8675 43.3563 71.0055C42.3269 71.1238 41.2915 71.1834 40.2554 71.1839C39.0697 71.1839 37.9995 71.105 37.1405 71.0102C35.8844 70.8703 34.9813 69.8133 34.9128 68.5506L34.3326 57.9264C33.5249 57.8847 32.718 57.8274 31.9124 57.7546C31.0047 57.6722 30.3213 56.8918 30.3597 55.9813C30.4695 52.442 30.9164 49.207 31.2881 47.0487C31.5678 45.4265 32.9422 44.2539 34.587 44.1741C41.1191 43.8568 48.5186 43.8897 55.2497 44.2765Z" stroke="#5948A0" stroke-width="1.5" stroke-linecap="round" stroke-linejoin="round"/>
</svg>
