<svg width="35" height="34" viewBox="0 0 35 34" fill="none" xmlns="http://www.w3.org/2000/svg">
<rect x="0.5" width="34" height="34" rx="4" fill="white"/>
<path fill-rule="evenodd" clip-rule="evenodd" d="M28.905 21.865C28.3611 20.7695 27.6444 19.7688 26.7825 18.9013C26.4892 18.5603 26.1453 18.2238 25.8768 17.9612L25.8393 17.9245C25.7008 17.7889 25.5864 17.6764 25.4928 17.5795C26.6713 15.9407 27.68 14.1859 28.503 12.3422L28.5362 12.2678L28.5595 12.1898C28.6676 11.8269 28.7922 11.1368 28.3515 10.5132C27.896 9.86859 27.1666 9.75234 26.6782 9.75234H24.4311C23.9627 9.73087 23.4988 9.85751 23.1058 10.115C22.7098 10.3744 22.4069 10.7528 22.2402 11.1951C21.7563 12.3478 21.1508 13.4442 20.4347 14.466V11.8327C20.4347 11.4923 20.4027 10.9229 20.0382 10.4423C19.6018 9.86685 18.9707 9.75234 18.5326 9.75234H14.9671C14.5077 9.74172 14.0609 9.90597 13.7176 10.2126C13.366 10.5266 13.1505 10.9652 13.1169 11.4354L13.1137 11.48V11.5246C13.1137 12.0101 13.3061 12.3682 13.4597 12.5934C13.5286 12.6943 13.6022 12.7861 13.6486 12.844L13.6594 12.8574C13.709 12.9192 13.742 12.9605 13.7753 13.0057C13.8626 13.1245 13.9882 13.3077 14.0238 13.7817V15.2547C13.4091 14.2442 12.7607 12.8996 12.2728 11.4634L12.2653 11.4414L12.257 11.4197C12.1353 11.101 11.9402 10.6374 11.5494 10.2827C11.0929 9.86821 10.5529 9.75234 10.0618 9.75234H7.78187C7.28506 9.75234 6.68613 9.86857 6.23924 10.34C5.79977 10.8036 5.75 11.3591 5.75 11.6544V11.7876L5.77804 11.9177C6.40954 14.8488 7.71076 17.5937 9.57946 19.9377C10.4267 21.2737 11.5747 22.3936 12.9321 23.2075C14.3112 24.0345 15.8671 24.5219 17.4715 24.6297L17.5133 24.6325H17.5553C18.2811 24.6325 19.0378 24.5699 19.6068 24.1907C20.3744 23.6792 20.4347 22.8936 20.4347 22.5021V21.3642C20.6317 21.5234 20.8761 21.7378 21.1753 22.0259C21.537 22.3879 21.825 22.7016 22.072 22.9754L22.2038 23.122L22.2046 23.1228C22.3964 23.3364 22.5852 23.5467 22.7571 23.7195C22.9732 23.9367 23.2396 24.1761 23.5745 24.3529C23.9371 24.5444 24.3177 24.631 24.722 24.631H27.0035C27.4841 24.631 28.1735 24.5173 28.6582 23.9554C29.1864 23.343 29.1461 22.5924 28.98 22.053L28.9501 21.956L28.905 21.865ZM23.1857 21.9706C22.9289 21.6859 22.6192 21.3484 22.2278 20.9571L22.2246 20.9539C20.8685 19.6464 20.2348 19.4186 19.7868 19.4186C19.5485 19.4186 19.2848 19.4454 19.1137 19.6585C19.0329 19.7591 18.9905 19.8805 18.9667 20.007C18.9429 20.1333 18.9347 20.2816 18.9347 20.4505V22.5021C18.9347 22.7569 18.8928 22.8639 18.775 22.9425C18.618 23.0471 18.2825 23.1319 17.5637 23.1325C16.1993 23.0395 14.8764 22.6244 13.7035 21.9211C12.5282 21.2164 11.5371 20.2425 10.8119 19.0797L10.804 19.0671L10.7946 19.0554C9.05337 16.8881 7.84003 14.3457 7.2503 11.6291C7.2535 11.4981 7.28187 11.4204 7.32784 11.372C7.37521 11.322 7.48999 11.2523 7.78187 11.2523H10.0618C10.3154 11.2523 10.4467 11.3075 10.5412 11.3933C10.6483 11.4905 10.7412 11.6556 10.854 11.9504C11.4136 13.5964 12.1704 15.1357 12.887 16.2675C13.2452 16.8332 13.5977 17.3041 13.9153 17.6368C14.0738 17.803 14.2293 17.9406 14.3777 18.0385C14.5213 18.1332 14.6841 18.2079 14.8516 18.2079C14.9399 18.2079 15.0433 18.1988 15.1428 18.1547C15.2498 18.1074 15.3329 18.0284 15.3916 17.9225C15.4954 17.7353 15.5238 17.458 15.5238 17.0947V13.731L15.5233 13.7231C15.4715 12.9048 15.2244 12.4444 14.9838 12.1172C14.9311 12.0455 14.8791 11.9807 14.8336 11.924L14.8211 11.9085C14.7712 11.8462 14.7314 11.7958 14.6988 11.7479C14.6389 11.6602 14.6157 11.5991 14.6138 11.5336C14.6216 11.4558 14.6583 11.3836 14.7167 11.3314C14.7774 11.2772 14.8569 11.249 14.9382 11.2523H18.5326C18.7387 11.2523 18.8081 11.3026 18.843 11.3487C18.8923 11.4137 18.9347 11.5489 18.9347 11.8327V16.3613C18.9347 16.8992 19.1827 17.2634 19.5428 17.2634C19.9572 17.2634 20.2559 17.012 20.7783 16.4896L20.787 16.4809L20.7948 16.4713C21.9656 15.0436 22.9225 13.453 23.6347 11.7494L23.6392 11.7367C23.6928 11.5861 23.7941 11.4573 23.9278 11.3697C24.0614 11.2821 24.22 11.2407 24.3794 11.2517L24.3881 11.2523H26.6782C26.9905 11.2523 27.0933 11.3318 27.1265 11.3788C27.1618 11.4289 27.1864 11.536 27.1264 11.7463C26.3053 13.5827 25.2899 15.3258 24.098 16.9464L24.0905 16.9578C23.9748 17.1348 23.8479 17.3306 23.8295 17.5554C23.8098 17.7968 23.9143 18.0163 24.097 18.2515C24.2302 18.4484 24.5049 18.7173 24.7836 18.9901L24.8099 19.0158C25.1021 19.3018 25.4186 19.6116 25.6727 19.9116L25.6795 19.9195L25.6869 19.9269C26.4444 20.6825 27.0743 21.556 27.552 22.5132C27.6283 22.7738 27.5816 22.907 27.5223 22.9757C27.453 23.0561 27.2976 23.131 27.0035 23.131H24.722C24.5438 23.131 24.4063 23.0959 24.2749 23.0265C24.138 22.9542 23.9972 22.8392 23.8206 22.6617C23.6784 22.5187 23.523 22.3457 23.3334 22.1348C23.2864 22.0825 23.2373 22.0277 23.1857 21.9706Z" fill="#5948A0"/>
</svg>
