<?xml version="1.0" standalone="no"?>
<!DOCTYPE svg PUBLIC "-//W3C//DTD SVG 1.1//EN" "http://www.w3.org/Graphics/SVG/1.1/DTD/svg11.dtd" >
<svg xmlns="http://www.w3.org/2000/svg">
<metadata>Generated by IcoMoon</metadata>
<defs>
<font id="icomoon" horiz-adv-x="1024">
<font-face units-per-em="1024" ascent="960" descent="-64" />
<missing-glyph horiz-adv-x="1024" />
<glyph unicode="&#x20;" horiz-adv-x="512" d="" />
<glyph unicode="&#xe900;" glyph-name="arrow-right" d="M283.051 936.619c-20.48-4.949-38.997-22.272-45.397-42.496-1.792-5.632-2.389-10.496-2.389-19.456 0-14.421 2.475-23.381 9.472-34.219 3.413-5.376 54.613-57.344 197.12-199.851l192.427-192.597-192.427-192.597c-142.592-142.677-193.707-194.475-197.12-199.851-6.997-10.837-9.472-19.797-9.472-34.219 0-19.883 5.973-33.451 20.651-46.933 12.032-11.179 26.368-16.725 42.752-16.725 15.787 0 28.501 4.693 41.557 15.36 4.011 3.328 103.424 102.229 220.843 219.733 158.464 158.549 214.784 215.552 218.197 221.013 6.997 10.837 9.472 19.797 9.472 34.219s-2.475 23.381-9.472 34.219c-3.413 5.461-59.733 62.464-218.197 221.013-117.419 117.504-216.832 216.405-220.843 219.733-8.96 7.339-16.981 11.435-26.453 13.739-8.789 2.048-22.016 2.048-30.72-0.085z" />
<glyph unicode="&#xe901;" glyph-name="arrow-left" d="M719.36 958.976c-14.848-2.487-25.527-7.973-39.058-20.114-4.827-4.315-106.789-105.911-226.45-225.719-142.263-142.482-218.917-219.867-221.477-223.671-9.435-14.19-12.361-24.064-12.361-41.472s2.926-27.282 12.361-41.472c2.56-3.803 79.214-81.189 221.477-223.671 119.662-119.808 221.623-221.403 226.45-225.719 14.702-13.166 25.088-18.139 42.569-20.407 14.994-1.975 31.963 1.39 44.617 8.777 8.265 4.754 22.821 19.31 27.575 27.575 9.362 16.018 11.849 37.522 6.583 56.393-2.267 8.192-4.462 12.8-10.021 21.138-2.56 3.803-71.899 73.874-199.534 201.582l-195.657 195.803 195.657 195.803c127.634 127.707 196.974 197.778 199.534 201.582 5.559 8.338 7.753 12.946 10.021 21.138 5.266 18.871 2.779 40.375-6.583 56.393-4.754 8.265-19.31 22.821-27.575 27.575-13.531 7.899-32.183 11.191-48.128 8.485z" />
<glyph unicode="&#xe902;" glyph-name="plus" d="M497.818 701.645c-17.346-5.46-30.568-19.274-35.094-36.604l-0.080-0.363c-1.178-5.478-1.843-37.018-1.843-86.989v-78.336l-83.2-0.512c-80.998-0.461-83.405-0.614-91.136-4.147-10.189-4.71-21.299-15.872-25.856-25.958-2.358-6.162-3.724-13.29-3.724-20.736s1.366-14.574 3.86-21.146l-0.136 0.41c4.557-10.086 15.667-21.248 25.856-25.958 7.731-3.533 10.138-3.686 91.085-4.147l83.098-0.512 0.512-83.098c0.461-80.947 0.614-83.354 4.147-91.085 4.71-10.189 15.872-21.299 25.958-25.856 11.008-4.966 30.464-4.966 41.472 0 10.086 4.557 21.248 15.667 25.958 25.856 3.533 7.731 3.686 10.138 4.147 91.085l0.512 83.098 83.098 0.512c80.947 0.461 83.354 0.614 91.085 4.147 10.189 4.71 21.299 15.872 25.856 25.958 2.358 6.162 3.724 13.29 3.724 20.736s-1.366 14.574-3.86 21.146l0.136-0.41c-5.753 11.234-14.65 20.165-25.528 25.804l-0.328 0.155c-7.731 3.533-10.138 3.686-91.085 4.147l-83.098 0.512-0.512 83.098c-0.461 80.947-0.614 83.354-4.147 91.085-5.698 11.016-14.422 19.789-25.073 25.394l-0.322 0.154c-6.471 2.621-13.977 4.141-21.838 4.141-4.84 0-9.545-0.576-14.051-1.664l0.407 0.083z" />
<glyph unicode="&#xe903;" glyph-name="dzen" d="M407.983 552.108c73.837 73.475 87.163 183.688 89.681 379.983-256.081-7.564-461.74-213.583-469.664-469.666 195.934 2.523 306.507 15.849 379.983 89.324v0.36zM526.48 932.091c2.523-195.934 15.849-306.507 89.321-379.983 73.477-73.477 183.692-87.161 379.983-89.321-7.201 255.721-213.22 461.74-469.304 469.303zM28 433.613c7.564-255.725 213.583-461.745 469.306-469.309-2.523 195.938-15.849 306.506-89.323 379.983s-183.688 86.803-379.983 89.325zM616.164 343.929c-73.477-73.477-87.161-183.687-89.325-379.983 255.725 7.564 461.745 213.583 469.309 469.304-195.938-2.518-306.511-15.844-379.983-89.321z" />
<glyph unicode="&#xe904;" glyph-name="plus-circle" d="M480.473 958.277c-74.515-4.617-143.397-24.597-204.876-56.789l2.797 1.334c-48.75-24.818-85.022-51.544-127.347-93.869-44.979-44.979-70.728-80.692-97.315-134.937-36.644-74.779-52.336-142.619-52.336-226.198s15.691-151.42 52.336-226.198c26.587-54.245 52.336-89.958 97.315-134.937 45.072-45.072 79.947-70.215 134.937-97.268 74.499-36.644 142.387-52.382 226.198-52.382s151.699 15.738 226.198 52.382c54.99 27.053 89.865 52.196 134.937 97.268s70.215 79.947 97.268 134.937c36.644 74.499 52.382 142.387 52.382 226.198s-15.738 151.699-52.382 226.198c-27.053 54.99-52.196 89.865-97.268 134.937-44.979 44.979-80.692 70.728-134.937 97.315-22.894 11.955-49.772 22.865-77.748 31.23l-3.316 0.851c-53.127 16.11-118.035 23.374-176.842 19.929zM573.132 862.779c184.991-27.425 328.495-172.745 355.035-359.459 4.004-27.984 4.004-83.16 0-111.004-13.41-93.264-54.058-175.073-119.757-240.725-65.652-65.699-147.462-106.348-240.725-119.757-27.844-4.004-83.020-4.004-111.004 0-175.725 25.004-315.504 153.422-354.197 325.515-10.337 45.957-12.479 105.742-5.448 151.094 14.248 91.913 54.058 170.929 118.826 235.697 70.774 70.774 159.056 111.982 261.12 121.946 22.629 2.188 70.122 0.559 96.151-3.306zM497.375 677.741c-10.808-4.306-19.549-11.89-25.201-21.507l-0.129-0.237-5.122-9.266-0.466-76.362-0.512-76.315-152.677-0.978-9.266-5.122c-14.239-7.691-23.751-22.506-23.751-39.543 0-0.209 0.001-0.417 0.004-0.625v0.032c0-17.135 8.661-31.802 23.747-40.136l9.266-5.122 152.677-0.978 0.512-76.315 0.466-76.362 5.122-9.266c8.335-15.086 22.815-23.653 40.416-23.886 19.277-0.233 38.74 14.667 44.048 33.711 1.071 3.818 1.769 34.875 1.769 79.295v72.963h72.963c44.42 0 75.477 0.698 79.295 1.769 19.090 5.308 33.851 24.631 33.851 44.327s-14.76 39.019-33.851 44.327c-3.818 1.071-34.828 1.769-79.202 1.769h-72.916l-0.512 76.408-0.466 76.408-5.122 9.266c-7.691 14.239-22.506 23.751-39.543 23.751-0.209 0-0.417-0.001-0.625-0.004h0.032c-5.168 0-11.827-0.885-14.807-2.002z" />
<glyph unicode="&#xe905;" glyph-name="minus" d="M327.595 487.671c-15.413-4.739-28.733-23.311-28.733-40.005 0-17.163 13.321-35.308 29.459-40.090 13.15-3.928 354.876-3.928 368.026 0 16.139 4.782 29.459 22.927 29.459 40.090s-13.321 35.308-29.459 40.090c-12.766 3.8-356.413 3.714-368.752-0.085z" />
<glyph unicode="&#xe906;" glyph-name="youtube" horiz-adv-x="1365" d="M1316.721 800.582c-6.472 53.402-50.674 95.96-106.414 99.755-351.607 24.939-703.496 24.939-1055.104 0-55.74-4.066-99.937-46.354-106.412-99.755-28.433-230.412-28.433-461.096 0-691.506 6.475-53.405 50.672-95.962 106.412-99.758 351.608-24.938 703.496-24.938 1055.104 0 55.74 4.069 99.942 46.353 106.414 99.758 28.433 230.41 28.433 461.094 0 691.506zM890.511 458.759l-317.263-174.843c-11.542-6.506-26.181 1.627-26.181 14.638v349.684c0 13.012 14.357 20.873 26.181 14.638l317.263-174.843c11.824-6.506 11.824-22.77 0-29.005v-0.271z" />
<glyph unicode="&#xe907;" glyph-name="vk" horiz-adv-x="1536" d="M831.821-12.8c-489.803 0-769.18 345.943-780.821 921.597h245.351c8.059-422.515 188.938-601.482 332.208-638.384v638.384h231.025v-364.396c141.478 15.683 290.118 181.737 340.269 364.396h231.021c-38.502-225.096-199.686-391.15-314.298-459.416 114.611-55.351 298.182-200.19 368.026-462.18h-254.304c-54.624 175.277-190.733 310.886-370.714 329.338v-329.338h-27.763z" />
<glyph unicode="&#xe908;" glyph-name="search" d="M457.145 886.857c-212.078 0-384.002-171.923-384.002-384.002s171.923-384.003 384.002-384.003c105.948 0 201.805 42.866 271.323 112.276 69.672 69.558 112.68 165.596 112.68 271.727 0 212.078-171.924 384.002-384.003 384.002zM0 502.855c0 252.491 204.654 457.145 457.145 457.145 252.493 0 457.145-204.654 457.145-457.145 0-113.155-41.142-216.761-109.238-296.559l208.202-207.838c14.296-14.262 14.336-37.45 0.074-51.712-14.262-14.296-37.45-14.336-51.712-0.074l-208.316 207.912c-79.758-67.88-183.188-108.874-296.155-108.874-252.491 0-457.145 204.652-457.145 457.145z" />
<glyph unicode="&#xe909;" glyph-name="message" horiz-adv-x="1317" d="M1119.086 960h-921.6c-52.376 0-102.608-21.673-139.643-60.252s-57.842-90.903-57.842-145.462v-612.571c0-54.557 20.807-106.884 57.842-145.459 37.036-38.583 87.267-60.255 139.643-60.255h921.6c52.378 0 102.605 21.672 139.644 60.255 37.032 38.576 57.841 90.902 57.841 145.459v612.571c0 54.559-20.809 106.883-57.841 145.462-37.040 38.579-87.267 60.252-139.644 60.252zM1092.096 822.857l-387.072-403.2c-6.12-6.427-13.401-11.528-21.422-15.010s-16.626-5.274-25.316-5.274c-8.69 0-17.295 1.792-25.316 5.274s-15.302 8.583-21.422 15.010l-387.072 403.2h867.621zM1184.914 141.714c0-18.183-6.934-35.628-19.28-48.486s-29.089-20.085-46.548-20.085h-921.6c-17.459 0-34.202 7.227-46.548 20.085s-19.28 30.303-19.28 48.486v584.458l387.072-403.201c37.029-38.523 87.223-60.161 139.557-60.161s102.524 21.639 139.557 60.161l387.072 403.201v-584.458z" />
<glyph unicode="&#xe90a;" glyph-name="link" d="M406.113 158.72l-91.326-88.656c-23.947-23.922-56.427-37.365-90.294-37.365s-66.347 13.443-90.294 37.365c-23.947 23.922-37.401 56.371-37.401 90.203s13.454 66.281 37.401 90.203l234.249 234.532c22.992 23.043 53.971 36.376 86.528 37.239s64.201-10.808 88.384-32.601l6.192-5.154c9.784-9.57 22.972-14.864 36.665-14.719s26.766 5.718 36.346 15.493c9.574 9.774 14.876 22.95 14.729 36.628-0.142 13.678-5.723 26.739-15.502 36.308-2.913 3.761-6.013 7.374-9.29 10.824-44.046 38.282-101.009 58.408-159.353 56.303s-113.706-26.286-154.871-67.643l-237.344-234.529c-40.33-43.856-62.142-101.581-60.88-161.115 1.262-59.54 25.499-116.292 67.651-158.401s98.959-66.321 158.557-67.584c59.599-1.257 117.38 20.531 161.278 60.82l89.262 87.108c8.814 9.609 13.658 22.192 13.56 35.22-0.098 13.033-5.133 25.543-14.091 35.009-8.958 9.472-21.174 15.206-34.19 16.043s-25.867-3.282-35.966-11.531zM957.679 892.723c-43.401 43.092-102.11 67.277-163.3 67.277-61.195 0-119.899-24.186-163.305-67.277l-89.262-87.111c-8.813-9.606-13.658-22.19-13.56-35.219s5.134-25.539 14.091-35.010c8.958-9.471 21.173-15.202 34.191-16.039 13.016-0.837 25.867 3.282 35.965 11.528l89.264 88.657c23.945 23.923 56.422 37.363 90.294 37.363 33.866 0 66.344-13.44 90.294-37.363 23.945-23.923 37.399-56.371 37.399-90.204s-13.454-66.28-37.399-90.204l-234.251-234.53c-22.994-23.044-53.97-36.379-86.528-37.238-32.557-0.865-64.2 10.803-88.384 32.598l-6.191 5.155c-9.784 9.569-22.973 14.864-36.665 14.719s-26.766-5.718-36.345-15.492c-9.579-9.775-14.879-22.951-14.734-36.627 0.145-13.682 5.724-26.738 15.508-36.306 3.748-3.834 7.71-7.447 11.867-10.826 44.099-38.167 101.038-58.22 159.346-56.115s113.648 26.209 154.875 67.453l234.769 234.531c43.406 43.088 67.988 101.583 68.375 162.715s-23.45 119.933-66.315 163.565z" />
<glyph unicode="&#xe90b;" glyph-name="filter" horiz-adv-x="1260" d="M1102.769 908.8c0 28.277-23.513 51.2-52.515 51.2s-52.508-22.923-52.508-51.2v-460.8c0-28.277 23.505-51.2 52.508-51.2s52.515 22.923 52.515 51.2v460.8zM420.102 652.8c0 28.277 23.511 51.2 52.513 51.2h105.025v204.8c0 28.277 23.511 51.2 52.513 51.2s52.513-22.923 52.513-51.2v-204.8h105.025c29.003 0 52.515-22.923 52.515-51.2s-23.513-51.2-52.515-51.2h-315.077c-29.002 0-52.513 22.923-52.513 51.2zM682.667 448c0 28.277-23.511 51.2-52.513 51.2s-52.513-22.923-52.513-51.2v-460.8c0-28.278 23.511-51.2 52.513-51.2s52.513 22.922 52.513 51.2v460.8zM0 345.6c0 28.277 23.511 51.2 52.513 51.2h315.077c29.002 0 52.512-22.923 52.512-51.2s-23.51-51.2-52.512-51.2h-105.026v-307.2c0-28.278-23.51-51.2-52.512-51.2s-52.513 22.922-52.513 51.2v307.2h-105.026c-29.002 0-52.513 22.923-52.513 51.2zM840.208 243.2c0 28.277 23.505 51.2 52.508 51.2h315.077c29.003 0 52.515-22.923 52.515-51.2s-23.513-51.2-52.515-51.2h-105.023v-204.8c0-28.278-23.513-51.2-52.515-51.2s-52.508 22.922-52.508 51.2v204.8h-105.031c-29.003 0-52.508 22.923-52.508 51.2zM262.564 908.8c0 28.277-23.51 51.2-52.512 51.2s-52.513-22.923-52.513-51.2v-358.4c0-28.277 23.511-51.2 52.513-51.2s52.512 22.923 52.512 51.2v358.4z" />
<glyph unicode="&#xe90c;" glyph-name="gear" d="M511.524 259.758c-98.499 0-178.439 84.403-178.439 188.402s79.94 188.403 178.439 188.403c98.498 0 178.437-84.404 178.437-188.403s-79.939-188.402-178.437-188.402zM511.524 561.202c-59.004 0-107.063-50.743-107.063-113.041s48.059-113.041 107.063-113.041c59.002 0 107.064 50.744 107.064 113.041 0 62.299-48.061 113.041-107.064 113.041zM664.269-63.795c-9.994 0-19.988 1.505-29.978 4.019-29.501 8.54-54.246 28.134-69.949 55.767l-5.709 10.051c-28.073 51.246-66.618 51.246-94.692 0l-5.234-9.549c-15.703-28.134-40.446-48.23-69.948-56.269-29.978-8.54-60.907-4.019-87.078 12.559l-81.844 49.741c-29.026 17.582-49.963 46.218-59.004 80.886-8.565 34.668-4.282 70.339 12.372 100.982 13.799 25.626 17.606 48.737 9.517 63.304-8.089 14.572-28.55 23.112-56.624 23.112-69.472 0-126.097 59.786-126.097 133.14v88.422c0 73.352 56.625 133.138 126.097 133.138 28.074 0 48.535 8.541 56.624 23.111s4.759 37.681-9.517 63.304c-16.654 30.647-20.937 66.82-12.372 100.984 8.565 34.666 29.502 63.303 59.004 80.887l82.32 49.738c53.769 33.661 124.669 14.067 157.026-43.71l5.71-10.048c28.074-51.246 66.615-51.246 94.693 0l5.233 9.546c32.358 58.279 103.255 77.873 157.501 43.71l81.843-49.738c29.025-17.584 49.966-46.221 59.003-80.888 8.566-34.666 4.285-70.337-12.37-100.984-13.798-25.623-17.608-48.733-9.518-63.303s28.549-23.111 56.627-23.111c69.473 0 126.095-59.787 126.095-133.138v-88.422c0-73.354-56.622-133.14-126.095-133.14-28.078 0-48.538-8.54-56.627-23.112-8.090-14.566-4.756-37.678 9.518-63.304 16.655-30.643 21.412-66.816 12.37-100.982-8.566-34.668-29.501-63.304-59.003-80.886l-82.319-49.741c-18.079-10.552-37.591-16.077-57.574-16.077zM511.524 122.097c42.347 0 81.843-28.134 108.968-77.875l5.233-9.544c5.709-10.552 15.227-18.089 26.644-21.1 11.423-3.016 22.84-1.51 32.358 4.521l82.319 50.237c12.37 7.537 21.888 20.096 25.697 35.169 3.804 15.073 1.9 30.648-5.238 43.709-27.121 49.239-30.454 99.978-9.513 138.665 20.936 38.687 64.236 60.79 118.482 60.79 30.454 0 54.723 25.626 54.723 57.779v88.423c0 31.652-24.269 57.777-54.723 57.777-54.246 0-97.546 22.106-118.482 60.791-20.941 38.685-17.608 89.428 9.513 138.664 7.137 13.063 9.042 28.637 5.238 43.709-3.809 15.072-12.851 27.13-25.221 35.168l-82.319 49.738c-20.46 13.063-47.585 5.527-59.955-16.579l-5.233-9.546c-27.126-49.739-66.621-77.873-108.968-77.873-42.35 0-81.844 28.134-108.966 77.873l-5.234 10.048c-11.896 21.101-38.543 28.637-59.004 16.077l-82.319-50.241c-12.372-7.536-21.889-20.097-25.695-35.169s-1.904-30.647 5.234-43.709c27.123-49.236 30.453-99.979 9.517-138.664s-64.238-60.791-118.483-60.791c-30.454 0-54.722-25.623-54.722-57.777v-88.422c0-31.652 24.268-57.779 54.722-57.779 54.245 0 97.546-22.103 118.483-60.79s17.606-89.431-9.517-138.665c-7.138-13.061-9.041-28.636-5.234-43.709s12.848-27.131 25.219-35.169l82.32-49.736c9.993-6.533 21.889-8.038 32.833-5.028 11.42 3.016 20.937 11.054 27.123 21.606l5.234 9.544c27.123 49.239 66.617 77.875 108.967 77.875z" />
<glyph unicode="&#xe90d;" glyph-name="mouse" horiz-adv-x="870" d="M435.2-64c-240.019 0-435.2 176.225-435.2 392.929v238.14c0 216.707 195.181 392.93 435.2 392.93 240.020 0 435.2-176.223 435.2-392.93v-238.14c0-216.704-195.18-392.929-435.2-392.929zM435.2 888.558c-196.236 0-356.073-144.312-356.073-321.488v-238.14c0-177.172 159.837-321.49 356.073-321.49 196.234 0 356.070 144.317 356.070 321.49v238.14c0 177.176-159.836 321.488-356.070 321.488zM435.2 459.907c-65.412 0-118.691 48.104-118.691 107.163v95.256c0 59.058 53.279 107.163 118.691 107.163s118.692-48.104 118.692-107.163v-95.256c0-59.059-53.28-107.163-118.692-107.163zM435.2 698.046c-21.628 0-39.564-16.194-39.564-35.721v-95.256c0-19.527 17.936-35.721 39.564-35.721s39.564 16.194 39.564 35.721v95.256c0 19.527-17.936 35.721-39.564 35.721zM435.2 698.046c-21.628 0-39.564 16.194-39.564 35.721v190.511c0 19.527 17.936 35.721 39.564 35.721s39.564-16.193 39.564-35.721v-190.511c0-19.528-17.936-35.721-39.564-35.721z" />
<glyph unicode="&#xe90e;" glyph-name="burger" horiz-adv-x="1138" d="M76.329 837.923c-24.625 0-44.773 27.467-44.773 61.038s20.148 61.038 44.773 61.038h985.019c24.627 0 44.777-27.467 44.777-61.038s-20.15-61.038-44.777-61.038h-985.019zM76.329-16.617c-24.625 0-44.773 27.466-44.773 61.036s20.148 61.042 44.773 61.042h985.019c24.627 0 44.777-27.472 44.777-61.042s-20.15-61.036-44.777-61.036h-985.019zM371.33 410.659c-22.732 0-41.33 27.468-41.33 61.038s18.598 61.038 41.33 61.038h454.623c22.733 0 41.33-27.467 41.33-61.038s-18.597-61.038-41.33-61.038h-454.623z" />
<glyph unicode="&#xe90f;" glyph-name="trail" horiz-adv-x="975" d="M192.404 516.89c-32.151 0-64.754 11.794-89.659 35.834-83.32 79.38-116.829 166.017-97.358 250.841 23.094 99.792 110.489 144.245 187.017 144.245s164.376-44.906 187.018-144.245c19.471-84.823-14.491-171.461-97.358-250.841-24.905-24.041-57.056-35.834-89.659-35.834zM71.5 788.143c-17.208-75.751 33.056-142.884 78.339-185.976 24-23.133 61.584-22.68 85.584 0 45.283 43.092 95.547 110.225 77.886 186.429-15.396 67.133-74.716 91.174-120.452 91.174-46.188 0-105.509-24.041-121.358-91.627zM194.22 723.28c-24.906 0-45.283 20.412-45.283 45.36s19.924 45.36 45.283 45.36h0.453c24.906 0 45.283-20.412 45.283-45.36s-20.377-45.36-45.735-45.36zM781.97-27.429c-32.149 0-64.751 11.796-90.112 35.835-83.773 79.38-117.736 166.015-97.812 251.294 23.094 99.338 110.943 144.243 187.924 144.243s164.83-44.905 187.924-144.243c19.471-84.826-14.492-171.915-98.265-250.841-24.903-24.493-57.056-36.289-89.659-36.289zM781.97 335.453c-46.187 0-105.96-24.044-121.807-91.628-17.662-75.752 33.056-143.336 78.336-186.431 24.001-23.133 62.040-23.133 86.489 0 45.285 43.096 96.002 110.226 78.341 185.978-14.946 68.037-74.718 92.082-121.359 92.082zM783.779 178.961c-24.908 0-45.285 20.412-45.285 45.358 0 24.951 19.924 45.363 45.285 45.363h0.453c24.903 0 45.28-20.412 45.28-45.363 0-24.947-20.831-45.358-45.734-45.358zM488.092 108.651h-121.36c-52.528 0-98.263 31.754-116.376 80.74-18.566 48.991-4.981 102.966 34.415 137.894l361.807 317.066c21.738 19.051 22.192 44.906 15.852 62.597-6.793 17.69-24.001 36.742-52.985 36.742h-121.354c-18.568 0-33.964 15.422-33.964 34.020s15.396 34.020 33.964 34.020h121.354c52.531 0 98.265-31.752 116.38-80.74 18.564-48.989 4.979-102.967-34.416-137.894l-361.809-317.064c-21.736-19.051-22.188-44.91-15.849-62.601 6.792-17.691 24-36.742 52.98-36.742h121.36c18.564 0 33.958-15.419 33.958-34.016s-15.394-34.021-33.958-34.021z" />
<glyph unicode="&#xe910;" glyph-name="statistic" horiz-adv-x="975" d="M937.73-27.429h-900.221c-20.505 0-37.509 15.423-37.509 34.021s17.004 34.016 37.509 34.016h900.221c20.504 0 37.508-15.419 37.508-34.016s-17.003-34.021-37.508-34.021zM167.54 108.656h-80.018c-48.012 0-87.521 35.835-87.521 79.38v391.003c0 43.545 39.51 79.38 87.521 79.38h80.018c48.012 0 87.521-35.835 87.521-79.38v-391.003c0-43.544-39.509-79.38-87.521-79.38zM87.521 590.833c-7.002 0-12.503-4.99-12.503-11.34v-391.457c0-6.349 5.501-11.337 12.503-11.337h80.018c7.002 0 12.503 4.988 12.503 11.337v391.003c0 6.35-5.501 11.34-12.503 11.34h-80.018v0.454zM527.589 108.656h-80.019c-48.012 0-87.522 35.83-87.522 79.38v535.699c0 43.545 39.51 79.38 87.522 79.38h80.019c48.011 0 87.523-35.834 87.523-79.38v-535.699c0-43.549-39.512-79.38-87.523-79.38zM447.57 735.074c-7.002 0-12.503-4.989-12.503-11.34v-535.699c0-6.354 5.501-11.342 12.503-11.342h80.019c7.002 0 12.503 4.988 12.503 11.342v535.699c0 6.35-5.5 11.34-12.503 11.34h-80.019zM887.637 108.651h-80.018c-48.011 0-87.523 35.835-87.523 79.38v680.399c0 43.546 39.512 79.38 87.523 79.38h80.018c48.011 0 87.523-35.834 87.523-79.38v-680.399c0-43.544-39.512-79.38-87.523-79.38zM807.619 879.77c-7.002 0-12.503-4.989-12.503-11.34v-680.399c0-6.349 5.5-11.342 12.503-11.342h80.018c7.002 0 12.503 4.993 12.503 11.342v680.399c0 6.351-5.5 11.34-12.503 11.34h-80.018z" />
<glyph unicode="&#xe911;" glyph-name="console" horiz-adv-x="975" d="M255.782 290.089c-12.701 0-24.495 6.802-30.391 18.598-8.618 16.784-1.814 37.196 15.422 45.812 39.463 19.505 73.029 49.445 97.070 85.733 8.165 12.244 8.165 27.668 0 39.916-24.495 36.288-58.061 66.225-97.070 85.73-17.237 8.165-24.041 28.577-15.422 45.813 8.165 16.783 28.577 23.588 45.36 14.969 49.896-24.948 92.534-62.597 123.379-108.864 23.133-34.927 23.133-80.285 0-115.213-30.845-46.27-73.483-83.914-123.379-108.866-4.536-2.267-9.979-3.628-14.968-3.628zM714.42 290.089h-181.443c-18.598 0-34.016 15.423-34.016 34.021s15.419 34.021 34.016 34.021h181.443c18.598 0 34.016-15.423 34.016-34.021s-15.419-34.021-34.016-34.021zM623.699-27.429h-272.16c-246.304 0-351.539 105.233-351.539 351.539v272.16c0 246.304 105.235 351.539 351.539 351.539h272.16c246.306 0 351.539-105.235 351.539-351.539v-272.16c0-246.306-105.233-351.539-351.539-351.539zM351.539 879.77c-209.109 0-283.499-74.39-283.499-283.499v-272.16c0-209.111 74.39-283.502 283.499-283.502h272.16c209.111 0 283.502 74.391 283.502 283.502v272.16c0 209.109-74.391 283.499-283.502 283.499h-272.16z" />
<glyph unicode="&#xe912;" glyph-name="user-plus" d="M406.975 881.231c-98.036 0-175.043-76.278-175.043-167.385s77.007-167.385 175.043-167.385c98.036 0 175.041 76.278 175.041 167.385s-77.005 167.385-175.041 167.385zM153.163 713.846c0 137.285 114.998 246.154 253.812 246.154 138.817 0 253.812-108.869 253.812-246.154s-114.995-246.154-253.812-246.154c-138.814 0-253.812 108.869-253.812 246.154zM879.59 592.41c21.75 0 39.383-17.633 39.383-39.385v-65.641h65.644c21.75 0 39.383-17.633 39.383-39.385 0-21.75-17.633-39.383-39.383-39.383h-65.644v-65.644c0-21.75-17.633-39.383-39.383-39.383s-39.383 17.633-39.383 39.383v65.644h-65.644c-21.75 0-39.383 17.633-39.383 39.383s17.633 39.385 39.383 39.385h65.644v65.641c0 21.752 17.633 39.385 39.383 39.385zM546.985 292.122c-92.756 15.293-187.265 15.293-280.019 0l-10.912-1.802c-101.204-16.681-177.286-107.392-177.286-215.762 0-34.237 26.545-59.786 56.615-59.786h543.179c30.070 0 56.617 25.549 56.617 59.786 0 108.37-76.083 199.081-177.285 215.762v0l-10.911 1.802zM559.795 369.843v0l10.911-1.802c141.061-23.255 243.241-148.419 243.241-293.484 0-75.305-59.418-138.557-135.383-138.557h-543.179c-75.967 0-135.385 63.252-135.385 138.557 0 145.065 102.181 270.228 243.241 293.484l10.911 1.802c101.239 16.686 204.405 16.686 305.643 0z" />
<glyph unicode="&#xe913;" glyph-name="fork" horiz-adv-x="975" d="M487.619-27.546c-18.598 0-34.020 15.423-34.020 34.021v90.731c0 18.598 15.422 34.021 34.020 34.021s34.021-15.423 34.021-34.021v-90.731c0-18.598-15.423-34.021-34.021-34.021zM487.619 153.912c-18.598 0-34.020 15.423-34.020 34.026v90.726c0 18.603 15.422 34.026 34.020 34.026s34.021-15.423 34.021-34.026v-90.726c0-18.603-15.423-34.026-34.021-34.026zM487.619 335.375c-18.598 0-34.020 15.423-34.020 34.021v136.096c0 193.709 157.851 351.579 351.538 351.579h136.080c18.598 0 34.021-15.424 34.021-34.024s-15.423-34.024-34.021-34.024h-136.080c-156.492 0-283.497-127.022-283.497-283.532v-136.096c0-18.598-15.423-34.021-34.021-34.021zM487.619 335.375c-18.598 0-34.020 15.423-34.020 34.021v136.096c0 156.51-127.008 283.532-283.5 283.532h-136.080c-18.598 0-34.020 15.424-34.020 34.024s15.422 34.024 34.020 34.024h136.080c193.687 0 351.541-157.87 351.541-351.579v-136.096c0-18.598-15.423-34.021-34.021-34.021zM124.805 698.296c-8.618 0-17.238 3.175-24.042 9.98l-90.72 90.73c-13.154 13.156-13.154 34.931 0 48.087l90.72 90.73c13.154 13.156 34.93 13.156 48.085 0s13.154-34.931 0-48.087l-66.681-66.686 66.681-66.687c13.154-13.156 13.154-34.931 0-48.087-6.804-6.805-15.424-9.98-24.043-9.98zM850.564 698.296c-8.616 0-17.237 3.175-24.044 9.98-13.151 13.156-13.151 34.931 0 48.087l66.682 66.687-66.682 66.686c-13.151 13.156-13.151 34.931 0 48.087 13.156 13.156 34.933 13.156 48.084 0l90.722-90.73c13.156-13.155 13.156-34.931 0-48.087l-90.722-90.73c-6.802-6.805-15.423-9.98-24.040-9.98z" />
<glyph unicode="&#xe914;" glyph-name="house" horiz-adv-x="975" d="M487.721 139.844c-18.593 0-34.013 15.687-34.013 34.606v138.43c0 18.92 15.42 34.606 34.013 34.606 18.598 0 34.016-15.687 34.016-34.606v-138.43c0-18.92-15.419-34.606-34.016-34.606zM741.742-35.962h-507.953c-82.543 0-157.829 64.6-171.435 147.193l-60.32 367.763c-9.978 57.218 17.688 130.585 62.587 167.039l314.297 256.095c60.773 49.834 156.468 49.373 217.693-0.462l314.3-255.633c44.446-36.453 71.656-109.821 62.586-167.039l-60.318-367.3c-13.605-81.671-90.707-147.656-171.437-147.656zM487.312 869.828c-24.037 0-48.074-7.383-65.762-21.687l-314.297-256.556c-25.398-20.765-43.539-68.753-38.097-101.515l60.319-367.301c8.164-48.45 55.785-89.517 104.312-89.517h507.953c48.528 0 96.149 41.067 104.316 89.98l60.318 367.299c4.988 32.3-13.151 81.212-38.098 101.515l-314.295 255.634c-18.144 14.766-42.633 22.149-66.672 22.149z" />
<glyph unicode="&#xe915;" glyph-name="user" horiz-adv-x="960" d="M479.999 467.443c-114.634 0-207.564 92.852-207.564 207.392s92.93 207.393 207.564 207.393c114.635 0 207.566-92.852 207.566-207.393s-92.931-207.392-207.566-207.392zM479.999 389.671c157.623 0 285.403 127.672 285.403 285.164s-127.78 285.165-285.403 285.165c-157.622 0-285.401-127.672-285.401-285.165s127.779-285.164 285.401-285.164zM31.548 324.156c21.104 4.071 41.516-9.724 45.59-30.812 14.602-75.571 61.628-146.163 135.158-198.118 73.623-52.019 168.245-81.28 266.972-81.453s193.512 28.755 267.42 80.525c73.818 51.712 121.216 122.157 136.211 197.69 4.179 21.062 24.666 34.755 45.747 30.577s34.784-24.644 30.605-45.707c-19.379-97.6-79.776-184.518-167.878-246.24-88.019-61.658-198.718-94.816-312.241-94.618s-224.060 33.747-311.777 95.725c-87.809 62.048-147.768 149.197-166.642 246.88-4.074 21.088 9.731 41.48 30.835 45.551z" />
<glyph unicode="&#xe916;" glyph-name="location" horiz-adv-x="719" d="M359.489 955.064c-198.49 0-359.489-158.296-359.489-353.451 0-265.087 359.489-656.41 359.489-656.41s359.489 391.323 359.489 656.41c0 195.155-160.999 353.451-359.489 353.451zM359.489 475.38c-70.872 0-128.39 56.553-128.39 126.233s57.518 126.233 128.39 126.233c70.872 0 128.39-56.553 128.39-126.233s-57.518-126.233-128.39-126.233z" />
<glyph unicode="&#xe917;" glyph-name="play-video" horiz-adv-x="910" d="M853.333 546.483c75.85-43.793 75.85-153.276 0-197.072l-682.66-394.132c-75.852-43.793-170.667 10.951-170.667 98.537v788.266c0 87.586 94.815 142.327 170.667 98.534l682.66-394.134z" />
<glyph unicode="&#xe918;" glyph-name="network" d="M512-34.753c-282.433 0-512 221.679-512 494.412 0 272.73 229.567 494.411 512 494.411 282.436 0 512-221.68 512-494.411 0-272.733-229.564-494.412-512-494.412zM512 885.082c-242.902 0-440.558-190.866-440.558-425.423 0-234.555 197.656-425.423 440.558-425.423 242.904 0 440.559 190.868 440.559 425.423 0 234.557-197.655 425.423-440.559 425.423zM369.116 11.241h-47.628c-19.527 0-35.721 15.639-35.721 34.492 0 18.859 15.241 34.037 34.768 34.492-74.776 246.517-74.776 512.35 0 758.865-19.528 0.46-34.768 15.638-34.768 34.494s16.193 34.494 35.721 34.494h47.628c11.431 0 22.385-5.519 29.053-14.257 6.668-9.198 8.573-20.697 4.763-31.275-89.54-259.853-89.54-545.919 0-806.232 3.81-10.581 1.905-22.079-4.763-31.278-6.668-8.277-17.622-13.796-29.053-13.796zM654.888 11.241c-3.812 0-7.623 0.461-11.435 1.843-18.574 5.979-29.053 25.754-22.386 43.691 89.543 259.851 89.543 545.921 0 806.234-6.19 17.936 3.812 37.713 22.386 43.692 19.052 5.979 39.054-3.679 45.249-21.616 94.777-274.11 94.777-575.814 0-849.467-4.762-15.178-19.052-24.377-33.815-24.377zM512 220.501c-132.882 0-265.288 17.937-392.93 54.266-0.476-18.392-16.193-33.57-35.721-33.57s-35.721 15.639-35.721 34.492v45.995c0 11.036 5.715 21.612 14.764 28.052 9.526 6.44 21.433 8.277 32.387 4.602 269.098-86.465 565.82-86.465 834.916 0 10.957 3.675 22.864 1.838 32.387-4.602 9.529-6.44 14.768-17.015 14.768-28.052v-45.995c0-18.853-16.196-34.492-35.721-34.492-19.53 0-35.248 14.717-35.726 33.57-128.114-36.329-260.523-54.266-393.404-54.266zM940.652 563.135c-3.812 0-7.617 0.46-11.429 1.84-269.102 86.464-565.821 86.464-834.918 0-19.052-5.979-39.055 3.68-45.247 21.616-5.715 18.397 4.287 37.713 22.861 43.692 283.862 91.523 596.303 91.523 879.689 0 18.574-5.978 29.053-25.755 22.386-43.692-4.289-14.257-18.58-23.456-33.343-23.456z" />
<glyph unicode="&#xe919;" glyph-name="cross" d="M132.402-6.526c-20.651-20.821-58.89-16.343-84.974 9.967-26.085 26.303-30.531 64.867-9.881 85.688l826.027 833.002c20.651 20.825 58.887 16.341 84.978-9.964 26.085-26.306 30.529-64.867 9.878-85.691l-826.028-833.002zM65.625 806.864c-20.651 20.825-16.204 59.386 9.88 85.691s64.324 30.789 84.974 9.964l826.028-833.004c20.651-20.821 16.207-59.385-9.878-85.688s-64.328-30.788-84.978-9.967l-826.026 833.004z" />
<glyph unicode="&#xe91a;" glyph-name="alert-circle" d="M471.040 893.995c-107.136-11.051-201.472-55.339-275.584-129.451-67.669-67.669-111.573-154.496-126.379-249.984-3.797-24.448-5.205-84.523-2.603-110.251 15.829-154.667 109.44-290.261 246.699-357.333 65.152-31.829 126.72-46.123 198.827-46.123 71.893 0 133.845 14.379 198.827 46.123 121.728 59.477 211.84 176.085 239.616 310.101 11.648 56.149 11.648 125.696 0 181.845-27.776 134.016-117.888 250.624-239.616 310.101-66.475 32.469-127.915 46.464-201.387 45.867-17.835-0.171-35.115-0.555-38.4-0.896zM536.277 852.48c103.637-6.613 194.816-48.768 266.837-123.264 40.789-42.197 70.016-88.661 90.24-143.403 31.488-85.461 31.488-190.165 0-275.627-8.192-22.187-23.509-53.888-35.669-73.813-29.141-47.829-74.709-95.019-122.112-126.507-20.821-13.824-61.824-34.475-85.76-43.264-86.101-31.488-190.208-31.445-275.627 0.043-54.741 20.224-101.205 49.451-143.403 90.24-62.165 60.075-101.888 133.632-117.333 217.387-21.504 116.267 9.259 237.141 83.669 328.917 16.555 20.395 50.645 53.333 70.997 68.565 62.933 47.232 139.221 75.733 215.68 80.64 11.307 0.683 21.675 1.408 23.083 1.536s14.635-0.512 29.397-1.451zM498.048 658.645c-11.136-3.413-22.741-15.275-26.112-26.752-3.883-12.971-3.883-184.149 0-197.12 4.779-16.128 22.912-29.44 40.064-29.44 10.112 0 21.931 5.12 29.739 12.928 13.013 13.056 12.928 12.203 12.928 115.072s0.085 102.016-12.928 115.072c-11.904 11.904-26.88 15.403-43.691 10.24zM498.048 317.312c-15.403-4.736-28.715-23.296-28.715-39.979 0-22.059 20.608-42.667 42.667-42.667 2.475 0 8.277 1.109 12.928 2.517 39.296 11.733 39.296 68.565 0 80.299-10.283 3.072-16.469 3.029-26.88-0.171z" />
<glyph unicode="&#xe91b;" glyph-name="minus-circle" d="M481.28 915.499c-94.379-5.845-187.819-42.069-262.784-101.803-20.864-16.64-55.552-51.328-72.192-72.192-41.6-52.224-74.069-118.272-89.771-182.827-17.195-70.4-17.195-150.955 0-221.355 15.701-64.555 48.171-130.603 89.771-182.827 16.64-20.864 51.328-55.552 72.192-72.192 52.224-41.6 118.272-74.069 182.827-89.771 53.76-13.141 120.917-16.427 176.384-8.704 149.035 20.779 281.045 114.389 350.080 248.235 36.096 70.016 52.139 136.491 52.139 215.936s-16.043 145.92-52.139 215.936c-22.784 44.203-48.683 79.488-84.523 115.285-38.699 38.656-74.539 64.299-123.904 88.619-59.776 29.483-113.536 43.691-180.821 47.829-28.117 1.707-26.709 1.749-57.259-0.171zM558.165 829.568c86.784-10.837 163.456-48.341 225.28-110.123 73.301-73.301 112.555-167.979 112.555-271.445s-39.253-198.144-112.555-271.445c-73.301-73.301-167.979-112.555-271.445-112.555s-198.144 39.253-271.445 112.555c-62.336 62.336-101.205 142.805-110.72 229.12-2.347 21.291-2.347 63.36 0 84.651 13.099 118.997 82.901 226.773 187.093 288.811 43.563 25.941 100.779 45.312 150.699 50.987 20.992 2.347 69.419 2.091 90.539-0.555zM332.8 489.088c-19.755-4.053-32.939-20.48-32.939-41.088 0-16.981 7.893-29.781 23.509-38.144l6.869-3.669h363.52l6.869 3.669c15.616 8.363 23.509 21.163 23.509 38.144s-7.893 29.781-23.509 38.144l-6.869 3.669-177.493 0.256c-97.621 0.128-180.181-0.299-183.467-0.981z" />
<glyph unicode="&#xe91c;" glyph-name="arrow-up-right" d="M298.667 597.334h323.669l-353.835-353.835c-16.683-16.683-16.683-43.691 0-60.331s43.691-16.683 60.331 0l353.835 353.835v-323.669c0-23.552 19.115-42.667 42.667-42.667s42.667 19.115 42.667 42.667v426.667c0 5.803-1.152 11.307-3.243 16.341s-5.163 9.728-9.216 13.781c-0.043 0.043-0.043 0.043-0.085 0.085-3.925 3.925-8.619 7.083-13.781 9.216-5.035 2.091-10.539 3.243-16.341 3.243h-426.667c-23.552 0-42.667-19.115-42.667-42.667s19.115-42.667 42.667-42.667z" />
<glyph unicode="&#xe91d;" glyph-name="check" d="M998.214 951.647c25.684-16.072 33.494-49.947 17.436-75.661l-586.95-939.985-414.433 456.293c-20.38 22.438-18.728 57.163 3.69 77.562s57.112 18.744 77.491-3.694l316.99-349.007 510.179 817.032c16.055 25.715 49.903 33.532 75.596 17.46z" />
<glyph unicode="&#xe91e;" glyph-name="back-arrow" horiz-adv-x="1280" d="M865.523-64h-576.664c-29.554 0-54.062 24.659-54.062 54.4s24.508 54.4 54.062 54.4h576.664c168.672 0 306.355 138.541 306.355 308.266 0 169.728-137.683 308.266-306.355 308.266h-792.912c-29.554 0-54.063 24.661-54.063 54.4s24.508 54.4 54.063 54.4h792.912c228.506 0 414.477-187.136 414.477-417.066s-185.971-417.066-414.477-417.066zM238.414 480.012c-13.695 0-27.391 5.077-38.204 15.957l-184.533 185.685c-20.904 21.035-20.904 55.851 0 76.885l184.533 185.685c20.904 21.035 55.503 21.035 76.408 0s20.904-55.85 0-76.885l-146.328-147.242 146.328-147.242c20.904-21.035 20.904-55.851 0-76.886-10.092-10.88-24.508-15.957-38.204-15.957z" />
<glyph unicode="&#xe91f;" glyph-name="back" horiz-adv-x="975" d="M641.712-50.834h-6.183c-211.248 0-313.066 83.090-330.67 269.214-1.903 19.466 12.37 37.030 32.354 38.932 19.031 1.897 37.111-12.82 39.014-32.285 13.798-149.090 84.214-204.639 259.78-204.639h6.183c193.643 0 262.159 68.369 262.159 261.612v309.57c0 193.243-68.515 261.614-262.159 261.614h-6.183c-176.518 0-246.934-56.501-259.78-208.437-2.379-19.467-19.031-34.186-39.014-32.286-19.983 1.424-34.257 18.992-32.829 38.459 16.177 188.97 118.47 273.485 331.146 273.485h6.183c233.613 0 333.527-99.708 333.527-332.835v-309.57c0-233.126-99.913-332.834-333.527-332.834zM630.296 401.174h-541.444c-19.507 0-35.684 16.145-35.684 35.611s16.177 35.61 35.684 35.61h541.444c19.505 0 35.679-16.144 35.679-35.61s-16.174-35.611-35.679-35.611zM194.953 242.117c-9.040 0-18.080 3.321-25.217 10.445l-159.388 159.056c-13.798 13.77-13.798 36.562 0 50.327l159.388 159.060c13.798 13.769 36.635 13.769 50.433 0s13.798-36.56 0-50.329l-134.171-133.892 134.171-133.895c13.798-13.77 13.798-36.557 0-50.327-6.661-7.124-16.177-10.445-25.216-10.445z" />
<glyph unicode="&#xe920;" glyph-name="calendar" d="M341.338 714.662c-17.494 0-32 14.507-32 32v128c0 17.494 14.506 32 32 32s32-14.506 32-32v-128c0-17.493-14.507-32-32-32zM682.665 714.662c-17.495 0-32 14.507-32 32v128c0 17.494 14.505 32 32 32 17.49 0 32-14.506 32-32v-128c0-17.493-14.51-32-32-32zM362.666 341.33c-5.546 0-11.093 1.28-16.213 3.41-5.547 2.135-9.814 5.12-14.080 8.96-7.68 8.11-12.374 18.775-12.374 30.295 0 5.545 1.28 11.095 3.414 16.215s5.12 9.81 8.96 14.080c4.266 3.84 8.533 6.825 14.080 8.96 15.36 6.4 34.56 2.985 46.506-8.96 7.68-8.11 12.374-19.2 12.374-30.295 0-2.56-0.427-5.545-0.854-8.535-0.426-2.56-1.28-5.12-2.56-7.68-0.854-2.56-2.134-5.12-3.84-7.68-1.28-2.13-3.414-4.265-5.12-6.4-8.106-7.68-19.2-12.37-30.294-12.37zM512.005 341.34c-5.548 0-11.095 1.28-16.215 3.41-5.546 2.135-9.813 5.12-14.079 8.96-7.68 8.11-12.374 18.775-12.374 30.295 0 5.545 1.28 11.095 3.414 16.215s5.12 9.81 8.96 14.080c4.266 3.84 8.533 6.825 14.079 8.96 15.36 6.825 34.559 2.985 46.504-8.96 7.68-8.11 12.375-19.2 12.375-30.295 0-2.56-0.425-5.545-0.855-8.535-0.425-2.56-1.28-5.12-2.56-7.68-0.85-2.56-2.13-5.12-3.84-7.68-1.28-2.13-3.41-4.265-5.12-6.4-8.105-7.68-19.2-12.37-30.29-12.37zM661.33 341.34c-5.545 0-11.095 1.28-16.215 3.41-5.545 2.135-9.81 5.12-14.080 8.96-1.705 2.135-3.41 4.27-5.12 6.4-1.705 2.56-2.985 5.12-3.84 7.68-1.28 2.56-2.13 5.12-2.56 7.68-0.425 2.99-0.85 5.975-0.85 8.535 0 11.095 4.69 22.185 12.37 30.295 4.27 3.84 8.535 6.825 14.080 8.96 15.79 6.825 34.56 2.985 46.51-8.96 7.68-8.11 12.37-19.2 12.37-30.295 0-2.56-0.425-5.545-0.85-8.535-0.43-2.56-1.28-5.12-2.56-7.68-0.855-2.56-2.135-5.12-3.84-7.68-1.28-2.13-3.415-4.265-5.12-6.4-8.11-7.68-19.2-12.37-30.295-12.37zM362.666 192c-5.546 0-11.093 1.28-16.213 3.415-5.12 2.13-9.814 5.12-14.080 8.96-7.68 8.105-12.374 19.2-12.374 30.29 0 5.55 1.28 11.095 3.414 16.215 2.133 5.545 5.12 10.24 8.96 14.080 15.786 15.785 44.8 15.785 60.586 0 7.68-8.105 12.374-19.2 12.374-30.295 0-11.090-4.694-22.185-12.374-30.29-8.106-7.68-19.2-12.375-30.294-12.375zM512.005 192c-11.095 0-22.188 4.695-30.294 12.375-7.68 8.105-12.374 19.2-12.374 30.29 0 5.55 1.28 11.095 3.414 16.215 2.133 5.545 5.12 10.24 8.96 14.080 15.786 15.785 44.799 15.785 60.584 0 3.84-3.84 6.83-8.535 8.96-14.080 2.135-5.12 3.415-10.665 3.415-16.215 0-11.090-4.695-22.185-12.375-30.29-8.105-7.68-19.2-12.375-30.29-12.375zM661.33 192.005c-11.095 0-22.185 4.69-30.295 12.37-3.84 3.84-6.825 8.535-8.96 14.080-2.13 5.12-3.41 10.67-3.41 16.215s1.28 11.095 3.41 16.215c2.135 5.545 5.12 10.24 8.96 14.080 9.815 9.81 24.75 14.505 38.4 11.52 2.99-0.43 5.55-1.28 8.11-2.56 2.56-0.855 5.12-2.135 7.68-3.84 2.13-1.28 4.265-3.415 6.4-5.12 7.68-8.11 12.37-19.2 12.37-30.295s-4.69-22.185-12.37-30.295c-8.11-7.68-19.2-12.37-30.295-12.37zM874.67 540.163h-725.332c-17.494 0-32 14.506-32 32s14.506 32 32 32h725.332c17.495 0 32-14.506 32-32s-14.505-32-32-32zM682.665-10.67h-341.331c-155.734 0-245.334 89.6-245.334 245.335v362.664c0 155.733 89.6 245.333 245.334 245.333h341.331c155.735 0 245.335-89.6 245.335-245.333v-362.664c0-155.735-89.6-245.335-245.335-245.335zM341.334 778.662c-122.027 0-181.334-59.306-181.334-181.333v-362.664c0-122.030 59.306-181.335 181.334-181.335h341.331c122.030 0 181.335 59.305 181.335 181.335v362.664c0 122.026-59.305 181.333-181.335 181.333h-341.331z" />
<glyph unicode="&#xe921;" glyph-name="school-hat" horiz-adv-x="970" d="M956.249 719.17l-457.338 238.18c-7.424 3.532-15.343 3.532-22.768 0l-462.78-245.246c-8.414-4.541-13.364-13.12-13.364-22.203s4.95-18.166 13.364-22.204l137.597-73.17v-269.468c0-7.567 2.97-14.632 8.909-19.176 54.939-47.433 170.758-126.151 331.122-126.151 2.97 0 6.434 0 9.404 0 64.841 1.008 121.76 15.64 170.265 34.816v-35.323c0 0 0.496-3.53 0.986-5.045-17.818-9.087-30.192-27.249-30.192-48.953 0-9.081 2.97-17.661 6.931-25.228-14.352-11.102-27.222-26.743-37.613-46.932-21.283-41.375-13.862-82.755-9.9-98.401 2.97-11.102 12.87-18.669 23.757-18.669l158.882 1.008c11.878 0 22.269 8.58 24.253 20.69 3.956 20.69 6.43 61.057-17.327 100.923-12.865 21.197-28.209 36.336-45.040 46.425 2.474 6.559 3.961 13.123 3.961 20.184 0 21.703-12.374 39.866-30.192 48.953 0 1.514 0.986 3.53 0.986 5.045v58.034c44.549 23.212 79.193 48.947 102.459 68.624 5.443 4.543 8.909 11.609 8.909 19.176v282.588l125.219 68.123c8.418 4.542 13.366 13.12 13.366 22.708s-5.443 18.166-13.366 22.204l-0.49-1.514zM699.861 124.222c0-5.045-8.909-5.045-8.909 0 0 2.522 1.978 4.543 4.457 4.543 2.474 0 4.452-2.021 4.452-4.543zM760.74-13.538h-114.828c-0.496 11.609 0.992 27.249 8.909 42.388 5.939 11.609 22.275 37.845 45.040 38.858 0 0 0.496 0 0.992 0 21.779 0 39.101-23.212 47.514-36.837 9.405-15.646 12.374-31.793 12.374-44.409zM499.406 229.182c-139.577-3.023-245.001 62.577-298.951 106.981v231.621l270.243-143.817c3.465-2.018 7.425-3.028 11.384-3.028s7.919 1.009 11.384 3.028l177.194 95.878v-252.312c-47.519-21.191-104.933-37.338-171.254-38.351zM782.023 336.163c-15.84-13.118-37.123-28.257-61.871-42.889v253.317l61.871 33.305v-243.732zM719.166 603.107c-1.487 7.57-5.443 14.634-12.374 18.671l-204.416 107.484c-11.879 6.56-27.222 1.514-33.162-11.102-6.434-12.616-1.485-27.754 10.889-33.809l191.054-100.419v-7.065l-188.579-102.438-404.375 214.968 409.82 216.986 403.882-209.922-172.242-93.355h-0.496z" />
<glyph unicode="&#xe922;" glyph-name="invalid" horiz-adv-x="922" d="M895.933-12.262h-127.334l-134.38 276.618c-4.029 8.709-13.087 14.341-22.651 14.341h-260.708l1.007 245.373c0 0 3.020-1.025 4.53-1.025h260.205c14.090 0 25.165 11.27 25.165 25.613s-11.075 25.613-25.165 25.613h-260.205c0 0-2.516-0.512-4.026-1.025v102.451c0 0 0 2.049 0 3.586 66.436 10.757 117.772 68.642 117.772 139.334 0 77.863-62.409 141.383-138.91 141.383s-138.91-63.52-138.91-141.383c0-68.13 47.814-125.503 111.229-138.822 0-1.537-1.007-2.561-1.007-3.586l-1.51-423.635c0-6.661 2.516-13.317 7.549-17.93 4.53-4.608 11.073-7.685 17.615-7.685h270.271l134.38-276.618c4.029-8.704 13.087-14.341 22.651-14.341h142.935c14.090 0 25.165 11.269 25.165 25.615 0 14.341-11.075 25.61-25.165 25.61l-0.502 0.512zM242.148 819.129c0 49.689 39.76 90.157 88.58 90.157s88.581-40.468 88.581-90.157c0-49.689-39.761-90.157-88.581-90.157s-88.58 40.468-88.58 90.157zM535.572 82.504c-25.67-27.658-98.145-92.718-206.857-94.766-24.662 0-155.519 3.072-232.523 114.744-76.501 111.16-35.735 235.638-30.702 249.472 34.225 97.327 111.229 143.43 142.937 158.797 12.582 6.147 17.616 21.515 12.079 34.321-6.040 12.806-21.138 17.929-33.721 12.294-37.244-17.929-127.838-72.228-168.605-187.488-6.040-16.389-54.356-163.922 36.741-296.596 88.077-128.061 233.53-136.771 270.774-136.771 1.51 0 3.020 0 4.026 0 128.341 2.56 212.394 78.377 242.592 111.16 9.559 10.245 9.057 26.639-1.009 36.367-10.066 9.733-26.173 9.221-35.732-1.024v-0.512z" />
<glyph unicode="&#xe923;" glyph-name="society" d="M822.858 886.857c-70.696 0-128-57.308-128-128 0-13.897 2.196-27.247 6.252-39.681 16.714-51.31 64.95-88.319 121.748-88.319 70.69 0 128 57.307 128 128s-57.31 128-128 128zM621.716 758.857c0 111.104 90.038 201.143 201.142 201.143s201.142-90.039 201.142-201.143c0-111.104-90.038-201.143-201.142-201.143-74.422 0-139.338 40.41-174.154 100.424l-256.658-128.547c14.263-43.484 13.312-91.138-2.67-134.036l278.164-130.596c36.864 44.726 92.746 73.324 155.318 73.324 111.104 0 201.142-90.038 201.142-201.142s-90.038-201.142-201.142-201.142c-111.104 0-201.142 90.038-201.142 201.142 0 22.238 3.618 43.668 10.314 63.71l-280.615 131.726c-36.791-41.324-90.478-67.436-150.273-67.436-111.104 0-201.143 90.038-201.143 201.144 0 111.104 90.039 201.143 201.143 201.143 62.757 0 118.748-28.745 155.612-73.692l267.374 133.888c-1.57 10.204-2.412 20.627-2.412 31.233zM201.143 594.286c-70.692 0-128-57.308-128-128s57.308-128.002 128-128.002c45.459 0 85.431 23.666 108.179 59.539 24.832 39.168 26.221 90.66 3.51 131.071-21.98 39.095-63.78 65.391-111.689 65.391zM822.858 265.142c-47.542 0-89.088-25.89-111.178-64.546-10.718-18.654-16.822-40.306-16.822-63.454 0-70.69 57.304-128 128-128 70.69 0 128 57.31 128 128 0 70.696-57.31 128-128 128z" />
</font>
</defs>
</svg>
