<svg width="35" height="34" viewBox="0 0 35 34" fill="none" xmlns="http://www.w3.org/2000/svg">
<rect x="0.5" width="34" height="34" rx="4" fill="white"/>
<path fill-rule="evenodd" clip-rule="evenodd" d="M11.2875 19.0196C11.3313 19.0344 11.3755 19.0448 11.4196 19.0512C11.4678 19.1644 11.53 19.3107 11.6025 19.4818C11.7796 19.8994 12.0182 20.4643 12.2645 21.0535C12.7667 22.2552 13.2733 23.4939 13.3852 23.8485C13.5237 24.2868 13.6701 24.5848 13.83 24.7883C13.9126 24.8935 14.0082 24.9853 14.12 25.0549C14.1763 25.0899 14.2358 25.1186 14.2979 25.14C14.3006 25.141 14.3033 25.1419 14.3061 25.1428C14.6261 25.2636 14.9179 25.2133 15.1005 25.1518C15.1983 25.1188 15.2774 25.0791 15.3334 25.0469C15.362 25.0304 15.3861 25.0151 15.4054 25.0021L15.4099 24.9991L18.2361 23.2366L21.5007 25.7394C21.5488 25.7763 21.6014 25.8073 21.657 25.8316C22.0492 26.0027 22.429 26.0624 22.7862 26.0136C23.1429 25.9649 23.426 25.8151 23.6368 25.6464C23.8432 25.4813 23.9832 25.2963 24.0703 25.1589C24.1148 25.0887 24.1482 25.0266 24.1718 24.9791C24.1836 24.9552 24.1931 24.9346 24.2005 24.9181L24.2099 24.8963L24.2135 24.8877L24.215 24.8841L24.2156 24.8824L24.2163 24.8808C24.2334 24.8379 24.2466 24.7935 24.2556 24.7482L27.2358 9.72274C27.2453 9.67469 27.2501 9.62581 27.2501 9.57682C27.2501 9.13681 27.0843 8.71841 26.6945 8.46452C26.3613 8.24752 25.9901 8.23818 25.7556 8.25598C25.5025 8.27519 25.2688 8.33766 25.112 8.38757C25.0304 8.41355 24.9619 8.43861 24.9126 8.45773C24.8878 8.46734 24.8675 8.47559 24.8523 8.48188L24.841 8.48666L8.12725 15.0432L8.12509 15.044C8.11444 15.0479 8.10076 15.053 8.08451 15.0593C8.05215 15.0719 8.00878 15.0896 7.95813 15.1126C7.85935 15.1574 7.72077 15.2273 7.57856 15.3247C7.35137 15.4803 6.82888 15.9064 6.91686 16.6097C6.98705 17.1708 7.37143 17.5154 7.60562 17.6811C7.73421 17.7721 7.85638 17.8371 7.94535 17.8795C7.98662 17.8991 8.07232 17.9339 8.1095 17.9491L8.11889 17.9529L11.2875 19.0196ZM25.4259 9.86786L25.4236 9.86888C25.4152 9.8725 25.4069 9.87596 25.3984 9.87928L8.6644 16.4438C8.65566 16.4472 8.64686 16.4505 8.638 16.4536L8.62869 16.4571C8.61798 16.4613 8.59996 16.4686 8.57734 16.4788C8.56451 16.4846 8.55112 16.491 8.53747 16.4978C8.55622 16.5084 8.57417 16.5175 8.59012 16.5251C8.60543 16.5324 8.61711 16.5374 8.6235 16.54L11.7661 17.598C11.8236 17.6174 11.8773 17.643 11.9265 17.674L22.3033 11.5995L22.313 11.5937C22.3205 11.5893 22.3305 11.5835 22.3424 11.5768C22.366 11.5635 22.3984 11.5457 22.437 11.526C22.509 11.4894 22.6243 11.435 22.7541 11.3949C22.8444 11.3669 23.1109 11.2882 23.399 11.3806C23.5768 11.4377 23.7609 11.5603 23.8807 11.768C23.9401 11.8712 23.9718 11.9748 23.9872 12.0697C24.028 12.2192 24.0215 12.3668 23.9896 12.4942C23.9208 12.7687 23.728 12.9829 23.5525 13.1466C23.4021 13.2871 21.4567 15.1629 19.5376 17.0147C18.5805 17.9381 17.6333 18.8525 16.9252 19.5359L16.4602 19.9849L22.3321 24.4867C22.4668 24.5349 22.5464 24.5325 22.5832 24.5274C22.6271 24.5214 22.663 24.5045 22.6997 24.4752C22.7407 24.4424 22.7766 24.398 22.8034 24.3557L22.8045 24.354L25.695 9.78102C25.6521 9.79133 25.6087 9.80361 25.5669 9.81691C25.5196 9.83198 25.4805 9.84634 25.4547 9.85637C25.4418 9.86134 25.4326 9.86511 25.4276 9.86719L25.4259 9.86786ZM16.9646 22.2618L15.7931 21.3636L15.5093 23.1693L16.9646 22.2618ZM14.7185 19.5814L15.8834 18.4567C16.5915 17.7732 17.5389 16.8588 18.4961 15.9352L19.4686 14.997L12.9485 18.8138L12.9835 18.8963C13.1612 19.3154 13.4009 19.8827 13.6484 20.4751C13.8336 20.918 14.0272 21.3844 14.2035 21.8162L14.4865 20.0158C14.5138 19.8422 14.5986 19.692 14.7185 19.5814Z" fill="#5948A0"/>
</svg>
