<svg width="100" height="100" viewBox="0 0 100 100" fill="none" xmlns="http://www.w3.org/2000/svg">
<circle cx="50" cy="50" r="50" fill="#F5F5F5"/>
<path d="M41.27 62.6905C41.4603 63.9186 41.6581 65.0361 41.8231 65.9192C42.0575 67.1614 42.9406 68.1589 44.1903 68.3473C45.171 68.4964 46.5331 68.6248 48.3125 68.6248C50.0047 68.6248 51.395 68.5086 52.4535 68.3698C53.9385 68.1748 54.9791 66.9392 55.1403 65.4505L55.4413 62.6736C55.3589 62.6912 55.2757 62.7043 55.1919 62.713C53.886 62.8498 51.6838 62.9998 48.3125 62.9998C44.9413 62.9998 42.7391 62.8498 41.4331 62.713C41.3785 62.7074 41.3241 62.6998 41.27 62.6905Z" fill="white"/>
<path d="M41.27 62.6905C41.4603 63.9186 41.6581 65.0361 41.8231 65.9192C42.0575 67.1614 42.9406 68.1589 44.1903 68.3473C45.171 68.4964 46.5331 68.6248 48.3125 68.6248C50.0047 68.6248 51.395 68.5086 52.4535 68.3698C53.9385 68.1748 54.9791 66.9392 55.1403 65.4505L55.4413 62.6736" stroke="#5948A0" stroke-width="1.5" stroke-linecap="round" stroke-linejoin="round"/>
<path fill-rule="evenodd" clip-rule="evenodd" d="M55.6625 31.0425L54.3547 31.7578C50.7781 33.7134 50.7781 38.8491 54.3547 40.8047L57.7691 42.6722C58.0049 42.8012 58.1988 42.9951 58.3278 43.2309L60.1944 46.6453C60.5534 47.3134 61.0575 47.8926 61.6695 48.3405C62.2816 48.7884 62.9862 49.0936 63.7316 49.2337C62.846 52.6015 60.8826 55.5868 58.1413 57.7341C57.867 58.8296 57.5632 59.9175 57.23 60.9966C56.9431 61.9322 56.1659 62.6119 55.1919 62.7141C53.8859 62.85 51.6838 63 48.3125 63C44.9413 63 42.7391 62.85 41.4331 62.7141C40.4591 62.6119 39.6819 61.9322 39.3941 60.9956C39.0616 59.9168 38.7583 58.8293 38.4847 57.7341C36.5795 56.2448 35.039 54.3408 33.9803 52.1667C32.9216 49.9926 32.3726 47.6057 32.375 45.1875C32.375 36.3853 39.5103 29.25 48.3125 29.25C50.9638 29.25 53.4631 29.8969 55.6625 31.0425Z" fill="#A59ADE"/>
<path d="M63.8965 27.9411C63.9772 27.7937 64.0962 27.6707 64.2408 27.585C64.3855 27.4993 64.5505 27.4541 64.7186 27.4541C64.8868 27.4541 65.0518 27.4993 65.1964 27.585C65.3411 27.6707 65.46 27.7937 65.5408 27.9411L67.4083 31.3555C67.9245 32.2993 68.7005 33.0753 69.6443 33.5915L73.0586 35.459C73.2061 35.5397 73.3291 35.6587 73.4148 35.8033C73.5005 35.948 73.5457 36.113 73.5457 36.2811C73.5457 36.4493 73.5005 36.6143 73.4148 36.759C73.3291 36.9036 73.2061 37.0225 73.0586 37.1033L69.6443 38.9708C68.7005 39.487 67.9245 40.263 67.4083 41.2068L65.5408 44.6211C65.46 44.7686 65.3411 44.8916 65.1964 44.9773C65.0518 45.063 64.8868 45.1082 64.7186 45.1082C64.5505 45.1082 64.3855 45.063 64.2408 44.9773C64.0962 44.8916 63.9772 44.7686 63.8965 44.6211L62.029 41.2068C61.5128 40.263 60.7368 39.487 59.793 38.9708L56.3786 37.1033C56.2312 37.0225 56.1082 36.9036 56.0225 36.759C55.9368 36.6143 55.8916 36.4493 55.8916 36.2811C55.8916 36.113 55.9368 35.948 56.0225 35.8033C56.1082 35.6587 56.2312 35.5397 56.3786 35.459L59.793 33.5915C60.7368 33.0753 61.5128 32.2993 62.029 31.3555L63.8965 27.9411Z" fill="white"/>
<path d="M63.8965 27.9411C63.9772 27.7937 64.0962 27.6707 64.2408 27.585C64.3855 27.4993 64.5505 27.4541 64.7186 27.4541C64.8868 27.4541 65.0518 27.4993 65.1964 27.585C65.3411 27.6707 65.46 27.7937 65.5408 27.9411L67.4083 31.3555C67.9245 32.2993 68.7005 33.0753 69.6443 33.5915L73.0586 35.459C73.2061 35.5397 73.3291 35.6587 73.4148 35.8033C73.5005 35.948 73.5457 36.113 73.5457 36.2811C73.5457 36.4493 73.5005 36.6143 73.4148 36.759C73.3291 36.9036 73.2061 37.0225 73.0586 37.1033L69.6443 38.9708C68.7005 39.487 67.9245 40.263 67.4083 41.2068L65.5408 44.6211C65.46 44.7686 65.3411 44.8916 65.1964 44.9773C65.0518 45.063 64.8868 45.1082 64.7186 45.1082C64.5505 45.1082 64.3855 45.063 64.2408 44.9773C64.0962 44.8916 63.9772 44.7686 63.8965 44.6211L62.029 41.2068C61.5128 40.263 60.7368 39.487 59.793 38.9708L56.3786 37.1033C56.2312 37.0225 56.1082 36.9036 56.0225 36.759C55.9368 36.6143 55.8916 36.4493 55.8916 36.2811C55.8916 36.113 55.9368 35.948 56.0225 35.8033C56.1082 35.6587 56.2312 35.5397 56.3786 35.459L59.793 33.5915C60.7368 33.0753 61.5128 32.2993 62.029 31.3555L63.8965 27.9411Z" stroke="#5948A0" stroke-width="1.5"/>
<path d="M54.4062 30.4566C52.4742 29.6574 50.4033 29.2474 48.3125 29.25C39.5103 29.25 32.375 36.3853 32.375 45.1875C32.375 50.281 34.7647 54.8166 38.4837 57.7341C38.7577 58.8296 39.0612 59.9175 39.3941 60.9966C39.6819 61.9322 40.4591 62.6119 41.4331 62.7141C42.7391 62.85 44.9413 63 48.3125 63C51.6837 63 53.8859 62.85 55.1919 62.7141C56.1659 62.6119 56.9431 61.9322 57.23 60.9956C57.4991 60.121 57.8394 58.9519 58.1413 57.7341C60.5075 55.8795 62.3025 53.395 63.32 50.566" stroke="#5948A0" stroke-width="1.5" stroke-linecap="round" stroke-linejoin="round"/>
</svg>
