<svg width="100" height="100" viewBox="0 0 100 100" fill="none" xmlns="http://www.w3.org/2000/svg">
<circle cx="50" cy="50" r="50" fill="#F5F5F5"/>
<path d="M62.0037 34.2757C58.3091 30.6532 55.7506 29.6332 54.9538 29.3838C53.3655 29.3351 51.7765 29.3113 50.1875 29.3125C44.315 29.3125 40.2819 29.6125 37.7675 29.9004C35.7041 30.1366 34.1581 31.6844 33.9313 33.7488C33.6313 36.4582 33.3125 41.006 33.3125 48.0625C33.3125 55.1191 33.6322 59.6669 33.9313 62.3763C34.1581 64.4407 35.7041 65.9885 37.7675 66.2247C39.7962 66.4563 42.8141 66.6972 46.9897 66.7816C46.8491 64.3469 46.9081 62.6069 47.0037 61.4679C47.1622 59.5741 48.0669 58.0366 49.1431 56.9613L60.7119 45.3925C62.1584 43.946 64.4881 42.6972 66.9969 42.775C66.9809 42.1704 66.9631 41.5919 66.9425 41.0379C66.6134 40.1191 65.4903 37.6938 62.0037 34.2757Z" fill="#A59ADE"/>
<path d="M54.9556 29.3848C55.7544 29.636 58.3119 30.6579 62.0019 34.2757C65.4894 37.6938 66.6115 40.1201 66.9406 41.0388L66.9556 41.4607C64.999 41.7523 61.4797 41.5282 58.8087 41.2817C57.7907 41.1908 56.8366 40.7461 56.1123 40.0249C55.388 39.3037 54.9393 38.3515 54.844 37.3338C54.5928 34.707 54.3697 31.272 54.6753 29.3763L54.9556 29.3848Z" fill="white"/>
<path d="M71.436 56.1176C72.7991 54.7554 73.3204 52.7642 72.1804 51.2098C71.6768 50.5292 71.122 49.888 70.521 49.2917C69.8272 48.5979 69.1804 48.056 68.6019 47.6323C67.0485 46.4923 65.0572 47.0135 63.6941 48.3757L52.1254 59.9445C51.6163 60.4545 51.2675 61.1004 51.2075 61.8195C51.126 62.7954 51.066 64.4539 51.2235 66.9082C51.2515 67.3448 51.4376 67.7563 51.747 68.0657C52.0564 68.375 52.4678 68.5611 52.9044 68.5892C55.3579 68.7467 57.0172 68.6867 57.9932 68.6042C58.7113 68.5442 59.3582 68.1964 59.8682 67.6854L71.436 56.1176Z" fill="white"/>
<path d="M68.9376 58.6169C68.9347 58.6038 68.4847 56.6323 65.8326 53.9801C63.1719 51.3194 61.1957 50.876 61.1957 50.876L63.6941 48.3766C65.0572 47.0144 67.0485 46.4923 68.6029 47.6332C69.2831 48.1368 69.9241 48.6916 70.5201 49.2926C71.2138 49.9863 71.7566 50.6332 72.1794 51.2107C73.3204 52.7651 72.7982 54.7563 71.436 56.1185L68.9376 58.6169Z" fill="#A59ADE"/>
<path d="M66.9425 41.0379C66.6134 40.1191 65.4903 37.6938 62.0037 34.2757C58.3091 30.6532 55.7506 29.6332 54.9538 29.3838C53.3655 29.3351 51.7765 29.3113 50.1875 29.3125C44.315 29.3125 40.2819 29.6125 37.7675 29.9004C35.7041 30.1366 34.1581 31.6844 33.9313 33.7488C33.6313 36.4582 33.3125 41.006 33.3125 48.0625C33.3125 55.1191 33.6322 59.6669 33.9313 62.3763C34.1581 64.4407 35.7041 65.9885 37.7675 66.2247C39.5469 66.4282 42.0866 66.6372 45.5 66.7432" stroke="#5948A0" stroke-width="1.5" stroke-linecap="round" stroke-linejoin="round"/>
<path d="M66.9556 41.4607C64.999 41.7523 61.4797 41.5282 58.8087 41.2817C57.7907 41.1908 56.8366 40.7461 56.1123 40.0249C55.388 39.3037 54.9393 38.3515 54.844 37.3338C54.5928 34.707 54.3697 31.272 54.6753 29.3763" stroke="#5948A0" stroke-width="1.5" stroke-linecap="round" stroke-linejoin="round"/>
<path d="M68.9376 58.6169C68.9376 58.6169 68.4941 56.6406 65.8326 53.98C63.1719 51.3184 61.1957 50.875 61.1957 50.875" stroke="#5948A0" stroke-width="1.5" stroke-linecap="round" stroke-linejoin="round"/>
<path d="M39.875 38.6875L43.625 42.4375L48.3125 35.875" stroke="#5948A0" stroke-width="1.5" stroke-linecap="round" stroke-linejoin="round"/>
<path d="M39.875 49L43.625 52.75L48.3125 46.1875" stroke="#5948A0" stroke-width="1.5" stroke-linecap="round" stroke-linejoin="round"/>
<path d="M71.436 56.1176C72.7991 54.7554 73.3204 52.7642 72.1804 51.2098C71.6768 50.5292 71.122 49.888 70.521 49.2917C69.8272 48.5979 69.1804 48.056 68.6019 47.6323C67.0485 46.4923 65.0572 47.0135 63.6941 48.3757L52.1254 59.9445C51.6163 60.4545 51.2675 61.1004 51.2075 61.8195C51.126 62.7954 51.066 64.4539 51.2235 66.9082C51.2515 67.3448 51.4376 67.7563 51.747 68.0657C52.0564 68.375 52.4678 68.5611 52.9044 68.5892C55.3579 68.7467 57.0172 68.6867 57.9932 68.6042C58.7113 68.5442 59.3582 68.1964 59.8682 67.6854L71.436 56.1176Z" stroke="#5948A0" stroke-width="1.5" stroke-linecap="round" stroke-linejoin="round"/>
</svg>
