<svg width="121" height="120" viewBox="0 0 121 120" fill="none" xmlns="http://www.w3.org/2000/svg">
<path d="M95.7366 24.8894C95.8021 24.8047 95.8031 24.7168 95.7393 24.6282L95.3319 24.0213L95.4762 23.8185C95.8504 24.1509 96.2297 24.4807 96.6143 24.8029C96.9989 25.1251 97.4041 25.4552 97.8274 25.7881L97.6881 25.9962L96.9596 25.6652C96.8515 25.6201 96.766 25.627 96.7059 25.6936C96.4991 25.9268 96.2503 26.2164 95.9596 26.5626L93.0471 30.0366C92.7537 30.3853 92.5101 30.6828 92.3161 30.9264C92.2611 30.9957 92.2679 31.0811 92.3368 31.1775L92.78 31.8288L92.6305 32.0264C92.2127 31.6599 91.8077 31.3142 91.4205 30.9895L84.4261 25.1251C84.0518 24.8108 83.6568 24.4885 83.2465 24.1583L83.3857 23.9503L84.14 24.2892C84.2327 24.3316 84.3104 24.3143 84.3785 24.24C84.5486 24.0504 84.758 23.8069 85.0043 23.512L88.0242 19.9124C88.3149 19.5663 88.5559 19.2713 88.7499 19.0251C88.805 18.9532 88.8007 18.8704 88.737 18.7741L88.2887 18.1202L88.4382 17.92C88.8559 18.2916 89.2609 18.6399 89.6455 18.9621C90.0301 19.2842 90.4122 19.596 90.7893 19.8922L90.65 20.1003L89.973 19.7983C89.8752 19.7507 89.7897 19.7679 89.7164 19.8474C89.5097 20.0754 89.2584 20.3624 88.9702 20.7086L85.2562 25.1389L87.8022 27.2736L91.5162 22.8432C91.807 22.4971 92.048 22.2022 92.242 21.9559C92.3023 21.8764 92.3006 21.7884 92.237 21.6946L91.8295 21.0903L91.979 20.8901C92.3634 21.233 92.7478 21.5655 93.1324 21.8877C93.517 22.2098 93.8992 22.5191 94.2763 22.8179L94.1396 23.0285L93.4574 22.7213C93.3596 22.6737 93.274 22.691 93.2008 22.7704C92.9966 23.001 92.7479 23.2907 92.4597 23.6368L88.7457 28.0672L91.2866 30.1966L95.0006 25.7662C95.2913 25.4201 95.5323 25.1278 95.7237 24.8841L95.7366 24.8894Z" fill="#5948A0"/>
<path d="M99.2999 35.3008L97.59 36.32C97.3921 36.4395 97.2125 36.5463 97.0538 36.6429C96.895 36.7395 96.7544 36.8286 96.6268 36.91C96.5252 36.9736 96.4907 37.0612 96.518 37.1675L96.7124 37.8679L96.5092 38.0106C96.2629 37.5735 96.0114 37.1415 95.7546 36.712C95.4928 36.2748 95.2207 35.8296 94.9384 35.3766L95.1391 35.2287L95.7204 35.7857C95.7972 35.8615 95.8771 35.8805 95.9629 35.84C96.0982 35.7638 96.2465 35.68 96.4131 35.5835C96.577 35.4869 96.7592 35.3802 96.9596 35.2607L100.991 32.8563C101.16 32.7546 101.311 32.6631 101.447 32.5817C101.582 32.4978 101.702 32.424 101.809 32.3553C101.892 32.2993 101.924 32.222 101.899 32.1235L101.693 31.3351L101.901 31.1976C102.035 31.4395 102.168 31.6737 102.297 31.8949C102.424 32.1187 102.554 32.3373 102.683 32.5533C102.813 32.7694 102.943 32.9828 103.072 33.1937C103.202 33.4019 103.334 33.6154 103.472 33.8264L103.274 33.982L102.731 33.4668C102.657 33.3885 102.577 33.3721 102.493 33.4178C102.371 33.4837 102.241 33.56 102.1 33.6413C101.96 33.7226 101.809 33.8115 101.648 33.9081L99.7423 35.0442L100.083 35.6142C100.182 35.7808 100.276 35.9266 100.365 36.0517C100.455 36.1768 100.549 36.2838 100.654 36.3729C100.759 36.4619 100.873 36.5278 100.996 36.573C101.12 36.6183 101.267 36.6457 101.435 36.6501C101.603 36.6544 101.797 36.6383 102.018 36.5993C102.238 36.5602 102.497 36.5034 102.795 36.4238C103.104 36.3391 103.366 36.2668 103.587 36.2122C103.804 36.1576 103.991 36.1208 104.146 36.1043C104.299 36.0852 104.428 36.0866 104.529 36.1032C104.632 36.1198 104.72 36.1569 104.797 36.2146C104.874 36.2723 104.946 36.3507 105.017 36.4523C105.086 36.5539 105.165 36.6788 105.254 36.8272C105.437 37.1343 105.622 37.4725 105.807 37.8443L105.512 38.0507C105.357 37.806 105.196 37.6155 105.035 37.4793C104.87 37.3431 104.696 37.2481 104.505 37.1918C104.317 37.1355 104.11 37.1101 103.885 37.1129C103.66 37.1157 103.411 37.1312 103.14 37.1568C102.938 37.1728 102.738 37.1888 102.539 37.1996C102.34 37.2105 102.143 37.2136 101.952 37.2038C101.76 37.1966 101.575 37.1714 101.396 37.1359C101.216 37.0978 101.046 37.0391 100.886 36.9573C100.69 37.4259 100.489 37.8713 100.285 38.2855C100.079 38.7024 99.8914 39.0858 99.7196 39.4383C99.5609 39.7677 99.4259 40.0638 99.312 40.3238C99.198 40.5864 99.1206 40.8106 99.0824 41.0016C99.0659 41.0997 99.0546 41.1927 99.0511 41.278C99.0502 41.3634 99.0493 41.4461 99.0614 41.529C99.0735 41.6119 99.0881 41.6948 99.1131 41.7779C99.1355 41.8609 99.1655 41.9569 99.2032 42.0633L98.9948 42.2111C98.8111 41.9687 98.6658 41.7602 98.5616 41.5859C98.4726 41.4375 98.399 41.3048 98.3381 41.1904C98.2773 41.0733 98.2318 40.9668 98.1993 40.8656C98.1667 40.7644 98.1444 40.6711 98.135 40.5804C98.1256 40.4924 98.124 40.3993 98.1379 40.3037C98.1507 40.0762 98.2154 39.8183 98.3374 39.5299C98.4568 39.2414 98.6128 38.925 98.8 38.5778C98.9452 38.2999 99.0982 38.0145 99.2591 37.7187C99.42 37.423 99.5706 37.1167 99.7084 36.8001C99.7482 36.7074 99.78 36.6301 99.8066 36.5657C99.8331 36.5013 99.8467 36.4394 99.8525 36.38C99.8557 36.3205 99.8485 36.2636 99.8285 36.2039C99.8084 36.1442 99.7729 36.0739 99.7247 35.9907L99.318 35.3062L99.2999 35.3008Z" fill="#5948A0"/>
<path d="M106.605 52.7117C105.314 53.0473 104.169 52.9189 103.177 52.324C102.182 51.729 101.497 50.7131 101.124 49.2763C100.769 47.9121 100.858 46.7621 101.388 45.8262C101.92 44.8903 102.806 44.2608 104.046 43.9376C105.338 43.6019 106.464 43.7379 107.428 44.3455C108.388 44.953 109.055 45.9713 109.426 47.3952C109.781 48.7619 109.705 49.9121 109.196 50.843C108.687 51.774 107.824 52.396 106.605 52.7143L106.605 52.7117ZM104.578 45.226C103.362 45.5417 102.498 46.0551 101.991 46.7611C101.485 47.467 101.364 48.34 101.635 49.38C101.901 50.4018 102.394 51.082 103.106 51.4154C103.822 51.7488 104.807 51.7514 106.065 51.4258C107.245 51.1174 108.086 50.6245 108.585 49.9417C109.086 49.259 109.193 48.3781 108.912 47.2992C108.639 46.2514 108.147 45.5686 107.436 45.2456C106.726 44.9252 105.771 44.9178 104.576 45.2312L104.578 45.226Z" fill="#5948A0"/>
<path d="M108.905 64.2846L104.375 64.1466C104.145 64.139 103.933 64.1342 103.741 64.1296C103.55 64.1276 103.377 64.1258 103.224 64.1242C103.136 64.1233 103.074 64.1821 103.039 64.2955L102.801 65.0457L102.552 65.056C102.581 64.4976 102.603 63.9651 102.618 63.4634C102.634 62.9593 102.644 62.4679 102.647 61.9817L102.895 61.9636L103.076 62.6897C103.104 62.7961 103.168 62.8536 103.268 62.8599C103.424 62.8693 103.594 62.8762 103.783 62.886C103.972 62.8931 104.181 62.9005 104.414 62.9081L110.187 63.0851L110.251 60.9571C109.652 60.912 109.05 60.8462 108.448 60.752C107.846 60.6603 107.25 60.5325 106.662 60.3685C106.072 60.2046 105.492 60.0019 104.92 59.758C104.348 59.514 103.79 59.2185 103.246 58.8688C103.151 58.8031 103.069 58.7402 102.997 58.6799C102.925 58.6197 102.866 58.5441 102.821 58.4505C102.775 58.3569 102.743 58.2402 102.723 58.1003C102.704 57.9604 102.698 57.7819 102.706 57.5621C102.717 57.226 102.763 56.8359 102.845 56.3919L103.093 56.3739L103.146 56.7417C103.165 56.8945 103.187 57.0215 103.215 57.1252C103.242 57.2289 103.277 57.325 103.318 57.4134C103.358 57.5017 103.412 57.5851 103.475 57.6685C103.539 57.7493 103.621 57.8433 103.721 57.9478C103.972 58.2117 104.261 58.4527 104.593 58.6656C104.924 58.8812 105.279 59.0712 105.655 59.2406C106.031 59.4101 106.422 59.5591 106.822 59.6874C107.224 59.8158 107.619 59.9208 108.008 60.005C108.398 60.0893 108.775 60.1528 109.139 60.198C109.503 60.2432 109.837 60.2699 110.139 60.2783C110.227 60.2792 110.293 60.2152 110.33 60.0811L110.601 59.1244L110.85 59.1193C110.818 59.6879 110.795 60.1377 110.787 60.4687L110.688 63.7033C110.672 64.2049 110.664 64.7273 110.664 65.2653L110.415 65.2885L110.224 64.5054C110.197 64.3991 110.136 64.3389 110.045 64.3225C109.89 64.3131 109.719 64.3061 109.531 64.2964C109.342 64.2892 109.133 64.2819 108.9 64.2742L108.905 64.2846Z" fill="#5948A0"/>
<path d="M108.352 75.6067L100.753 76.0675C100.468 76.0852 100.266 76.1193 100.149 76.1724C100.032 76.2255 99.928 76.3201 99.8334 76.4588L99.4944 76.9725L99.2545 76.9079C99.4384 76.3874 99.6013 75.9029 99.7482 75.4544C99.8978 74.9981 100.069 74.4568 100.262 73.8355L100.507 73.8898L100.475 74.5102C100.474 74.5981 100.483 74.6654 100.504 74.7096C100.524 74.7538 100.567 74.7879 100.632 74.8093C100.704 74.8333 100.807 74.8447 100.942 74.841C101.074 74.8372 101.252 74.8313 101.475 74.8207L103.134 74.7398L104.082 71.8478L102.821 70.7353C102.644 70.5835 102.501 70.4656 102.396 70.3765C102.291 70.2901 102.203 70.2348 102.134 70.2108C102.072 70.1895 102.017 70.1941 101.976 70.2221C101.931 70.2501 101.887 70.2988 101.84 70.3681L101.508 70.8767L101.256 70.8068C101.453 70.2425 101.61 69.7812 101.728 69.4203C101.846 69.0594 101.971 68.6573 102.105 68.2086L102.351 68.2552L102.323 68.917C102.316 69.0825 102.348 69.2173 102.417 69.3189C102.486 69.4205 102.601 69.5484 102.767 69.7002L108.472 74.9665L108.352 75.6119L108.352 75.6067ZM104.508 72.2273L103.698 74.6992L107.111 74.5229L104.508 72.2273Z" fill="#5948A0"/>
<path d="M100.268 90.527C99.8941 90.9213 99.5331 91.3107 99.185 91.6976C99.0593 91.8489 98.8549 92.095 98.572 92.4335C98.2892 92.7719 98.0954 92.9975 97.9933 93.1128C97.3757 93.8021 96.792 94.2149 96.2422 94.3566C95.6924 94.4983 95.1971 94.3715 94.7589 93.9789C94.0517 93.3456 93.9442 92.4987 94.4338 91.4382C93.9225 91.857 93.4235 92.082 92.9343 92.1131C92.4452 92.1442 92.002 91.9817 91.6074 91.6258C91.0334 91.1103 90.7943 90.4845 90.8874 89.7457C90.9831 89.007 91.392 88.2354 92.1169 87.4282C92.2609 87.2668 92.4204 87.0978 92.5982 86.9186C92.776 86.7394 92.9669 86.5345 93.1763 86.3013C93.5165 85.9221 93.862 85.5274 94.2103 85.1224L94.4131 85.2694L94.0538 85.9898C94.0036 86.085 94.0105 86.1678 94.0745 86.2357C94.1871 86.343 94.3127 86.4607 94.4536 86.5889C94.5945 86.7171 94.7507 86.861 94.9224 87.0154L98.4149 90.1506C98.561 90.2814 98.6942 90.3992 98.8121 90.5039C98.93 90.6086 99.0403 90.7003 99.1377 90.7841C99.2146 90.847 99.2973 90.853 99.3858 90.8022L100.076 90.3697L100.268 90.527ZM95.7686 89.44L93.1551 87.0925C93.0406 87.1586 92.9206 87.2479 92.803 87.363C92.6829 87.4781 92.5783 87.5883 92.4867 87.6908C92.0208 88.2083 91.7854 88.7076 91.7778 89.1886C91.7727 89.6696 91.9905 90.1116 92.439 90.5146C92.8874 90.9177 93.3409 91.0802 93.8021 90.9997C94.2633 90.9217 94.7687 90.5779 95.3156 89.9706C95.4753 89.7938 95.6271 89.617 95.7686 89.44ZM96.112 89.7488C95.9367 89.9384 95.7588 90.1356 95.5782 90.3329C95.1648 90.7941 94.9532 91.2342 94.9488 91.6557C94.9444 92.0747 95.1344 92.4595 95.5264 92.8102C95.9364 93.1791 96.341 93.3231 96.7375 93.2419C97.1341 93.1607 97.5352 92.8933 97.9461 92.4372C98.0194 92.3552 98.0953 92.2655 98.1791 92.1655C98.2604 92.0655 98.3469 91.9526 98.4361 91.832L96.1146 89.7488L96.112 89.7488Z" fill="#5948A0"/>
<path d="M80.1039 98.9041C79.9844 98.7063 79.875 98.5266 79.7759 98.3652C79.6767 98.2038 79.5851 98.0581 79.5037 97.9279C79.4502 97.8471 79.3547 97.828 79.212 97.8731L78.4961 98.0673L78.356 97.8615C78.827 97.5923 79.2798 97.3281 79.7093 97.0688C80.144 96.8069 80.5891 96.5348 81.0395 96.2499L81.1952 96.4481L80.6408 97.032C80.5598 97.1113 80.5408 97.1939 80.5813 97.2771C80.6575 97.4123 80.7439 97.5607 80.8404 97.7246C80.937 97.8886 81.0437 98.0708 81.1632 98.2686L83.5808 102.293C83.6825 102.462 83.774 102.613 83.8579 102.748C83.9419 102.883 84.0182 103.003 84.0869 103.11C84.143 103.193 84.2202 103.223 84.324 103.198L85.1047 102.991L85.25 103.195C84.7738 103.464 84.321 103.725 83.8942 103.982C83.4595 104.244 83.0143 104.519 82.5612 104.811L82.4107 104.611L82.9704 104.024C83.0461 103.953 83.0599 103.873 83.0194 103.787C82.9534 103.67 82.8797 103.54 82.7984 103.402C82.7171 103.264 82.6281 103.113 82.5315 102.951L80.1012 98.9092L80.1039 98.9041ZM88.362 99.4459L87.3807 97.8139C87.1096 98.0128 86.8335 98.1962 86.5576 98.3614C85.6258 98.9206 84.8291 99.1761 84.1726 99.1304C83.5136 99.0821 83.0048 98.7586 82.6464 98.16C82.415 97.7774 82.2974 97.4037 82.2883 97.0389C82.2792 96.6741 82.3552 96.3309 82.5164 96.0041C82.6776 95.6774 82.9084 95.372 83.2114 95.0855C83.5145 94.799 83.856 94.5388 84.2412 94.3074C84.4156 94.2032 84.6108 94.0915 84.8241 93.9773C85.04 93.8606 85.2767 93.726 85.5344 93.5709C85.9743 93.3066 86.4195 93.0319 86.8725 92.747L87.023 92.9477L86.4685 93.5316C86.3927 93.6084 86.3738 93.6884 86.4143 93.7742C86.4905 93.9095 86.5768 94.0578 86.6734 94.2243C86.7699 94.3883 86.8767 94.5705 86.9962 94.7683L89.4137 98.7923C89.5154 98.9614 89.6069 99.1124 89.6909 99.2478C89.7748 99.3832 89.8512 99.5029 89.9199 99.6097C89.9759 99.6931 90.0532 99.7223 90.1517 99.7001L90.9402 99.4911L91.0803 99.6969C90.6068 99.9635 90.1566 100.225 89.7271 100.484C89.295 100.744 88.8316 101.031 88.3421 101.344L88.1864 101.146L88.7983 100.508C88.8716 100.424 88.8879 100.344 88.8473 100.271C88.7813 100.151 88.7077 100.024 88.6263 99.8858C88.545 99.7479 88.4586 99.6021 88.3671 99.4486L88.362 99.4459ZM87.1392 97.4131L85.2834 94.321C85.0682 94.373 84.8135 94.4893 84.5116 94.6698C83.939 95.0155 83.5908 95.4128 83.4671 95.8615C83.3434 96.3103 83.4417 96.8027 83.7621 97.3337C84.0849 97.8699 84.4749 98.174 84.9345 98.2461C85.3942 98.3182 85.9467 98.161 86.5922 97.7746C86.6703 97.7263 86.7588 97.6729 86.85 97.6092C86.9438 97.5456 87.0402 97.4793 87.1392 97.4105L87.1392 97.4131Z" fill="#5948A0"/>
<path d="M69.2804 106.756L69.5168 106.663L70.3223 108.035C70.8578 108.027 71.3317 107.975 71.7466 107.874C72.7501 107.631 73.459 107.118 73.8758 106.339C74.2926 105.56 74.3771 104.658 74.1291 103.634C73.8639 102.54 73.3239 101.745 72.5117 101.25C71.6996 100.755 70.7127 100.649 69.5562 100.93C68.9053 101.088 68.248 101.368 67.5842 101.77L67.4548 101.533C68.1373 100.827 68.988 100.352 70.0071 100.107C71.3295 99.7868 72.4871 99.8973 73.4824 100.438C74.4777 100.979 75.1203 101.854 75.4129 103.06C75.7253 104.346 75.5221 105.474 74.8058 106.442C74.0896 107.41 73.0119 108.068 71.5701 108.418C70.8778 108.586 70.1526 108.68 69.3894 108.7L69.3354 108.666L69.2753 106.756L69.2804 106.756Z" fill="#5948A0"/>
<path d="M54.5099 105.208C54.573 103.874 55.0367 102.821 55.9009 102.049C56.7651 101.277 57.9379 100.925 59.4218 100.995C60.8307 101.061 61.9022 101.486 62.6363 102.273C63.373 103.059 63.7087 104.092 63.6488 105.371C63.5856 106.705 63.1222 107.74 62.2557 108.479C61.3893 109.217 60.2193 109.551 58.7483 109.482C57.3368 109.415 56.2626 109 55.5257 108.237C54.7888 107.474 54.4502 106.465 54.5099 105.208ZM62.2585 105.499C62.3182 104.243 62.0853 103.268 61.5624 102.572C61.0394 101.878 60.2415 101.505 59.1687 101.453C58.1139 101.403 57.3197 101.669 56.7885 102.253C56.2573 102.837 55.9604 103.778 55.9002 105.076C55.8435 106.293 56.0663 107.242 56.5687 107.922C57.0712 108.603 57.8821 108.968 58.9963 109.021C60.0769 109.071 60.8763 108.806 61.3945 108.221C61.9128 107.637 62.2016 106.73 62.2585 105.497L62.2585 105.499Z" fill="#5948A0"/>
<path d="M47.3444 102.852L48.021 100.979C48.1009 100.76 48.1702 100.564 48.2315 100.392C48.2928 100.216 48.3462 100.057 48.3943 99.9148C48.4316 99.8014 48.4041 99.7106 48.3169 99.6476L47.7238 99.2301L47.7909 98.9903C48.2572 99.171 48.7261 99.3467 49.1976 99.5171C49.6769 99.6903 50.1691 99.8636 50.6768 100.034L50.6148 100.277L49.8111 100.214C49.7026 100.203 49.6297 100.241 49.5901 100.326C49.5342 100.47 49.4731 100.63 49.4039 100.81C49.3374 100.988 49.2629 101.186 49.1856 101.405L47.5875 105.819C47.5209 106.004 47.4622 106.172 47.4089 106.321C47.3582 106.471 47.3129 106.605 47.2728 106.726C47.2433 106.821 47.2684 106.902 47.3479 106.962L48.0076 107.44L47.9353 107.677C47.6777 107.576 47.4279 107.478 47.1883 107.387C46.9487 107.297 46.7091 107.209 46.472 107.121C46.235 107.036 46.0005 106.953 45.766 106.871C45.534 106.791 45.2969 106.711 45.0572 106.633L45.1115 106.388L45.8584 106.442C45.9643 106.456 46.0371 106.418 46.0743 106.328C46.1248 106.199 46.1806 106.058 46.2365 105.906C46.2924 105.754 46.3536 105.589 46.4175 105.411L47.1713 103.326L46.5478 103.1C46.3648 103.033 46.1999 102.98 46.0529 102.94C45.9033 102.899 45.7612 102.877 45.6268 102.873C45.4897 102.872 45.3602 102.891 45.2356 102.934C45.111 102.976 44.9809 103.05 44.8479 103.152C44.715 103.254 44.5738 103.392 44.4273 103.559C44.2806 103.728 44.1181 103.938 43.937 104.187C43.7532 104.449 43.5931 104.67 43.4593 104.852C43.3255 105.032 43.2024 105.178 43.0952 105.291C42.988 105.401 42.8889 105.483 42.7978 105.533C42.7067 105.584 42.6133 105.612 42.5202 105.618C42.4244 105.623 42.3185 105.608 42.1999 105.574C42.0813 105.539 41.9421 105.493 41.7798 105.435C41.4422 105.312 41.0868 105.166 40.7084 104.997L40.8077 104.651C41.0835 104.742 41.3287 104.789 41.5408 104.791C41.7529 104.793 41.9499 104.754 42.1317 104.678C42.3135 104.602 42.4906 104.493 42.6602 104.347C42.8324 104.202 43.0153 104.033 43.2087 103.841C43.3524 103.7 43.4987 103.562 43.6475 103.427C43.7938 103.291 43.9451 103.166 44.0989 103.051C44.2527 102.936 44.4115 102.837 44.5728 102.751C44.7366 102.667 44.9054 102.604 45.0791 102.565C44.9342 102.077 44.8072 101.607 44.7033 101.154C44.5995 100.7 44.5004 100.285 44.4112 99.904C44.3244 99.5488 44.2424 99.235 44.1651 98.96C44.0878 98.685 44.0048 98.4617 43.9134 98.29C43.8652 98.2016 43.8143 98.1261 43.7633 98.0583C43.7122 97.9905 43.656 97.9278 43.5971 97.8703C43.5382 97.8128 43.4715 97.7604 43.3996 97.7105C43.3277 97.6606 43.2455 97.6054 43.1505 97.5449L43.2203 97.2999C43.517 97.3703 43.7594 97.4401 43.9501 97.5093C44.1124 97.5679 44.2541 97.6237 44.3725 97.6741C44.4936 97.7245 44.5964 97.7799 44.6864 97.8378C44.7763 97.8956 44.8533 97.9533 44.9173 98.0161C44.9813 98.0788 45.04 98.1493 45.0909 98.23C45.226 98.415 45.3373 98.6542 45.4273 98.9551C45.5173 99.2535 45.599 99.5984 45.6726 99.9845C45.7366 100.29 45.7979 100.609 45.8617 100.938C45.923 101.267 46.0022 101.599 46.0944 101.934C46.1219 102.03 46.1469 102.11 46.1669 102.178C46.1869 102.245 46.2147 102.302 46.2504 102.349C46.2836 102.396 46.3297 102.438 46.3811 102.47C46.435 102.504 46.5045 102.536 46.5973 102.57L47.3445 102.842L47.3444 102.852Z" fill="#5948A0"/>
<path d="M30.6614 94.0219C31.4461 92.9413 32.4122 92.3177 33.5598 92.1461C34.7048 91.9745 35.8805 92.3256 37.0818 93.1995C38.2215 94.0288 38.8841 94.9721 39.067 96.0344C39.2499 97.0942 38.9647 98.1439 38.2115 99.1809C37.4269 100.262 36.4687 100.87 35.3395 101.01C34.2103 101.151 33.0503 100.787 31.8592 99.9212C30.717 99.0893 30.0465 98.1538 29.8479 97.1119C29.6519 96.0701 29.924 95.041 30.6614 94.0219ZM36.9795 98.5214C37.7196 97.5049 38.0605 96.5618 38.005 95.6922C37.9494 94.8226 37.4865 94.0754 36.6189 93.443C35.7641 92.821 34.9542 92.6082 34.1892 92.8045C33.4241 93.0008 32.6598 93.6239 31.8961 94.6763C31.1796 95.662 30.8441 96.5792 30.8896 97.4229C30.9377 98.2666 31.4109 99.019 32.3144 99.6751C33.1898 100.31 34.0048 100.528 34.757 100.324C35.5118 100.12 36.25 99.5198 36.977 98.5213L36.9795 98.5214Z" fill="#5948A0"/>
<path d="M27.5781 86.916C27.9379 86.6379 28.2301 86.403 28.457 86.2166C28.5275 86.1578 28.5413 86.0778 28.4984 85.9765L28.1554 85.14L28.3433 84.9765C28.708 85.4666 29.0448 85.9072 29.351 86.3036C29.6573 86.6999 29.9841 87.1068 30.3262 87.5294L30.146 87.7008L29.4992 87.2181C29.4068 87.1499 29.3267 87.1413 29.2538 87.1949C29.0009 87.381 28.6959 87.6132 28.336 87.8913L24.6305 90.77C24.4741 90.8899 24.3359 90.9996 24.2107 91.0992C24.0881 91.1988 23.9759 91.2881 23.8794 91.3699C23.8037 91.4338 23.7821 91.5163 23.8174 91.6098L24.1198 92.3656L23.9319 92.5292C23.6106 92.0913 23.2968 91.6742 22.9906 91.2778L22.0795 90.1043C21.4441 89.2855 20.8263 88.5031 20.2238 87.7545L20.2373 87.6951L22.1821 86.7353L22.369 86.9105L21.343 88.3146L23.0095 90.4581L27.5808 86.9083L27.5781 86.916Z" fill="#5948A0"/>
<path d="M17.3853 73.2882C18.6167 72.7709 19.7654 72.7364 20.8341 73.1847C21.9028 73.633 22.7235 74.5417 23.2989 75.9108C23.8439 77.2098 23.9198 78.3615 23.5265 79.3635C23.1332 80.3655 22.3468 81.1151 21.1648 81.6096C19.9334 82.1269 18.8003 82.1513 17.7603 81.6877C16.7228 81.2216 15.9176 80.3105 15.3473 78.9544C14.7997 77.6503 14.7134 76.5036 15.0834 75.5091C15.4559 74.5146 16.2214 73.7752 17.3801 73.2881L17.3853 73.2882ZM20.4558 80.4099C21.6144 79.9228 22.397 79.2922 22.7982 78.523C23.1994 77.7513 23.1931 76.8719 22.7793 75.8821C22.3705 74.9079 21.7871 74.3069 21.0343 74.0765C20.2788 73.8488 19.3023 73.986 18.1021 74.4881C16.9772 74.9599 16.2182 75.5701 15.8198 76.316C15.4214 77.0619 15.438 77.9518 15.8695 78.9806C16.2884 79.9782 16.8717 80.5869 17.6221 80.8017C18.3725 81.0191 19.3179 80.8893 20.4558 80.4099Z" fill="#5948A0"/>
<path d="M13.9421 54.1481L13.9653 54.4018L12.4223 54.7865C12.2772 55.3023 12.1947 55.7721 12.1722 56.1961C12.12 57.2275 12.4088 58.053 13.0386 58.6726C13.6683 59.2948 14.508 59.6321 15.5601 59.6845C16.6846 59.7403 17.6007 59.4499 18.3032 58.8106C19.0082 58.1714 19.3902 57.2572 19.4492 56.0681C19.4821 55.3986 19.399 54.689 19.2026 53.9369L19.467 53.8802C19.9495 54.7336 20.1645 55.6851 20.1122 56.732C20.0436 58.0917 19.6107 59.1709 18.8083 59.9695C18.0085 60.7706 16.9855 61.1401 15.7447 61.0779C14.4237 61.0123 13.3997 60.4972 12.6752 59.5378C11.9507 58.5758 11.6246 57.3542 11.6996 55.8756C11.7355 55.1647 11.8517 54.4417 12.0457 53.704L12.0953 53.6632L13.9421 54.1481Z" fill="#5948A0"/>
<path d="M13.6439 46.0423L14.1169 44.5833C14.4083 43.6863 14.7079 42.7376 15.0158 41.7347L15.073 41.7121L16.662 42.6133L16.6231 42.8663L15.2294 42.8259L14.3287 45.602L17.3575 46.5856L17.5339 46.0391C17.6702 45.6215 17.8147 45.1575 17.9753 44.6419C18.0049 44.5362 17.9773 44.4531 17.8978 44.3902L17.2223 43.9382L17.3162 43.6107C17.8265 43.7894 18.2054 43.9175 18.4502 43.9977C18.69 44.0752 19.0664 44.1904 19.5795 44.3432L19.4958 44.6734L18.6711 44.644C18.565 44.6429 18.4947 44.6913 18.4627 44.7815C18.2866 45.2995 18.1291 45.7686 17.9927 46.1888L17.8164 46.7301L19.8192 47.3796C20.2265 47.5132 20.6287 47.6389 21.0283 47.7595L21.9638 44.8777L20.8045 43.6913L20.8489 43.4073L22.7214 44.1615L22.7466 44.216C22.3996 45.2496 22.0844 46.2058 21.7984 47.0822L21.3334 48.5128C21.1757 48.9974 21.0205 49.4949 20.8677 50.008L20.6225 49.9563L20.6594 49.1523C20.6657 49.0438 20.6277 48.9709 20.5401 48.9338C20.3958 48.8832 20.2309 48.8245 20.0504 48.7657C19.87 48.7044 19.669 48.6376 19.4499 48.568L14.9853 47.1193C14.7971 47.0579 14.6296 47.0044 14.4774 46.9588C14.3253 46.9133 14.1887 46.8705 14.0675 46.8356C13.9721 46.8087 13.8942 46.8363 13.8338 46.9185L13.3767 47.5939L13.1368 47.5293C13.3181 47.0165 13.4888 46.5243 13.6412 46.0474L13.6439 46.0423Z" fill="#5948A0"/>
<path d="M24.2323 37.4763C24.4276 37.5999 24.6049 37.7104 24.7616 37.8077C24.9184 37.9051 25.0623 37.9919 25.1883 38.0657C25.2654 38.1105 25.3457 38.0958 25.4267 38.0216L26.0978 37.4157L26.3137 37.5395C25.9773 38.0481 25.675 38.5157 25.4093 38.9396C25.1358 39.3713 24.8621 39.8159 24.5884 40.2734L24.3645 40.1624L24.5976 39.3915C24.6298 39.2832 24.6099 39.2028 24.5381 39.1503C24.4096 39.0636 24.2658 38.969 24.1065 38.8665C23.9472 38.7613 23.7674 38.6482 23.5721 38.5246L19.6049 36.0181C19.4378 35.9129 19.2888 35.8183 19.1526 35.7366C19.0189 35.6551 18.8956 35.5813 18.785 35.5155C18.6976 35.4655 18.6148 35.4724 18.5391 35.5388L17.9308 36.0808L17.7148 35.9595C18.0169 35.5075 18.3087 35.0657 18.5848 34.6289C18.7715 34.336 18.9427 34.0455 19.1034 33.7627C19.2642 33.4799 19.4143 33.2254 19.5589 32.9993C20.0928 32.1565 20.6468 31.614 21.2209 31.3718C21.7951 31.1295 22.3815 31.1977 22.9776 31.5764C23.679 32.0209 24.066 32.6146 24.1383 33.3603C24.2107 34.106 23.9615 34.9284 23.3908 35.8303C23.233 36.0795 23.0519 36.3362 22.8422 36.6004L24.2374 37.4815L24.2323 37.4763ZM22.426 36.3348C22.6223 36.1093 22.798 35.8784 22.9506 35.6342C23.3109 35.0638 23.4508 34.5454 23.3678 34.079C23.2873 33.6126 22.9683 33.2032 22.4133 32.8534C21.8814 32.5167 21.3963 32.4082 20.9554 32.5251C20.517 32.6421 20.1046 33.005 19.718 33.6139C19.5681 33.8529 19.4284 34.0997 19.3015 34.3596L22.4234 36.3322L22.426 36.3348Z" fill="#5948A0"/>
<path d="M24.8257 26.0425C25.2305 25.6795 25.6222 25.3189 26.001 24.9608C26.1395 24.82 26.3618 24.5921 26.6729 24.2773C26.9814 23.9624 27.1931 23.7525 27.3054 23.6477C27.9768 23.0107 28.591 22.6447 29.1533 22.5471C29.713 22.4495 30.195 22.6149 30.6017 23.0434C31.254 23.7331 31.2943 24.5844 30.7197 25.6026C31.2617 25.2255 31.7783 25.0421 32.2696 25.0524C32.7584 25.0602 33.1882 25.2586 33.5541 25.6453C34.0836 26.2043 34.2734 26.8503 34.1183 27.5781C33.9633 28.3058 33.4926 29.0432 32.7062 29.7902C32.5495 29.9386 32.3772 30.0945 32.1866 30.2581C31.9961 30.4216 31.7872 30.6134 31.5599 30.8282C31.189 31.1787 30.8127 31.542 30.4337 31.9182L30.244 31.7559L30.6599 31.0671C30.7178 30.9746 30.7186 30.8918 30.6625 30.8188C30.5602 30.704 30.4426 30.576 30.3121 30.4375C30.1817 30.2965 30.0385 30.1424 29.8773 29.9752L26.6489 26.5686C26.5133 26.4249 26.3905 26.2969 26.2804 26.1845C26.1704 26.0722 26.0706 25.9702 25.9784 25.8788C25.9068 25.8082 25.8241 25.797 25.7331 25.84L25.0102 26.2152L24.8309 26.0426L24.8257 26.0425ZM28.9059 27.1535C29.0966 26.9771 29.2898 26.7981 29.4857 26.6139C29.9351 26.1867 30.1801 25.7651 30.2206 25.3465C30.2612 24.9279 30.0999 24.5305 29.7392 24.1491C29.3606 23.7494 28.9693 23.572 28.5679 23.6195C28.1665 23.667 27.7424 23.9031 27.2983 24.3226C27.22 24.3968 27.1337 24.4813 27.0448 24.576C26.9533 24.6708 26.8591 24.7732 26.7622 24.8886L28.9085 27.1536L28.9059 27.1535ZM29.2231 27.4905L31.6406 30.0402C31.7601 29.9846 31.8851 29.9031 32.013 29.7984C32.1408 29.6937 32.2557 29.5915 32.355 29.4968C32.8592 29.0184 33.1358 28.5403 33.1822 28.0597C33.2286 27.5817 33.0446 27.122 32.6301 26.6857C32.2157 26.2494 31.7755 26.0508 31.3095 26.0925C30.8435 26.1341 30.3127 26.4338 29.7197 26.9965C29.5473 27.1603 29.38 27.324 29.2257 27.4905L29.2231 27.4905Z" fill="#5948A0"/>
<path d="M39.646 22.5924L40.0465 23.3752C40.0921 23.4636 40.1746 23.4955 40.2938 23.4709L41.0091 23.3335L41.1388 23.547C40.6864 23.7647 40.2367 23.985 39.792 24.2131C39.3447 24.4412 38.8818 24.682 38.4032 24.9382L38.2684 24.7273L38.8638 24.1852C38.9473 24.1085 38.9714 24.0286 38.9335 23.948C38.7994 23.6647 38.6297 23.3215 38.4218 22.9158L36.293 18.7319C36.1182 18.3887 35.9685 18.1052 35.8467 17.8815C35.7985 17.7956 35.7239 17.7586 35.6228 17.7757L34.822 17.9302L34.6975 17.7143C35.1888 17.4815 35.6568 17.251 36.104 17.0255C36.5538 16.7974 36.996 16.5641 37.4278 16.3255L37.5679 16.5339L37.0195 17.0403C36.936 17.1092 36.9145 17.1866 36.9549 17.275C37.0738 17.5271 37.2182 17.8183 37.388 18.1537L39.271 21.8514L41.3844 15.6584L41.1258 15.1539C41.0853 15.0759 41.0054 15.0492 40.8861 15.0738L40.1708 15.2111L40.0412 14.9977C40.5064 14.7775 40.964 14.5547 41.4165 14.3241C41.8637 14.096 42.3189 13.8551 42.7819 13.6039L42.9168 13.8148L42.3108 14.3775C42.2376 14.4491 42.2239 14.5291 42.2643 14.6201C42.3679 14.854 42.5071 15.1425 42.6846 15.4858L44.8134 19.6697C45.0212 20.0753 45.1987 20.4134 45.3536 20.6866C45.3968 20.7647 45.4741 20.7914 45.5881 20.7693L46.3657 20.6145L46.4902 20.8305C45.9859 21.0735 45.51 21.3116 45.0602 21.5397C44.6129 21.7678 44.176 21.996 43.7546 22.2243L43.6145 22.0159L44.163 21.5096C44.2439 21.438 44.2629 21.3554 44.2199 21.2593L43.7108 20.2323L41.7619 16.4046L39.6486 22.5976L39.646 22.5924Z" fill="#5948A0"/>
<path d="M56.0593 12.4388L55.818 12.5165L55.0957 11.0993C54.5606 11.073 54.0844 11.099 53.6646 11.1748C52.6488 11.3581 51.9093 11.8263 51.4462 12.5793C50.9831 13.3322 50.8444 14.2283 51.0301 15.2648C51.2306 16.3739 51.7211 17.1989 52.5017 17.7399C53.2823 18.2809 54.2609 18.4464 55.4322 18.2362C56.0904 18.119 56.7654 17.8778 57.452 17.5151L57.5658 17.7594C56.8424 18.4217 55.9638 18.847 54.9324 19.0328C53.5927 19.2748 52.4436 19.0946 51.4825 18.4948C50.5215 17.895 49.9309 16.9836 49.711 15.7605C49.4763 14.457 49.7466 13.3451 50.5193 12.4221C51.292 11.4991 52.4078 10.9056 53.8667 10.6441C54.5664 10.5196 55.2989 10.4678 56.0591 10.4913L56.1104 10.528L56.0568 12.4362L56.0593 12.4388Z" fill="#5948A0"/>
<path d="M66.5458 10.3969L68.6417 17.7152C68.7216 17.9902 68.7972 18.1798 68.8737 18.2815C68.9503 18.3832 69.0658 18.4671 69.2203 18.5282L69.7948 18.7464L69.7819 18.9945C69.2342 18.9293 68.7253 18.8722 68.255 18.8259C67.777 18.7795 67.2137 18.7296 66.5625 18.6762L66.5651 18.4254L67.174 18.3231C67.2595 18.3059 67.3219 18.2807 67.361 18.2527C67.4 18.2246 67.4213 18.1757 67.4297 18.106C67.4383 18.0285 67.4239 17.9249 67.3942 17.7978C67.3619 17.6682 67.3171 17.497 67.2573 17.2817L66.8189 15.6813L63.7907 15.3831L62.9786 16.8566C62.8704 17.0624 62.7833 17.227 62.72 17.3479C62.6566 17.4688 62.622 17.5667 62.6161 17.6391C62.6102 17.7037 62.6252 17.7555 62.661 17.7921C62.6968 17.8287 62.7534 17.8629 62.8307 17.8922L63.4 18.1051L63.387 18.3662C62.7928 18.2953 62.3071 18.2436 61.9299 18.206C61.5526 18.1685 61.1314 18.133 60.6636 18.0996L60.6559 17.8487L61.3089 17.7314C61.4722 17.7021 61.597 17.6413 61.6806 17.5542C61.7643 17.4646 61.8641 17.3234 61.9774 17.1306L65.8808 10.421L66.5354 10.3994L66.5458 10.3969ZM64.0804 14.8818L66.6694 15.1365L65.7573 11.8422L64.0804 14.8818Z" fill="#5948A0"/>
<path d="M50.4888 118.54C43.7399 117.38 37.1767 115.038 31.055 111.539C17.2895 103.674 7.4109 90.9178 3.23624 75.6218C-0.933243 60.3259 1.09928 44.3217 8.96671 30.554C16.8315 16.7888 29.588 6.91054 44.8815 2.73873C60.1776 -1.43305 76.1847 0.599711 89.9502 8.46721C103.716 16.3321 113.594 29.0886 117.769 44.3845C121.941 59.6805 119.908 75.6847 112.041 89.4498C104.176 103.215 91.4198 113.093 76.1236 117.268C67.6287 119.584 58.9158 119.986 50.4888 118.54ZM70.3395 3.04463C47.0618 -0.952503 22.6973 9.66521 10.3191 31.3286C-5.49223 59.0004 4.15711 94.3753 31.8296 110.184C37.8382 113.617 44.2112 115.849 50.6657 116.959C73.9434 120.956 98.3079 110.339 110.686 88.6752C126.497 61.0034 116.848 25.6284 89.1756 9.81954C83.167 6.38639 76.7941 4.1521 70.3395 3.04463Z" fill="#BDCE76"/>
<path d="M78.894 86.335C78.7854 86.3339 78.677 86.3095 78.5741 86.2619C78.4659 86.2116 67.5401 81.0948 58.4639 79.4064C49.4031 77.7208 37.5751 79.2159 37.456 79.2327C37.2514 79.259 37.0451 79.2025 36.8834 79.0767C36.7218 78.9509 36.6151 78.7635 36.5914 78.5615L32.3683 43.727C32.323 43.3618 32.5438 43.0175 32.8916 42.9022C33.2394 42.7869 33.6233 42.9331 33.8035 43.2532C33.8848 43.3989 42.1423 57.804 50.7332 59.402C57.5637 60.6685 64.4043 38.7632 66.4622 30.2133C66.5569 29.8237 66.9319 29.5716 67.3245 29.63C67.7196 29.6885 68.0056 30.0407 67.9807 30.4387C67.2293 43.151 67.8342 63.6523 72.6563 64.5487C79.4816 65.8126 94.1364 52.2425 94.2827 52.107C94.557 51.8486 94.9788 51.8298 95.2764 52.0579C95.5741 52.2861 95.6654 52.6983 95.4887 53.0301L81.9972 78.4918C81.8943 78.6848 81.717 78.8252 81.5043 78.8772C81.2943 78.9294 81.0696 78.8934 80.8873 78.7725C80.8307 78.7357 75.0506 74.979 62.2841 72.2484C49.7189 69.5612 44.5878 72.2336 44.5358 72.2615C44.1638 72.4619 43.6945 72.3277 43.4915 71.9557C43.2859 71.5837 43.4175 71.1195 43.7895 70.9113C44.0107 70.7869 49.3767 67.9101 62.6077 70.7387C73.2581 73.0152 79.0831 75.9473 81.014 77.0486L92.1676 55.9981C87.5857 59.822 79.0713 66.2221 73.4593 66.1633C73.0817 66.1593 72.7199 66.1271 72.3715 66.0613C68.902 65.4171 66.9357 59.3054 66.3573 47.3759C66.1764 43.665 66.1686 39.9663 66.2181 36.9691C63.5108 46.0295 57.9967 61.061 51.239 60.9928C50.9778 60.99 50.7143 60.964 50.4484 60.9146C43.6309 59.6482 37.3279 51.484 34.3129 46.9726L38.0265 77.6092C40.8464 77.2974 50.6922 76.3919 58.741 77.8885C68.0186 79.6126 79.1169 84.814 79.2275 84.8669C79.6136 85.0494 79.7769 85.5089 79.597 85.8924C79.4647 86.1729 79.1836 86.3381 78.8914 86.335L78.894 86.335Z" fill="#BDCE76"/>
</svg>
