<svg width="72" height="72" viewBox="0 0 72 72" fill="none" xmlns="http://www.w3.org/2000/svg">
<path d="M57.1382 14.9325C57.1775 14.8817 57.1781 14.8289 57.1398 14.7758L56.8954 14.4116L56.982 14.29C57.2064 14.4894 57.434 14.6873 57.6648 14.8806C57.8955 15.0739 58.1386 15.2719 58.3926 15.4717L58.309 15.5965L57.8719 15.3979C57.8071 15.3709 57.7558 15.375 57.7197 15.415C57.5956 15.5549 57.4464 15.7286 57.272 15.9363L55.5246 18.0206C55.3486 18.2298 55.2024 18.4082 55.086 18.5544C55.053 18.596 55.0571 18.6472 55.0984 18.7051L55.3643 19.0958L55.2747 19.2143C55.024 18.9945 54.781 18.7871 54.5487 18.5922L50.3524 15.0739C50.1278 14.8853 49.8909 14.6919 49.6447 14.4938L49.7282 14.369L50.1807 14.5724C50.2363 14.5978 50.283 14.5874 50.3238 14.5429C50.4259 14.4291 50.5515 14.283 50.6993 14.1061L52.5111 11.9465C52.6855 11.7388 52.8301 11.5619 52.9465 11.4141C52.9795 11.371 52.9769 11.3214 52.9388 11.2635L52.6698 10.8712L52.7595 10.7511C53.0101 10.9741 53.2531 11.183 53.4838 11.3763C53.7145 11.5696 53.9438 11.7567 54.17 11.9344L54.0865 12.0592L53.6803 11.8781C53.6216 11.8495 53.5703 11.8598 53.5263 11.9075C53.4023 12.0443 53.2515 12.2165 53.0787 12.4242L50.8504 15.0822L52.3779 16.3629L54.6062 13.7049C54.7806 13.4972 54.9252 13.3203 55.0416 13.1725C55.0778 13.1248 55.0768 13.072 55.0386 13.0158L54.7941 12.6532L54.8838 12.5331C55.1144 12.7388 55.3451 12.9383 55.5758 13.1316C55.8065 13.3249 56.0358 13.5104 56.262 13.6896L56.18 13.816L55.7707 13.6317C55.7121 13.6032 55.6608 13.6135 55.6168 13.6611C55.4943 13.7995 55.3451 13.9733 55.1722 14.181L52.944 16.839L54.4684 18.1166L56.6966 15.4585C56.871 15.2509 57.0156 15.0755 57.1305 14.9293L57.1382 14.9325Z" fill="#5948A0"/>
<path d="M59.2761 21.1789L58.2501 21.7904C58.1315 21.8621 58.0237 21.9261 57.9285 21.9841C57.8332 22.042 57.7488 22.0955 57.6723 22.1443C57.6114 22.1825 57.5906 22.235 57.607 22.2988L57.7237 22.719L57.6017 22.8046C57.454 22.5424 57.3031 22.2832 57.149 22.0256C56.9919 21.7632 56.8287 21.4961 56.6593 21.2244L56.7797 21.1356L57.1285 21.4698C57.1746 21.5153 57.2225 21.5267 57.274 21.5024C57.3552 21.4567 57.4441 21.4064 57.5441 21.3485C57.6424 21.2905 57.7517 21.2265 57.872 21.1548L60.2908 19.7123C60.3923 19.6513 60.4828 19.5964 60.564 19.5476C60.6453 19.4972 60.7171 19.453 60.7812 19.4117C60.8312 19.3781 60.8503 19.3318 60.8354 19.2726L60.7115 18.7996L60.8365 18.7171C60.9173 18.8623 60.9965 19.0028 61.0742 19.1355C61.1504 19.2697 61.2282 19.4009 61.306 19.5305C61.3838 19.6601 61.4615 19.7882 61.5394 19.9147C61.6172 20.0396 61.6965 20.1677 61.779 20.2943L61.6601 20.3877L61.3344 20.0786C61.2899 20.0316 61.2419 20.0217 61.1919 20.0492C61.1186 20.0887 61.0405 20.1345 60.9562 20.1832C60.8719 20.232 60.7813 20.2854 60.6845 20.3433L59.5415 21.0249L59.7458 21.3669C59.8053 21.4669 59.8618 21.5544 59.9153 21.6294C59.9689 21.7044 60.0256 21.7687 60.0887 21.8221C60.1517 21.8755 60.2196 21.915 60.2938 21.9422C60.368 21.9693 60.4563 21.9858 60.5571 21.9884C60.6579 21.991 60.7744 21.9813 60.9066 21.9579C61.0387 21.9345 61.1942 21.9004 61.3732 21.8526C61.5584 21.8018 61.7156 21.7585 61.8478 21.7257C61.9785 21.6929 62.0905 21.6708 62.1837 21.661C62.2753 21.6495 62.3529 21.6503 62.4133 21.6603C62.4753 21.6702 62.5278 21.6925 62.574 21.7271C62.6202 21.7617 62.6632 21.8087 62.706 21.8697C62.7472 21.9307 62.7946 22.0056 62.8479 22.0947C62.9577 22.2789 63.0689 22.4818 63.1798 22.7049L63.0032 22.8287C62.9101 22.6819 62.8135 22.5676 62.7166 22.4859C62.6181 22.4041 62.5132 22.3472 62.3987 22.3134C62.2858 22.2796 62.1618 22.2644 62.0268 22.266C61.8918 22.2677 61.7427 22.277 61.5796 22.2924C61.4585 22.302 61.3389 22.3116 61.2193 22.3181C61.0998 22.3246 60.9818 22.3265 60.8671 22.3206C60.7523 22.3163 60.6407 22.3012 60.5339 22.2799C60.4255 22.257 60.3234 22.2218 60.2277 22.1727C60.11 22.4539 59.9892 22.721 59.8671 22.9696C59.7435 23.2197 59.6309 23.4497 59.5278 23.6612C59.4326 23.8588 59.3516 24.0364 59.2833 24.1924C59.2149 24.35 59.1685 24.4845 59.1456 24.5991C59.1356 24.658 59.1289 24.7138 59.1268 24.765C59.1262 24.8162 59.1257 24.8658 59.1329 24.9155C59.1402 24.9653 59.149 25.015 59.164 25.0648C59.1774 25.1146 59.1954 25.1722 59.218 25.2361L59.093 25.3248C58.9828 25.1793 58.8956 25.0543 58.8331 24.9496C58.7797 24.8606 58.7355 24.781 58.699 24.7124C58.6625 24.6421 58.6353 24.5782 58.6157 24.5175C58.5962 24.4568 58.5828 24.4008 58.5772 24.3464C58.5715 24.2936 58.5705 24.2377 58.5789 24.1804C58.5865 24.0439 58.6254 23.8892 58.6986 23.7161C58.7702 23.5431 58.8638 23.3532 58.9761 23.1449C59.0632 22.9782 59.155 22.807 59.2516 22.6295C59.3481 22.4521 59.4384 22.2684 59.5211 22.0784C59.545 22.0228 59.5641 21.9764 59.58 21.9378C59.5959 21.8992 59.6041 21.862 59.6076 21.8263C59.6095 21.7907 59.6052 21.7565 59.5932 21.7207C59.5811 21.6849 59.5598 21.6427 59.5309 21.5928L59.2869 21.1821L59.2761 21.1789Z" fill="#5948A0"/>
<path d="M63.659 31.6247C62.8841 31.8261 62.1974 31.749 61.6022 31.3921C61.0054 31.0351 60.5944 30.4256 60.3706 29.5636C60.1573 28.7452 60.2111 28.0552 60.5289 27.4937C60.8482 26.9322 61.3798 26.5545 62.1235 26.3606C62.8984 26.1592 63.5741 26.2408 64.1522 26.6053C64.7288 26.9698 65.1289 27.5808 65.3512 28.435C65.5645 29.255 65.5185 29.945 65.2132 30.5036C64.9078 31.0621 64.3903 31.4353 63.6589 31.6262L63.659 31.6247ZM62.4429 27.1336C61.7131 27.323 61.1947 27.631 60.8908 28.0546C60.5868 28.4781 60.5146 29.0018 60.6772 29.6258C60.8368 30.2389 61.1321 30.647 61.5598 30.847C61.9891 31.047 62.5803 31.0485 63.335 30.8532C64.0429 30.6682 64.5473 30.3724 64.8464 29.9628C65.1471 29.5532 65.2116 29.0247 65.043 28.3775C64.8789 27.7488 64.5837 27.3392 64.1574 27.1454C63.7312 26.9532 63.1586 26.9487 62.4413 27.1367L62.4429 27.1336Z" fill="#5948A0"/>
<path d="M65.0387 38.5679L62.3209 38.4851C62.1828 38.4805 62.0556 38.4777 61.9408 38.4749C61.826 38.4737 61.722 38.4726 61.6305 38.4716C61.5777 38.4711 61.5401 38.5064 61.5192 38.5744L61.3764 39.0245L61.2274 39.0307C61.2449 38.6957 61.2575 38.3762 61.2669 38.0752C61.2762 37.7727 61.2824 37.478 61.2839 37.1863L61.433 37.1754L61.5417 37.6111C61.5581 37.6748 61.5966 37.7094 61.6571 37.7131C61.7501 37.7188 61.8525 37.7229 61.9657 37.7288C62.0789 37.7331 62.2046 37.7375 62.3442 37.7421L65.8082 37.8482L65.8464 36.5715C65.4866 36.5445 65.1255 36.505 64.7645 36.4485C64.4035 36.3935 64.0459 36.3168 63.6931 36.2184C63.3388 36.1201 62.9909 35.9985 62.648 35.8521C62.305 35.7058 61.9701 35.5285 61.6433 35.3186C61.5863 35.2792 61.5371 35.2415 61.494 35.2053C61.4509 35.1692 61.4157 35.1238 61.3884 35.0677C61.361 35.0115 61.3416 34.9415 61.3301 34.8576C61.3185 34.7737 61.315 34.6666 61.3195 34.5347C61.3262 34.3331 61.3535 34.099 61.4029 33.8326L61.552 33.8218L61.5838 34.0425C61.5952 34.1342 61.6084 34.2103 61.6248 34.2726C61.6412 34.3348 61.6624 34.3924 61.6866 34.4455C61.7109 34.4985 61.743 34.5485 61.7812 34.5985C61.8195 34.647 61.8686 34.7034 61.9285 34.7661C62.0789 34.9244 62.2527 35.069 62.4515 35.1968C62.6504 35.3261 62.8633 35.4401 63.0888 35.5417C63.3143 35.6434 63.5492 35.7328 63.7889 35.8098C64.0302 35.8868 64.267 35.9498 64.5008 36.0004C64.7345 36.0509 64.9607 36.089 65.1792 36.1161C65.3977 36.1432 65.5977 36.1593 65.7793 36.1643C65.832 36.1648 65.8712 36.1265 65.8938 36.046L66.0565 35.472L66.2055 35.4689C66.1864 35.8101 66.1727 36.08 66.1675 36.2785L66.1084 38.2191C66.0991 38.5201 66.0942 38.8335 66.0939 39.1562L65.9448 39.1702L65.8303 38.7004C65.8139 38.6366 65.777 38.6005 65.7228 38.5906C65.6297 38.585 65.5274 38.5808 65.4142 38.575C65.3009 38.5707 65.1753 38.5663 65.0357 38.5617L65.0387 38.5679Z" fill="#5948A0"/>
<path d="M64.7068 45.3607L60.1479 45.6371C59.9771 45.6478 59.8559 45.6682 59.7857 45.7001C59.7156 45.7319 59.6529 45.7887 59.5962 45.8719L59.3928 46.1801L59.2488 46.1413C59.3592 45.829 59.4569 45.5383 59.5451 45.2693C59.6348 44.9955 59.7375 44.6708 59.8532 44.298L60.0003 44.3306L59.9808 44.7028C59.9803 44.7555 59.9861 44.796 59.9982 44.8225C60.0103 44.849 60.0365 44.8694 60.0752 44.8822C60.1185 44.8967 60.1805 44.9035 60.2612 44.9013C60.3403 44.899 60.4474 44.8954 60.581 44.8891L61.5762 44.8406L62.1452 43.1055L61.3887 42.4381C61.2826 42.3469 61.1965 42.2762 61.1334 42.2228C61.0703 42.1709 61.0179 42.1378 60.9762 42.1234C60.9391 42.1106 60.9064 42.1133 60.8814 42.1301C60.8549 42.1469 60.8282 42.1761 60.7998 42.2177L60.6011 42.5229L60.4495 42.481C60.5678 42.1424 60.6623 41.8656 60.7328 41.6491C60.8034 41.4326 60.8789 41.1913 60.9593 40.9222L61.1064 40.9501L61.0898 41.3472C61.0857 41.4464 61.105 41.5273 61.1463 41.5883C61.1875 41.6492 61.2565 41.726 61.3564 41.817L64.7791 44.9766L64.7068 45.3638L64.7068 45.3607ZM62.4004 43.3332L61.9147 44.8162L63.9626 44.7104L62.4004 43.3332Z" fill="#5948A0"/>
<path d="M59.8569 54.3121C59.6325 54.5488 59.4159 54.7823 59.2071 55.0145C59.1317 55.1052 59.0091 55.2529 58.8394 55.456C58.6697 55.659 58.5534 55.7943 58.4922 55.8635C58.1216 56.2771 57.7714 56.5248 57.4416 56.6098C57.1117 56.6948 56.8146 56.6187 56.5517 56.3832C56.1274 56.0032 56.0629 55.4951 56.3566 54.8589C56.0498 55.1101 55.7505 55.2451 55.457 55.2638C55.1635 55.2824 54.8976 55.1849 54.6609 54.9714C54.3165 54.6621 54.1731 54.2866 54.2289 53.8434C54.2863 53.4002 54.5317 52.9373 54.9666 52.4531C55.053 52.3562 55.1487 52.2548 55.2553 52.1473C55.362 52.0398 55.4765 51.9168 55.6021 51.777C55.8063 51.5494 56.0136 51.3126 56.2225 51.0697L56.3442 51.1578L56.1286 51.5901C56.0985 51.6472 56.1027 51.6969 56.141 51.7376C56.2086 51.8019 56.2839 51.8726 56.3685 51.9495C56.453 52.0264 56.5468 52.1127 56.6498 52.2054L58.7451 54.0863C58.8327 54.1648 58.9127 54.2355 58.9834 54.2983C59.0541 54.3611 59.1203 54.4161 59.1787 54.4664C59.2249 54.5041 59.2745 54.5078 59.3276 54.4773L59.7415 54.2178L59.8569 54.3121ZM57.1575 53.66L55.5894 52.2517C55.5207 52.2913 55.4488 52.3448 55.3782 52.4139C55.3061 52.483 55.2434 52.5491 55.1884 52.6106C54.9089 52.9211 54.7677 53.2206 54.7631 53.5092C54.7601 53.7978 54.8908 54.063 55.1598 54.3048C55.4288 54.5466 55.7009 54.6441 55.9776 54.5958C56.2543 54.549 56.5575 54.3427 56.8857 53.9784C56.9814 53.8723 57.0725 53.7662 57.1575 53.66ZM57.3635 53.8453C57.2583 53.959 57.1515 54.0774 57.0432 54.1957C56.7951 54.4724 56.6682 54.7365 56.6656 54.9894C56.663 55.2407 56.7769 55.4716 57.0121 55.682C57.2581 55.9033 57.5008 55.9897 57.7387 55.941C57.9767 55.8923 58.2173 55.7319 58.4638 55.4582C58.5078 55.409 58.5534 55.3552 58.6036 55.2952C58.6524 55.2352 58.7043 55.1675 58.7578 55.0951L57.365 53.8453L57.3635 53.8453Z" fill="#5948A0"/>
<path d="M47.7593 59.3379C47.6877 59.2193 47.6221 59.1115 47.5626 59.0147C47.503 58.9178 47.4481 58.8304 47.3993 58.7523C47.3672 58.7038 47.3099 58.6924 47.2243 58.7194L46.7948 58.8359L46.7107 58.7125C46.9933 58.5509 47.2649 58.3924 47.5226 58.2368C47.7834 58.0797 48.0505 57.9165 48.3207 57.7455L48.4141 57.8645L48.0815 58.2148C48.0329 58.2624 48.0215 58.3119 48.0458 58.3618C48.0915 58.443 48.1433 58.532 48.2013 58.6303C48.2592 58.7287 48.3232 58.838 48.3949 58.9567L49.8453 61.3709C49.9063 61.4724 49.9613 61.563 50.0116 61.6442C50.062 61.7254 50.1078 61.7973 50.149 61.8613C50.1826 61.9113 50.229 61.9289 50.2912 61.914L50.7596 61.7901L50.8468 61.9121C50.5611 62.0736 50.2894 62.2306 50.0333 62.3846C49.7726 62.5417 49.5055 62.7065 49.2336 62.8821L49.1433 62.7616L49.4791 62.4098C49.5246 62.3668 49.5328 62.3188 49.5085 62.2674C49.4689 62.1971 49.4247 62.1191 49.3759 62.0363C49.3272 61.9536 49.2738 61.863 49.2158 61.7662L47.7578 59.341L47.7593 59.3379ZM52.7138 59.663L52.1251 58.6839C51.9625 58.8032 51.7968 58.9132 51.6313 59.0124C51.0723 59.3479 50.5943 59.5011 50.2004 59.4737C49.805 59.4448 49.4998 59.2507 49.2847 58.8915C49.1459 58.662 49.0754 58.4378 49.0699 58.2189C49.0644 58.0001 49.11 57.7942 49.2067 57.5981C49.3035 57.4021 49.4419 57.2189 49.6237 57.047C49.8055 56.8751 50.0105 56.719 50.2416 56.5802C50.3462 56.5176 50.4633 56.4506 50.5912 56.3821C50.7208 56.3121 50.8628 56.2313 51.0174 56.1383C51.2813 55.9797 51.5484 55.8149 51.8202 55.644L51.9105 55.7644L51.5779 56.1147C51.5324 56.1608 51.521 56.2088 51.5453 56.2602C51.591 56.3414 51.6428 56.4304 51.7008 56.5303C51.7587 56.6287 51.8227 56.738 51.8944 56.8567L53.3448 59.2709C53.4059 59.3724 53.4608 59.4629 53.5111 59.5442C53.5615 59.6254 53.6073 59.6972 53.6485 59.7613C53.6821 59.8113 53.7285 59.8289 53.7876 59.8155L54.2607 59.6901L54.3447 59.8136C54.0606 59.9735 53.7905 60.1305 53.5328 60.2861C53.2736 60.4417 52.9956 60.6141 52.7019 60.8019L52.6085 60.683L52.9756 60.3004C53.0196 60.2497 53.0294 60.2017 53.005 60.158C52.9654 60.0862 52.9212 60.0097 52.8724 59.9269C52.8237 59.8442 52.7718 59.7567 52.7169 59.6646L52.7138 59.663ZM51.9802 58.4434L50.8669 56.5883C50.7377 56.6195 50.5849 56.6893 50.4038 56.7976C50.0602 57.005 49.8513 57.2433 49.7771 57.5125C49.7029 57.7818 49.7619 58.0772 49.9541 58.3958C50.1478 58.7175 50.3818 58.8999 50.6575 58.9432C50.9333 58.9864 51.2648 58.8921 51.6521 58.6603C51.6989 58.6313 51.752 58.5993 51.8067 58.5611C51.863 58.5229 51.9208 58.4832 51.9802 58.4419L51.9802 58.4434Z" fill="#5948A0"/>
<path d="M41.2657 64.0491L41.4075 63.9932L41.8908 64.8161C42.2121 64.8117 42.4964 64.7805 42.7453 64.7195C43.3474 64.5738 43.7727 64.2663 44.0227 63.7988C44.2728 63.3312 44.3235 62.7902 44.1748 62.1757C44.0156 61.5192 43.6916 61.0425 43.2044 60.7457C42.7171 60.4488 42.125 60.3852 41.4312 60.5533C41.0407 60.6485 40.6463 60.8166 40.2481 61.0576L40.1704 60.9156C40.5799 60.4916 41.0903 60.2067 41.7017 60.0595C42.4951 59.8677 43.1896 59.9339 43.7867 60.2583C44.3839 60.5827 44.7694 61.1081 44.9449 61.8315C45.1324 62.6032 45.0104 63.28 44.5807 63.8605C44.151 64.441 43.5044 64.8361 42.6395 65.0458C42.2241 65.147 41.789 65.2029 41.3311 65.2152L41.2987 65.1947L41.2626 64.0491L41.2657 64.0491Z" fill="#5948A0"/>
<path d="M32.4041 63.1203C32.442 62.32 32.7201 61.6883 33.2386 61.2251C33.7571 60.7619 34.4607 60.5505 35.351 60.5924C36.1963 60.6323 36.8392 60.8874 37.2796 61.359C37.7215 61.8308 37.923 62.4505 37.887 63.2182C37.8491 64.0185 37.5711 64.6394 37.0512 65.0824C36.5314 65.5254 35.8295 65.7259 34.947 65.6841C34.1001 65.6442 33.4556 65.3953 33.0135 64.9376C32.5714 64.4799 32.3683 63.8741 32.4041 63.1203ZM37.0529 63.2948C37.0887 62.541 36.949 61.9561 36.6353 61.5385C36.3215 61.1224 35.8428 60.8986 35.1991 60.867C34.5663 60.8371 34.0898 60.9966 33.7712 61.3471C33.4525 61.6975 33.2743 62.262 33.2382 63.0406C33.2042 63.7711 33.3379 64.3405 33.6393 64.7486C33.9407 65.1568 34.4272 65.3761 35.0957 65.4079C35.744 65.438 36.2236 65.2785 36.5346 64.928C36.8455 64.5775 37.0188 64.0331 37.0529 63.2932L37.0529 63.2948Z" fill="#5948A0"/>
<path d="M28.1051 61.7067L28.5111 60.5829C28.559 60.4515 28.6006 60.334 28.6373 60.2304C28.6741 60.1253 28.7062 60.0294 28.735 59.9443C28.7574 59.8763 28.7409 59.8218 28.6886 59.784L28.3327 59.5336L28.373 59.3897C28.6528 59.4981 28.9341 59.6035 29.217 59.7058C29.5045 59.8096 29.7998 59.9136 30.1044 60.0161L30.0672 60.1616L29.585 60.1239C29.5199 60.1171 29.4762 60.1399 29.4524 60.1908C29.4189 60.2774 29.3822 60.3732 29.3408 60.4814C29.3008 60.588 29.2561 60.7071 29.2098 60.8385L28.251 63.4866C28.211 63.5979 28.1758 63.6984 28.1438 63.788C28.1134 63.8777 28.0862 63.9581 28.0622 64.0308C28.0445 64.088 28.0595 64.1363 28.1072 64.1725L28.503 64.4591L28.4596 64.6014C28.3051 64.5408 28.1552 64.4818 28.0115 64.4275C27.8677 64.3733 27.724 64.3205 27.5817 64.2678C27.4395 64.2167 27.2988 64.1671 27.1581 64.1175C27.019 64.0695 26.8767 64.0215 26.7329 63.975L26.7655 63.8279L27.2136 63.8605C27.2771 63.8689 27.3208 63.8461 27.3431 63.792C27.3734 63.7148 27.4069 63.6298 27.4404 63.5386C27.474 63.4474 27.5107 63.3484 27.549 63.2418L28.0013 61.9912L27.6272 61.8553C27.5174 61.8154 27.4185 61.7833 27.3303 61.7591C27.2405 61.7349 27.1553 61.7216 27.0746 61.7192C26.9924 61.7183 26.9147 61.7299 26.8399 61.7555C26.7652 61.7811 26.6871 61.8253 26.6074 61.8865C26.5276 61.9478 26.4429 62.0307 26.355 62.1306C26.267 62.2321 26.1695 62.3583 26.0608 62.5077C25.9506 62.6648 25.8545 62.7973 25.7742 62.9066C25.694 63.0144 25.6201 63.1021 25.5558 63.1697C25.4915 63.2357 25.432 63.2847 25.3774 63.3152C25.3227 63.3457 25.2667 63.3622 25.2108 63.3662C25.1534 63.3687 25.0898 63.3603 25.0187 63.3394C24.9475 63.3185 24.864 63.2912 24.7666 63.256C24.5641 63.1825 24.3509 63.0949 24.1238 62.9933L24.1834 62.7859C24.3489 62.8404 24.496 62.8684 24.6232 62.8697C24.7505 62.871 24.8686 62.8474 24.9777 62.802C25.0868 62.7566 25.193 62.691 25.2948 62.6036C25.3982 62.5163 25.5078 62.415 25.6239 62.2998C25.7101 62.2154 25.7979 62.1325 25.8872 62.0512C25.9749 61.9699 26.0657 61.8948 26.158 61.826C26.2503 61.7571 26.3455 61.6976 26.4423 61.6458C26.5406 61.5957 26.6418 61.5579 26.7461 61.5342C26.6591 61.2415 26.5829 60.9599 26.5206 60.6877C26.4583 60.4155 26.3988 60.1666 26.3454 59.9379C26.2933 59.7247 26.244 59.5365 26.1977 59.3715C26.1513 59.2065 26.1015 59.0725 26.0467 58.9696C26.0178 58.9165 25.9872 58.8712 25.9566 58.8305C25.926 58.7898 25.8923 58.7522 25.8569 58.7177C25.8216 58.6832 25.7816 58.6518 25.7384 58.6218C25.6953 58.5919 25.646 58.5588 25.589 58.5225L25.6309 58.3755C25.8089 58.4177 25.9543 58.4596 26.0687 58.5012C26.1661 58.5363 26.2511 58.5698 26.3221 58.6C26.3947 58.6303 26.4565 58.6635 26.5104 58.6982C26.5644 58.7329 26.6106 58.7675 26.649 58.8052C26.6874 58.8428 26.7226 58.8851 26.7531 58.9335C26.8342 59.0445 26.901 59.188 26.955 59.3686C27.0089 59.5476 27.058 59.7545 27.1021 59.9862C27.1405 60.1697 27.1773 60.3609 27.2156 60.5584C27.2523 60.7559 27.2999 60.955 27.3552 61.1557C27.3717 61.2133 27.3867 61.2616 27.3987 61.3021C27.4107 61.3425 27.4274 61.3769 27.4488 61.405C27.4687 61.4331 27.4963 61.4583 27.5272 61.4772C27.5596 61.4977 27.6013 61.5168 27.6569 61.5375L28.1052 61.7005L28.1051 61.7067Z" fill="#5948A0"/>
<path d="M18.096 56.409C18.5667 55.7606 19.1464 55.3865 19.8349 55.2836C20.5218 55.1806 21.2272 55.3913 21.9479 55.9156C22.6317 56.4131 23.0292 56.979 23.1389 57.6164C23.2486 58.2522 23.0776 58.882 22.6257 59.5042C22.1549 60.1525 21.5801 60.5173 20.9026 60.6018C20.2252 60.6862 19.5292 60.4679 18.8146 59.9483C18.1293 59.4492 17.7271 58.8879 17.6079 58.2629C17.4903 57.6378 17.6535 57.0204 18.096 56.409ZM21.8865 59.1085C22.3305 58.4986 22.5351 57.9328 22.5018 57.4111C22.4684 56.8894 22.1907 56.4411 21.6702 56.0616C21.1574 55.6885 20.6715 55.5608 20.2125 55.6786C19.7535 55.7964 19.2949 56.1702 18.8367 56.8016C18.4069 57.393 18.2056 57.9433 18.2329 58.4494C18.2617 58.9556 18.5456 59.407 19.0877 59.8007C19.6128 60.1817 20.1018 60.3125 20.5531 60.19C21.006 60.0675 21.4489 59.7075 21.885 59.1084L21.8865 59.1085Z" fill="#5948A0"/>
<path d="M16.2462 52.1457C16.4621 51.9789 16.6373 51.8379 16.7735 51.7261C16.8158 51.6908 16.824 51.6428 16.7983 51.582L16.5925 51.0802L16.7053 50.9821C16.9241 51.2761 17.1262 51.5405 17.3099 51.7783C17.4936 52.0161 17.6897 52.2602 17.8949 52.5137L17.7868 52.6166L17.3988 52.327C17.3434 52.286 17.2953 52.2809 17.2515 52.313C17.0998 52.4247 16.9168 52.564 16.7009 52.7309L14.4778 54.4579C14.3839 54.5299 14.301 54.5957 14.2259 54.6554C14.1523 54.7152 14.085 54.7688 14.0271 54.8178C13.9817 54.8562 13.9688 54.9057 13.9899 54.9618L14.1714 55.4152L14.0586 55.5134C13.8658 55.2506 13.6776 55.0004 13.4939 54.7626L12.9473 54.0586C12.566 53.5673 12.1954 53.0979 11.8339 52.6488L11.8421 52.6131L13.0088 52.0373L13.121 52.1424L12.5054 52.9848L13.5052 54.2708L16.2478 52.1411L16.2462 52.1457Z" fill="#5948A0"/>
<path d="M10.1309 43.9696C10.8697 43.6592 11.5589 43.6385 12.2001 43.9075C12.8412 44.1765 13.3336 44.7216 13.6788 45.543C14.0058 46.3223 14.0514 47.0133 13.8154 47.6145C13.5794 48.2157 13.1077 48.6654 12.3985 48.9621C11.6597 49.2724 10.9799 49.287 10.3559 49.0089C9.73347 48.7293 9.2504 48.1827 8.90823 47.3691C8.57969 46.5866 8.52794 45.8987 8.74988 45.302C8.97338 44.7054 9.43269 44.2617 10.1278 43.9695L10.1309 43.9696ZM11.9731 48.2423C12.6682 47.9501 13.1377 47.5717 13.3784 47.1103C13.6192 46.6473 13.6154 46.1196 13.3671 45.5258C13.1218 44.9413 12.7718 44.5807 12.3202 44.4426C11.8669 44.3059 11.2811 44.3882 10.561 44.6894C9.88611 44.9725 9.43072 45.3386 9.19171 45.7861C8.95271 46.2336 8.96263 46.7675 9.22152 47.3848C9.47284 47.9833 9.82281 48.3485 10.273 48.4774C10.7232 48.6078 11.2904 48.5299 11.9731 48.2423Z" fill="#5948A0"/>
<path d="M8.06518 32.4864L8.0791 32.6387L7.15338 32.8695C7.06635 33.1789 7.01684 33.4608 7.00331 33.7151C6.972 34.334 7.14526 34.8292 7.5231 35.201C7.90093 35.5742 8.40468 35.7766 9.03592 35.808C9.71059 35.8415 10.2602 35.6673 10.6816 35.2837C11.1046 34.9003 11.3338 34.3518 11.3692 33.6384C11.389 33.2367 11.3391 32.811 11.2212 32.3597L11.3799 32.3257C11.6693 32.8377 11.7984 33.4085 11.767 34.0367C11.7258 34.8525 11.4661 35.4999 10.9847 35.979C10.5048 36.4597 9.8911 36.6813 9.14665 36.644C8.35411 36.6047 7.73974 36.2957 7.30507 35.7201C6.87042 35.1429 6.67482 34.41 6.7198 33.5229C6.74134 33.0964 6.81106 32.6626 6.92742 32.22L6.95716 32.1955L8.06518 32.4864Z" fill="#5948A0"/>
<path d="M7.88627 27.6233L8.1701 26.748C8.34488 26.2098 8.52464 25.6406 8.7094 25.039L8.74368 25.0254L9.697 25.566L9.67369 25.7179L8.83754 25.6936L8.29715 27.3591L10.1143 27.9492L10.2201 27.6214C10.3019 27.3709 10.3886 27.0925 10.485 26.7831C10.5027 26.7197 10.4861 26.6699 10.4384 26.6321L10.0332 26.361L10.0895 26.1645C10.3957 26.2717 10.623 26.3485 10.7699 26.3966C10.9137 26.4431 11.1395 26.5122 11.4474 26.6039L11.3972 26.802L10.9024 26.7844C10.8388 26.7837 10.7966 26.8128 10.7774 26.8669C10.6717 27.1777 10.5772 27.4591 10.4954 27.7112L10.3896 28.0359L11.5912 28.4256C11.8356 28.5058 12.0769 28.5812 12.3166 28.6536L12.8778 26.9246L12.1824 26.2128L12.209 26.0424L13.3324 26.4949L13.3475 26.5276C13.1393 27.1477 12.9502 27.7214 12.7786 28.2472L12.4996 29.1055C12.405 29.3962 12.3119 29.6947 12.2202 30.0026L12.0731 29.9715L12.0953 29.4892C12.0991 29.4241 12.0762 29.3804 12.0237 29.3581C11.9371 29.3277 11.8382 29.2925 11.7299 29.2572C11.6217 29.2204 11.5011 29.1804 11.3696 29.1386L8.69107 28.2695C8.57818 28.2326 8.47765 28.2005 8.38638 28.1732C8.29511 28.1459 8.21314 28.1202 8.14042 28.0992C8.08318 28.0831 8.03645 28.0997 8.00024 28.149L7.72599 28.5542L7.58208 28.5154C7.69083 28.2078 7.79323 27.9125 7.88468 27.6264L7.88627 27.6233Z" fill="#5948A0"/>
<path d="M14.2389 22.484C14.356 22.5582 14.4624 22.6245 14.5564 22.6829C14.6505 22.7413 14.7368 22.7934 14.8124 22.8376C14.8587 22.8645 14.9069 22.8557 14.9555 22.8112L15.3581 22.4477L15.4876 22.522C15.2858 22.8271 15.1044 23.1076 14.945 23.362C14.7809 23.6209 14.6168 23.8877 14.4525 24.1622L14.3182 24.0956L14.458 23.6331C14.4773 23.5681 14.4654 23.5199 14.4223 23.4884C14.3453 23.4364 14.259 23.3796 14.1634 23.3181C14.0678 23.255 13.9599 23.1871 13.8428 23.113L11.4626 21.6092C11.3624 21.5461 11.273 21.4893 11.1913 21.4403C11.1111 21.3914 11.0371 21.3471 10.9708 21.3077C10.9183 21.2776 10.8686 21.2818 10.8232 21.3216L10.4582 21.6468L10.3286 21.574C10.5099 21.3028 10.685 21.0378 10.8506 20.7757C10.9627 20.6 11.0653 20.4257 11.1618 20.256C11.2582 20.0864 11.3483 19.9337 11.435 19.798C11.7553 19.2924 12.0877 18.9669 12.4322 18.8216C12.7767 18.6762 13.1285 18.7172 13.4861 18.9444C13.9069 19.211 14.1391 19.5673 14.1825 20.0146C14.2259 20.462 14.0764 20.9554 13.734 21.4965C13.6394 21.646 13.5307 21.8 13.4049 21.9585L14.2419 22.4872L14.2389 22.484ZM13.1551 21.7992C13.2729 21.6639 13.3784 21.5253 13.4699 21.3789C13.6861 21.0367 13.77 20.7256 13.7202 20.4458C13.6719 20.166 13.4805 19.9204 13.1475 19.7105C12.8284 19.5085 12.5374 19.4434 12.2729 19.5135C12.0099 19.5837 11.7624 19.8015 11.5305 20.1668C11.4405 20.3102 11.3567 20.4583 11.2806 20.6142L13.1536 21.7976L13.1551 21.7992Z" fill="#5948A0"/>
<path d="M14.5949 15.6243C14.8377 15.4065 15.0727 15.1902 15.3 14.9753C15.3831 14.8908 15.5164 14.7541 15.7031 14.5652C15.8881 14.3763 16.0152 14.2504 16.0825 14.1875C16.4853 13.8053 16.8539 13.5857 17.1912 13.5272C17.527 13.4686 17.8161 13.5679 18.0602 13.8249C18.4515 14.2387 18.4757 14.7495 18.131 15.3604C18.4561 15.1341 18.7661 15.0241 19.0609 15.0303C19.3541 15.0349 19.612 15.154 19.8315 15.386C20.1492 15.7214 20.263 16.1089 20.17 16.5456C20.077 16.9822 19.7946 17.4246 19.3228 17.8727C19.2288 17.9617 19.1254 18.0553 19.0111 18.1534C18.8968 18.2515 18.7714 18.3666 18.6351 18.4955C18.4125 18.7058 18.1868 18.9237 17.9594 19.1495L17.8456 19.0521L18.0951 18.6388C18.1298 18.5833 18.1303 18.5337 18.0967 18.4899C18.0353 18.4209 17.9647 18.3442 17.8865 18.2611C17.8082 18.1765 17.7223 18.084 17.6256 17.9837L15.6887 15.9399C15.6073 15.8537 15.5336 15.7769 15.4676 15.7095C15.4016 15.6421 15.3417 15.5809 15.2864 15.526C15.2434 15.4837 15.1938 15.477 15.1393 15.5028L14.7055 15.7279L14.598 15.6243L14.5949 15.6243ZM17.0428 16.2908C17.1572 16.185 17.2731 16.0776 17.3907 15.9671C17.6602 15.7108 17.8072 15.4578 17.8316 15.2067C17.8559 14.9556 17.7591 14.7171 17.5427 14.4883C17.3156 14.2485 17.0808 14.1421 16.84 14.1706C16.5992 14.1991 16.3447 14.3407 16.0783 14.5924C16.0313 14.6369 15.9795 14.6876 15.9262 14.7445C15.8713 14.8013 15.8148 14.8628 15.7566 14.932L17.0443 16.2909L17.0428 16.2908ZM17.2331 16.493L18.6835 18.0227C18.7552 17.9893 18.8302 17.9405 18.9069 17.8777C18.9836 17.8148 19.0525 17.7535 19.1121 17.6967C19.4146 17.4097 19.5805 17.1228 19.6083 16.8345C19.6362 16.5477 19.5258 16.2719 19.2771 16.0101C19.0285 15.7484 18.7644 15.6292 18.4848 15.6542C18.2052 15.6792 17.8868 15.859 17.531 16.1967C17.4276 16.2949 17.3272 16.3931 17.2346 16.493L17.2331 16.493Z" fill="#5948A0"/>
<path d="M23.4864 13.5544L23.7266 14.024C23.754 14.0771 23.8034 14.0962 23.875 14.0814L24.3041 13.9991L24.3819 14.1271C24.1106 14.2577 23.8407 14.3899 23.5739 14.5267C23.3056 14.6636 23.0279 14.8081 22.7407 14.9618L22.6598 14.8353L23.017 14.51C23.0672 14.464 23.0816 14.4161 23.0589 14.3677C22.9784 14.1977 22.8766 13.9918 22.7519 13.7485L21.4747 11.2383C21.3698 11.0324 21.28 10.8623 21.2069 10.7281C21.178 10.6766 21.1332 10.6544 21.0726 10.6646L20.5921 10.7573L20.5175 10.6277C20.8122 10.4881 21.093 10.3498 21.3613 10.2145C21.6312 10.0777 21.8964 9.93771 22.1555 9.79456L22.2396 9.91959L21.9105 10.2234C21.8604 10.2647 21.8475 10.3112 21.8718 10.3642C21.9432 10.5154 22.0298 10.6902 22.1316 10.8914L23.2613 13.1098L24.5293 9.39429L24.3742 9.09163C24.3498 9.04482 24.3019 9.0288 24.2304 9.04357L23.8012 9.12596L23.7234 8.9979C24.0026 8.86583 24.2771 8.73216 24.5485 8.5938C24.8169 8.45695 25.0899 8.3124 25.3677 8.1617L25.4486 8.28824L25.0851 8.6258C25.0412 8.66879 25.0329 8.71681 25.0572 8.77138C25.1193 8.91168 25.2029 9.0848 25.3093 9.29075L26.5865 11.8009C26.7112 12.0443 26.8177 12.2471 26.9107 12.411C26.9366 12.4579 26.9829 12.4739 27.0514 12.4606L27.5179 12.3677L27.5925 12.4973C27.29 12.6431 27.0045 12.786 26.7346 12.9228C26.4663 13.0597 26.2041 13.1966 25.9513 13.3336L25.8673 13.2085L26.1963 12.9048C26.2449 12.8618 26.2563 12.8123 26.2305 12.7546L25.925 12.1384L24.7558 9.84202L23.4879 13.5576L23.4864 13.5544Z" fill="#5948A0"/>
<path d="M33.3336 7.46265L33.1888 7.50924L32.7554 6.65899C32.4344 6.64321 32.1487 6.65883 31.8968 6.7043C31.2874 6.81428 30.8438 7.09515 30.5659 7.54689C30.2881 7.99864 30.2048 8.53622 30.3163 9.15809C30.4365 9.8235 30.7308 10.3185 31.1992 10.6431C31.6675 10.9676 32.2546 11.0669 32.9573 10.9408C33.3522 10.8705 33.7572 10.7258 34.1691 10.5082L34.2374 10.6548C33.8034 11.0521 33.2762 11.3073 32.6575 11.4187C31.8537 11.5639 31.1643 11.4558 30.5877 11.096C30.0111 10.7361 29.6568 10.1893 29.5249 9.45548C29.3841 8.67347 29.5462 8.00637 30.0098 7.45261C30.4734 6.89885 31.1428 6.54276 32.0181 6.38591C32.4379 6.31117 32.8773 6.2801 33.3334 6.29419L33.3642 6.31624L33.3321 7.46109L33.3336 7.46265Z" fill="#5948A0"/>
<path d="M39.625 6.23763L40.8825 10.6283C40.9304 10.7933 40.9757 10.907 41.0217 10.968C41.0676 11.029 41.1369 11.0794 41.2296 11.1161L41.5743 11.2469L41.5665 11.3958C41.2379 11.3567 40.9326 11.3224 40.6505 11.2946C40.3637 11.2668 40.0257 11.2369 39.635 11.2049L39.6366 11.0544L40.0019 10.993C40.0532 10.9827 40.0906 10.9676 40.1141 10.9507C40.1375 10.9339 40.1502 10.9046 40.1553 10.8627C40.1605 10.8162 40.1518 10.7541 40.134 10.6778C40.1146 10.6001 40.0878 10.4974 40.0519 10.3682L39.7888 9.408L37.972 9.22911L37.4848 10.1131C37.4199 10.2366 37.3677 10.3354 37.3297 10.4079C37.2917 10.4804 37.2709 10.5392 37.2673 10.5826C37.2638 10.6214 37.2728 10.6525 37.2943 10.6744C37.3158 10.6964 37.3497 10.7169 37.3961 10.7345L37.7377 10.8622L37.7298 11.0188C37.3734 10.9763 37.082 10.9453 36.8556 10.9228C36.6293 10.9002 36.3766 10.8789 36.096 10.8589L36.0913 10.7084L36.4831 10.638C36.5811 10.6204 36.6559 10.5839 36.7061 10.5317C36.7563 10.4779 36.8162 10.3932 36.8841 10.2775L39.226 6.25206L39.6188 6.23912L39.625 6.23763ZM38.1459 8.92835L39.6992 9.0812L39.1519 7.10474L38.1459 8.92835Z" fill="#5948A0"/>
<path d="M29.9916 71.1189C25.9426 70.4231 22.005 69.0178 18.3322 66.9185C10.0735 62.1999 4.1468 54.5466 1.64219 45.3697C-0.859315 36.1929 0.360108 26.5911 5.08022 18.331C9.79877 10.0725 17.4521 4.14602 26.6275 1.64312C35.8045 -0.859765 45.408 0.3598 53.6667 5.07995C61.9254 9.79855 67.8521 17.4519 70.3567 26.6288C72.8598 35.8056 71.6404 45.4074 66.9203 53.6659C62.2017 61.9245 54.5484 67.8509 45.3714 70.3554C40.2748 71.745 35.0475 71.9866 29.9916 71.1189ZM41.9012 1.82664C27.9356 -0.571459 13.3179 5.79869 5.89158 18.7958C-3.5945 35.3976 2.19467 56.621 18.7969 66.1057C22.4018 68.1654 26.2253 69.5043 30.0978 70.1703C44.0633 72.5684 58.681 66.1982 66.1074 53.2012C75.5934 36.5993 69.8043 15.3759 53.202 5.89129C49.5971 3.83155 45.7736 2.49107 41.9012 1.82664Z" fill="#BDCE76"/>
<path d="M47.0335 51.7972C46.9684 51.7965 46.9034 51.7818 46.8416 51.7532C46.7767 51.7231 40.2217 48.6533 34.7764 47.6403C29.3403 46.629 22.2441 47.526 22.1726 47.5361C22.0498 47.5519 21.926 47.518 21.8291 47.4425C21.7321 47.367 21.6681 47.2546 21.6539 47.1334L19.1202 26.2342C19.093 26.0151 19.2255 25.8086 19.4341 25.7394C19.6428 25.6702 19.8731 25.7579 19.9813 25.9499C20.03 26.0373 24.9841 34.6798 30.1383 35.6385C34.2363 36.3984 38.3404 23.2562 39.575 18.1266C39.6318 17.8929 39.8568 17.7416 40.0923 17.7767C40.3294 17.8117 40.501 18.023 40.486 18.2618C40.0352 25.8886 40.3982 38.1885 43.2912 38.7263C47.3861 39.4846 56.1783 31.3432 56.2661 31.2618C56.4306 31.1068 56.6837 31.0955 56.8623 31.2324C57.0408 31.3693 57.0957 31.6166 56.9896 31.8156L48.8953 47.0916C48.8336 47.2073 48.7272 47.2916 48.5996 47.3228C48.4736 47.3541 48.3388 47.3325 48.2294 47.2599C48.1955 47.2379 44.7277 44.9841 37.0683 43.3458C29.5298 41.7336 26.4513 43.3369 26.4201 43.3536C26.197 43.4739 25.9154 43.3933 25.7936 43.1702C25.6702 42.947 25.7492 42.6685 25.9724 42.5436C26.1051 42.4689 29.3244 40.743 37.2625 42.44C43.6523 43.8059 47.147 45.5649 48.3054 46.2257L54.9971 33.5963C52.2482 35.8905 47.1399 39.7303 43.7729 39.695C43.5464 39.6926 43.3294 39.6733 43.1203 39.6338C41.0388 39.2473 39.8591 35.5806 39.5121 28.4234C39.4035 26.197 39.3989 23.978 39.4286 22.1798C37.8043 27.6156 34.4961 36.6339 30.4418 36.5929C30.2851 36.5913 30.1269 36.5756 29.9674 36.546C25.8772 35.7862 22.0957 30.8881 20.2868 28.1815L22.5149 46.5621C24.2067 46.375 30.1137 45.8317 34.9426 46.7296C40.5088 47.764 47.1672 50.8846 47.2336 50.9163C47.4653 51.0258 47.5632 51.3015 47.4553 51.5316C47.3759 51.6999 47.2073 51.799 47.032 51.7971L47.0335 51.7972Z" fill="#BDCE76"/>
</svg>
