<svg width="44" height="88" viewBox="0 0 44 88" fill="none" xmlns="http://www.w3.org/2000/svg">
<g clip-path="url(#clip0_296_1493)">
<path d="M5.29126 85.9043C4.80069 64.6654 4.84741 43.4147 5.43143 22.1875C5.51319 19.2721 5.60663 16.3684 5.70008 13.453C5.79352 10.5377 6.19065 7.36469 5.89864 4.40247C5.73512 2.79843 1.44842 4.0161 1.21481 5.32743C0.747593 7.98523 0.864397 10.8069 0.770954 13.4882C0.677511 16.1694 0.595748 18.7335 0.525666 21.3445C0.373821 26.6835 0.257017 32.0225 0.163574 37.3615C4.8921e-05 47.9693 -0.0466726 58.5653 0.0467704 69.1731C0.105172 75.1912 0.198615 81.2093 0.33878 87.2274C0.373821 88.7846 5.3263 87.8128 5.27958 85.9043H5.29126Z" fill="#5948A0"/>
<path d="M42.8202 83.1176C43.4393 62.1948 43.6378 41.272 43.4159 20.3491C43.3575 14.3193 43.2524 8.28953 43.1239 2.25973C43.0889 0.84302 38.5686 1.72115 38.6153 3.4774C39.0708 24.2831 39.1175 45.1006 38.7438 65.9063C38.6386 71.8425 38.4868 77.7786 38.3116 83.703C38.2532 85.553 42.7852 84.6397 42.8202 83.141V83.1176Z" fill="#5948A0"/>
<path d="M3.50412 7.24747C8.62013 7.20064 13.8179 5.78393 18.8405 4.94093C26.1173 3.71155 33.4877 2.58755 40.8814 2.56413C41.8508 2.56413 43.3342 2.248 43.8598 1.33475C44.3855 0.421501 43.416 0 42.6334 0C35.1346 0.0234167 27.6825 1.07717 20.3005 2.30655C17.1702 2.82171 14.0515 3.39542 10.9328 3.9223C9.77649 4.12134 8.62013 4.30867 7.46377 4.47259C7.00824 4.53113 6.5527 4.58967 6.08549 4.63651C5.86356 4.65993 5.64163 4.68334 5.40802 4.69505C5.26786 4.69505 5.75844 4.69505 5.25618 4.69505C4.28671 4.69505 2.81498 4.99947 2.27768 5.92443C1.74038 6.84939 2.72154 7.25918 3.50412 7.25918V7.24747Z" fill="#5948A0"/>
<path d="M6.48262 85.6351C14.0048 73.6106 19.2726 60.2982 25.7903 47.7351C26.7714 45.8384 22.2745 46.3184 21.5854 47.6415C15.0677 60.2045 9.79985 73.5169 2.27768 85.5414C1.71702 86.4429 2.76825 86.8293 3.50412 86.8762C4.45023 86.923 5.93364 86.5132 6.48262 85.6468V85.6351Z" fill="#5948A0"/>
<path d="M20.8144 48.7185C26.5846 60.0054 33.1489 70.9059 39.6666 81.7829C40.4258 83.0474 44.8176 81.619 43.8598 80.0149C37.4473 69.3252 31.0114 58.6121 25.3348 47.5126C24.5522 45.9671 20.1603 47.4306 20.8261 48.7302L20.8144 48.7185Z" fill="#5948A0"/>
</g>
<defs>
<clipPath id="clip0_296_1493">
<rect width="44" height="88" fill="white"/>
</clipPath>
</defs>
</svg>
