<svg width="35" height="34" viewBox="0 0 35 34" fill="none" xmlns="http://www.w3.org/2000/svg">
<rect x="0.5" width="34" height="34" rx="4" fill="white"/>
<path fill-rule="evenodd" clip-rule="evenodd" d="M15.886 13.3564C15.6543 13.2174 15.3657 13.2138 15.1306 13.3469C14.8955 13.48 14.7501 13.7293 14.7501 13.9995V19.9995C14.7501 20.2697 14.8955 20.5191 15.1306 20.6522C15.3657 20.7853 15.6543 20.7817 15.886 20.6427L20.886 17.6427C21.1119 17.5071 21.2501 17.263 21.2501 16.9995C21.2501 16.7361 21.1119 16.492 20.886 16.3564L15.886 13.3564ZM19.0424 16.9995L16.2501 18.6749V15.3242L19.0424 16.9995Z" fill="#5948A0"/>
<path fill-rule="evenodd" clip-rule="evenodd" d="M22.5308 9.64082C19.1821 9.37884 15.8182 9.37884 12.4695 9.64082L10.2288 9.81612C8.86624 9.92273 7.75155 10.9439 7.52632 12.292C7.00555 15.4087 7.00555 18.5903 7.52632 21.7071C7.75155 23.0552 8.86624 24.0764 10.2288 24.183L12.4695 24.3583C15.8182 24.6202 19.1821 24.6202 22.5308 24.3583L24.7715 24.183C26.1341 24.0764 27.2488 23.0552 27.474 21.7071C27.9948 18.5903 27.9948 15.4087 27.474 12.292C27.2488 10.9439 26.1341 9.92273 24.7715 9.81612L22.5308 9.64082ZM12.5865 11.1363C15.8573 10.8804 19.143 10.8804 22.4138 11.1363L24.6545 11.3116C25.3301 11.3644 25.8828 11.8708 25.9945 12.5392C26.4879 15.4923 26.4879 18.5068 25.9945 21.4599C25.8828 22.1283 25.3301 22.6347 24.6545 22.6875L22.4138 22.8628C19.143 23.1187 15.8573 23.1187 12.5865 22.8628L10.3458 22.6875C9.67019 22.6347 9.11749 22.1283 9.00581 21.4599C8.51239 18.5068 8.51239 15.4923 9.00581 12.5392C9.11749 11.8708 9.67019 11.3644 10.3458 11.3116L12.5865 11.1363Z" fill="#5948A0"/>
</svg>
