<svg width="57" height="10" viewBox="0 0 57 10" fill="none" xmlns="http://www.w3.org/2000/svg">
<g clip-path="url(#clip0_296_1298)">
<path d="M1.30924 4.81597C15.4573 4.98533 5.82316 4.89702 19.9712 5.06639C27.9616 5.16212 35.952 5.37567 43.9425 5.33148C44.5711 5.33148 45.533 5.13266 45.8814 4.55092C46.2298 3.96919 45.586 3.72618 45.0862 3.71145C37.9894 3.50527 30.8776 3.53472 23.7733 3.45372C16.669 3.37272 9.55711 3.29908 2.44522 3.21072C1.82416 3.21072 0.86234 3.40948 0.521515 3.98386C0.18069 4.55823 0.809359 4.81597 1.30924 4.81597Z" fill="white"/>
<path d="M42.0112 1.67889C46.3132 2.06917 50.4788 3.36519 54.2809 5.35341L54.8868 4.03529C50.5091 5.92042 46.0178 7.27535 41.4129 8.51983C40.9888 8.63765 40.042 8.99847 40.1783 9.58021C40.3147 10.1619 41.4129 9.97785 41.7916 9.90422C46.6919 8.92484 51.5165 7.20171 56.0835 5.24295C56.5379 5.04413 57.5074 4.3593 56.6894 3.92484C52.5086 1.73043 47.9189 0.441773 43.1927 -5.36442e-05C42.549 -0.0589638 41.5416 0.242951 41.1857 0.802597C40.7994 1.41379 41.5189 1.62734 42.0112 1.67152V1.67889Z" fill="white"/>
</g>
<defs>
<clipPath id="clip0_296_1298">
<rect width="57" height="10" fill="white"/>
</clipPath>
</defs>
</svg>
